  0
SECTION
  2
HEADER
  9
$ACADVER
  1
AC1024
  9
$ACADMAINTVER
 70
     6
  9
$DWGCODEPAGE
  3
ANSI_1252
  9
$INSBASE
 10
0.0
 20
0.0
 30
0.0
  9
$EXTMIN
 10
1.000000000000000E+20
 20
1.000000000000000E+20
 30
1.000000000000000E+20
  9
$EXTMAX
 10
-1.000000000000000E+20
 20
-1.000000000000000E+20
 30
-1.000000000000000E+20
  9
$LIMMIN
 10
0.0
 20
0.0
  9
$LIMMAX
 10
12.0
 20
9.0
  9
$ORTHOMODE
 70
     0
  9
$REGENMODE
 70
     1
  9
$FILLMODE
 70
     1
  9
$QTEXTMODE
 70
     0
  9
$MIRRTEXT
 70
     1
  9
$LTSCALE
 40
1.0
  9
$ATTMODE
 70
     1
  9
$TEXTSIZE
 40
0.2
  9
$TRACEWID
 40
0.05
  9
$TEXTSTYLE
  7
Standard
  9
$CLAYER
  8
0
  9
$CELTYPE
  6
ByLayer
  9
$CECOLOR
 62
   256
  9
$CELTSCALE
 40
1.0
  9
$DISPSILH
 70
     0
  9
$DIMSCALE
 40
1.0
  9
$DIMASZ
 40
0.18
  9
$DIMEXO
 40
0.0625
  9
$DIMDLI
 40
0.38
  9
$DIMRND
 40
0.0
  9
$DIMDLE
 40
0.0
  9
$DIMEXE
 40
0.18
  9
$DIMTP
 40
0.0
  9
$DIMTM
 40
0.0
  9
$DIMTXT
 40
0.18
  9
$DIMCEN
 40
0.09
  9
$DIMTSZ
 40
0.0
  9
$DIMTOL
 70
     0
  9
$DIMLIM
 70
     0
  9
$DIMTIH
 70
     1
  9
$DIMTOH
 70
     1
  9
$DIMSE1
 70
     0
  9
$DIMSE2
 70
     0
  9
$DIMTAD
 70
     0
  9
$DIMZIN
 70
     0
  9
$DIMBLK
  1

  9
$DIMASO
 70
     1
  9
$DIMSHO
 70
     1
  9
$DIMPOST
  1

  9
$DIMAPOST
  1

  9
$DIMALT
 70
     0
  9
$DIMALTD
 70
     2
  9
$DIMALTF
 40
25.4
  9
$DIMLFAC
 40
1.0
  9
$DIMTOFL
 70
     0
  9
$DIMTVP
 40
0.0
  9
$DIMTIX
 70
     0
  9
$DIMSOXD
 70
     0
  9
$DIMSAH
 70
     0
  9
$DIMBLK1
  1

  9
$DIMBLK2
  1

  9
$DIMSTYLE
  2
Standard
  9
$DIMCLRD
 70
     0
  9
$DIMCLRE
 70
     0
  9
$DIMCLRT
 70
     0
  9
$DIMTFAC
 40
1.0
  9
$DIMGAP
 40
0.09
  9
$DIMJUST
 70
     0
  9
$DIMSD1
 70
     0
  9
$DIMSD2
 70
     0
  9
$DIMTOLJ
 70
     1
  9
$DIMTZIN
 70
     0
  9
$DIMALTZ
 70
     0
  9
$DIMALTTZ
 70
     0
  9
$DIMUPT
 70
     0
  9
$DIMDEC
 70
     4
  9
$DIMTDEC
 70
     4
  9
$DIMALTU
 70
     2
  9
$DIMALTTD
 70
     2
  9
$DIMTXSTY
  7
Standard
  9
$DIMAUNIT
 70
     0
  9
$DIMADEC
 70
     0
  9
$DIMALTRND
 40
0.0
  9
$DIMAZIN
 70
     0
  9
$DIMDSEP
 70
    46
  9
$DIMATFIT
 70
     3
  9
$DIMFRAC
 70
     0
  9
$DIMLDRBLK
  1

  9
$DIMLUNIT
 70
     2
  9
$DIMLWD
 70
    -2
  9
$DIMLWE
 70
    -2
  9
$DIMTMOVE
 70
     0
  9
$DIMFXL
 40
1.0
  9
$DIMFXLON
 70
     0
  9
$DIMJOGANG
 40
0.7853981633974483
  9
$DIMTFILL
 70
     0
  9
$DIMTFILLCLR
 70
     0
  9
$DIMARCSYM
 70
     0
  9
$DIMLTYPE
  6

  9
$DIMLTEX1
  6

  9
$DIMLTEX2
  6

  9
$DIMTXTDIRECTION
 70
     0
  9
$LUNITS
 70
     2
  9
$LUPREC
 70
     4
  9
$SKETCHINC
 40
0.1
  9
$FILLETRAD
 40
0.5
  9
$AUNITS
 70
     0
  9
$AUPREC
 70
     0
  9
$MENU
  1
.
  9
$ELEVATION
 40
0.0
  9
$PELEVATION
 40
0.0
  9
$THICKNESS
 40
0.0
  9
$LIMCHECK
 70
     0
  9
$CHAMFERA
 40
0.5
  9
$CHAMFERB
 40
0.5
  9
$CHAMFERC
 40
1.0
  9
$CHAMFERD
 40
0.0
  9
$SKPOLY
 70
     0
  9
$TDCREATE
 40
2459074.362078773
  9
$TDUCREATE
 40
2459074.02874544
  9
$TDUPDATE
 40
2459074.362079016
  9
$TDUUPDATE
 40
2459074.028745683
  9
$TDINDWG
 40
0.0000000116
  9
$TDUSRTIMER
 40
0.0000000116
  9
$USRTIMER
 70
     1
  9
$ANGBASE
 50
0.0
  9
$ANGDIR
 70
     0
  9
$PDMODE
 70
     0
  9
$PDSIZE
 40
0.0
  9
$PLINEWID
 40
0.0
  9
$SPLFRAME
 70
     0
  9
$SPLINETYPE
 70
     6
  9
$SPLINESEGS
 70
     8
  9
$HANDSEED
  5
2C9
  9
$SURFTAB1
 70
     6
  9
$SURFTAB2
 70
     6
  9
$SURFTYPE
 70
     6
  9
$SURFU
 70
     6
  9
$SURFV
 70
     6
  9
$UCSBASE
  2

  9
$UCSNAME
  2

  9
$UCSORG
 10
0.0
 20
0.0
 30
0.0
  9
$UCSXDIR
 10
1.0
 20
0.0
 30
0.0
  9
$UCSYDIR
 10
0.0
 20
1.0
 30
0.0
  9
$UCSORTHOREF
  2

  9
$UCSORTHOVIEW
 70
     0
  9
$UCSORGTOP
 10
0.0
 20
0.0
 30
0.0
  9
$UCSORGBOTTOM
 10
0.0
 20
0.0
 30
0.0
  9
$UCSORGLEFT
 10
0.0
 20
0.0
 30
0.0
  9
$UCSORGRIGHT
 10
0.0
 20
0.0
 30
0.0
  9
$UCSORGFRONT
 10
0.0
 20
0.0
 30
0.0
  9
$UCSORGBACK
 10
0.0
 20
0.0
 30
0.0
  9
$PUCSBASE
  2

  9
$PUCSNAME
  2

  9
$PUCSORG
 10
0.0
 20
0.0
 30
0.0
  9
$PUCSXDIR
 10
1.0
 20
0.0
 30
0.0
  9
$PUCSYDIR
 10
0.0
 20
1.0
 30
0.0
  9
$PUCSORTHOREF
  2

  9
$PUCSORTHOVIEW
 70
     0
  9
$PUCSORGTOP
 10
0.0
 20
0.0
 30
0.0
  9
$PUCSORGBOTTOM
 10
0.0
 20
0.0
 30
0.0
  9
$PUCSORGLEFT
 10
0.0
 20
0.0
 30
0.0
  9
$PUCSORGRIGHT
 10
0.0
 20
0.0
 30
0.0
  9
$PUCSORGFRONT
 10
0.0
 20
0.0
 30
0.0
  9
$PUCSORGBACK
 10
0.0
 20
0.0
 30
0.0
  9
$USERI1
 70
     0
  9
$USERI2
 70
     0
  9
$USERI3
 70
     0
  9
$USERI4
 70
     0
  9
$USERI5
 70
     0
  9
$USERR1
 40
0.0
  9
$USERR2
 40
0.0
  9
$USERR3
 40
0.0
  9
$USERR4
 40
0.0
  9
$USERR5
 40
0.0
  9
$WORLDVIEW
 70
     1
  9
$SHADEDGE
 70
     3
  9
$SHADEDIF
 70
    70
  9
$TILEMODE
 70
     1
  9
$MAXACTVP
 70
    64
  9
$PINSBASE
 10
0.0
 20
0.0
 30
0.0
  9
$PLIMCHECK
 70
     0
  9
$PEXTMIN
 10
1.000000000000000E+20
 20
1.000000000000000E+20
 30
1.000000000000000E+20
  9
$PEXTMAX
 10
-1.000000000000000E+20
 20
-1.000000000000000E+20
 30
-1.000000000000000E+20
  9
$PLIMMIN
 10
0.0
 20
0.0
  9
$PLIMMAX
 10
12.0
 20
9.0
  9
$UNITMODE
 70
     0
  9
$VISRETAIN
 70
     1
  9
$PLINEGEN
 70
     0
  9
$PSLTSCALE
 70
     1
  9
$TREEDEPTH
 70
  3020
  9
$CMLSTYLE
  2
Standard
  9
$CMLJUST
 70
     0
  9
$CMLSCALE
 40
1.0
  9
$PROXYGRAPHICS
 70
     1
  9
$MEASUREMENT
 70
     0
  9
$CELWEIGHT
370
    -1
  9
$ENDCAPS
280
     0
  9
$JOINSTYLE
280
     0
  9
$LWDISPLAY
290
     1
  9
$INSUNITS
 70
     4
  9
$HYPERLINKBASE
  1

  9
$STYLESHEET
  1

  9
$XEDIT
290
     1
  9
$CEPSNTYPE
380
     0
  9
$PSTYLEMODE
290
     1
  9
$FINGERPRINTGUID
  2
{3DF858A6-12DE-489D-8BEC-EAEED74F6CE6}
  9
$VERSIONGUID
  2
{FAEB1C32-E019-11D5-929B-00C0DF256EC4}
  9
$EXTNAMES
290
     1
  9
$PSVPSCALE
 40
0.0
  9
$OLESTARTUP
290
     0
  9
$SORTENTS
280
   127
  9
$INDEXCTL
280
     0
  9
$HIDETEXT
280
     1
  9
$XCLIPFRAME
280
     2
  9
$HALOGAP
280
     0
  9
$OBSCOLOR
 70
   257
  9
$OBSLTYPE
280
     0
  9
$INTERSECTIONDISPLAY
280
     0
  9
$INTERSECTIONCOLOR
 70
   257
  9
$DIMASSOC
280
     2
  9
$PROJECTNAME
  1

  9
$CAMERADISPLAY
290
     0
  9
$LENSLENGTH
 40
50.0
  9
$CAMERAHEIGHT
 40
0.0
  9
$STEPSPERSEC
 40
2.0
  9
$STEPSIZE
 40
6.0
  9
$3DDWFPREC
 40
2.0
  9
$PSOLWIDTH
 40
0.25
  9
$PSOLHEIGHT
 40
4.0
  9
$LOFTANG1
 40
1.570796326794897
  9
$LOFTANG2
 40
1.570796326794897
  9
$LOFTMAG1
 40
0.0
  9
$LOFTMAG2
 40
0.0
  9
$LOFTPARAM
 70
     7
  9
$LOFTNORMALS
280
     1
  9
$LATITUDE
 40
37.795
  9
$LONGITUDE
 40
-122.394
  9
$NORTHDIRECTION
 40
0.0
  9
$TIMEZONE
 70
 -8000
  9
$LIGHTGLYPHDISPLAY
280
     1
  9
$TILEMODELIGHTSYNCH
280
     1
  9
$CMATERIAL
347
3C
  9
$SOLIDHIST
280
     1
  9
$SHOWHIST
280
     1
  9
$DWFFRAME
280
     2
  9
$DGNFRAME
280
     2
  9
$REALWORLDSCALE
290
     1
  9
$INTERFERECOLOR
 62
   256
  9
$CSHADOW
280
     0
  9
$SHADOWPLANELOCATION
 40
0.0
  0
ENDSEC
  0
SECTION
  2
CLASSES
  0
CLASS
  1
ACDBDICTIONARYWDFLT
  2
AcDbDictionaryWithDefault
  3
ObjectDBX Classes
 90
        0
 91
        4
280
     0
281
     0
  0
CLASS
  1
VISUALSTYLE
  2
AcDbVisualStyle
  3
ObjectDBX Classes
 90
     4095
 91
        4
280
     0
281
     0
  0
CLASS
  1
MATERIAL
  2
AcDbMaterial
  3
ObjectDBX Classes
 90
     1153
 91
        4
280
     0
281
     0
  0
CLASS
  1
SUN
  2
AcDbSun
  3
SCENEOE
 90
     1024
 91
        4
280
     0
281
     0
  0
ENDSEC
  0
SECTION
  2
TABLES
  0
TABLE
  2
VPORT
  5
8
330
0
100
AcDbSymbolTable
 70
     1
  0
VPORT
  5
29
330
8
100
AcDbSymbolTableRecord
100
AcDbViewportTableRecord
  2
*Active
 70
     0
 10
0.0
 20
0.0
 11
1.0
 21
1.0
 12
0.0
 22
0.0
 13
0.0
 23
0.0
 14
0.5
 24
0.5
 15
0.5
 25
0.5
 16
0.0
 26
0.0
 36
1.0
 17
406.3999998984
 27
-253.9999999365
 37
0.0
 40
507.999999873
 41
1.6
 42
50.0
 43
0.0
 44
0.0
 50
0.0
 51
0.0
 71
     0
 72
   100
 73
     1
 74
     3
 75
     0
 76
     0
 77
     0
 78
     0
281
     0
 65
     1
110
0.0
120
0.0
130
0.0
111
1.0
121
0.0
131
0.0
112
0.0
122
1.0
132
0.0
 79
     0
146
0.0
 60
     3
 61
     5
292
     1
282
     1
141
0.0
142
0.0
 63
   250
361
3F
  0
ENDTAB
  0
TABLE
  2
LTYPE
  5
5
330
0
100
AcDbSymbolTable
 70
     1
  0
LTYPE
  5
14
330
5
100
AcDbSymbolTableRecord
100
AcDbLinetypeTableRecord
  2
ByBlock
 70
     0
  3

 72
    65
 73
     0
 40
0.0
  0
LTYPE
  5
15
330
5
100
AcDbSymbolTableRecord
100
AcDbLinetypeTableRecord
  2
ByLayer
 70
     0
  3

 72
    65
 73
     0
 40
0.0
  0
LTYPE
  5
16
330
5
100
AcDbSymbolTableRecord
100
AcDbLinetypeTableRecord
  2
Continuous
 70
     0
  3
Solid line
 72
    65
 73
     0
 40
0.0
  0
ENDTAB
  0
TABLE
  2
LAYER
  5
2
330
0
100
AcDbSymbolTable
 70
     3
  0
LAYER
  5
10
330
2
100
AcDbSymbolTableRecord
100
AcDbLayerTableRecord
  2
0
 70
     0
 62
     7
  6
Continuous
370
    -3
390
F
347
3E
  0
LAYER
  5
40
330
2
100
AcDbSymbolTableRecord
100
AcDbLayerTableRecord
  2
Layer 1
 70
     0
 62
     7
  6
Continuous
370
    -3
390
F
347
3E
  0
LAYER
  5
290
330
2
100
AcDbSymbolTableRecord
100
AcDbLayerTableRecord
  2
paattern
 70
     0
 62
     7
  6
Continuous
370
    -3
390
F
347
3E
  0
ENDTAB
  0
TABLE
  2
STYLE
  5
3
330
0
100
AcDbSymbolTable
 70
     1
  0
STYLE
  5
11
330
3
100
AcDbSymbolTableRecord
100
AcDbTextStyleTableRecord
  2
Standard
 70
     0
 40
0.0
 41
1.0
 50
0.0
 71
     0
 42
0.2
  3
txt
  4

  0
ENDTAB
  0
TABLE
  2
VIEW
  5
6
330
0
100
AcDbSymbolTable
 70
     0
  0
ENDTAB
  0
TABLE
  2
UCS
  5
7
330
0
100
AcDbSymbolTable
 70
     0
  0
ENDTAB
  0
TABLE
  2
APPID
  5
9
330
0
100
AcDbSymbolTable
 70
     1
  0
APPID
  5
12
330
9
100
AcDbSymbolTableRecord
100
AcDbRegAppTableRecord
  2
ACAD
 70
     0
  0
ENDTAB
  0
TABLE
  2
DIMSTYLE
  5
A
330
0
100
AcDbSymbolTable
 70
     1
100
AcDbDimStyleTable
  0
DIMSTYLE
105
27
330
A
100
AcDbSymbolTableRecord
100
AcDbDimStyleTableRecord
  2
Standard
 70
     0
178
     0
340
11
  0
ENDTAB
  0
TABLE
  2
BLOCK_RECORD
  5
1
330
0
100
AcDbSymbolTable
 70
    35
  0
BLOCK_RECORD
  5
1F
330
1
100
AcDbSymbolTableRecord
100
AcDbBlockTableRecord
  2
*Model_Space
340
22
 70
     0
280
     1
281
     0
  0
BLOCK_RECORD
  5
1B
330
1
100
AcDbSymbolTableRecord
100
AcDbBlockTableRecord
  2
*Paper_Space
340
1E
 70
     0
280
     1
281
     0
  0
BLOCK_RECORD
  5
23
330
1
100
AcDbSymbolTableRecord
100
AcDbBlockTableRecord
  2
*Paper_Space0
340
26
 70
     0
280
     1
281
     0
  0
BLOCK_RECORD
  5
41
330
1
100
AcDbSymbolTableRecord
100
AcDbBlockTableRecord
  2
block 2
340
0
102
{BLKREFS
331
42
102
}
 70
     0
280
     1
281
     0
  0
BLOCK_RECORD
  5
64
330
1
100
AcDbSymbolTableRecord
100
AcDbBlockTableRecord
  2
block 3
340
0
102
{BLKREFS
331
65
102
}
 70
     0
280
     1
281
     0
  0
BLOCK_RECORD
  5
6E
330
1
100
AcDbSymbolTableRecord
100
AcDbBlockTableRecord
  2
block 4
340
0
102
{BLKREFS
331
6F
102
}
 70
     0
280
     1
281
     0
  0
BLOCK_RECORD
  5
78
330
1
100
AcDbSymbolTableRecord
100
AcDbBlockTableRecord
  2
block 5
340
0
102
{BLKREFS
331
79
102
}
 70
     0
280
     1
281
     0
  0
BLOCK_RECORD
  5
82
330
1
100
AcDbSymbolTableRecord
100
AcDbBlockTableRecord
  2
block 6
340
0
102
{BLKREFS
331
83
102
}
 70
     0
280
     1
281
     0
  0
BLOCK_RECORD
  5
8C
330
1
100
AcDbSymbolTableRecord
100
AcDbBlockTableRecord
  2
block 7
340
0
102
{BLKREFS
331
8D
102
}
 70
     0
280
     1
281
     0
  0
BLOCK_RECORD
  5
96
330
1
100
AcDbSymbolTableRecord
100
AcDbBlockTableRecord
  2
block 8
340
0
102
{BLKREFS
331
97
102
}
 70
     0
280
     1
281
     0
  0
BLOCK_RECORD
  5
A0
330
1
100
AcDbSymbolTableRecord
100
AcDbBlockTableRecord
  2
block 9
340
0
102
{BLKREFS
331
A1
102
}
 70
     0
280
     1
281
     0
  0
BLOCK_RECORD
  5
AA
330
1
100
AcDbSymbolTableRecord
100
AcDbBlockTableRecord
  2
block 10
340
0
102
{BLKREFS
331
AB
102
}
 70
     0
280
     1
281
     0
  0
BLOCK_RECORD
  5
B4
330
1
100
AcDbSymbolTableRecord
100
AcDbBlockTableRecord
  2
block 11
340
0
102
{BLKREFS
331
B5
102
}
 70
     0
280
     1
281
     0
  0
BLOCK_RECORD
  5
BE
330
1
100
AcDbSymbolTableRecord
100
AcDbBlockTableRecord
  2
block 12
340
0
102
{BLKREFS
331
BF
102
}
 70
     0
280
     1
281
     0
  0
BLOCK_RECORD
  5
C8
330
1
100
AcDbSymbolTableRecord
100
AcDbBlockTableRecord
  2
block 13
340
0
102
{BLKREFS
331
C9
102
}
 70
     0
280
     1
281
     0
  0
BLOCK_RECORD
  5
D2
330
1
100
AcDbSymbolTableRecord
100
AcDbBlockTableRecord
  2
block 14
340
0
102
{BLKREFS
331
D3
102
}
 70
     0
280
     1
281
     0
  0
BLOCK_RECORD
  5
DC
330
1
100
AcDbSymbolTableRecord
100
AcDbBlockTableRecord
  2
block 15
340
0
102
{BLKREFS
331
DD
102
}
 70
     0
280
     1
281
     0
  0
BLOCK_RECORD
  5
E6
330
1
100
AcDbSymbolTableRecord
100
AcDbBlockTableRecord
  2
block 16
340
0
102
{BLKREFS
331
E7
102
}
 70
     0
280
     1
281
     0
  0
BLOCK_RECORD
  5
F0
330
1
100
AcDbSymbolTableRecord
100
AcDbBlockTableRecord
  2
block 17
340
0
102
{BLKREFS
331
F1
102
}
 70
     0
280
     1
281
     0
  0
BLOCK_RECORD
  5
FA
330
1
100
AcDbSymbolTableRecord
100
AcDbBlockTableRecord
  2
block 18
340
0
102
{BLKREFS
331
FB
102
}
 70
     0
280
     1
281
     0
  0
BLOCK_RECORD
  5
104
330
1
100
AcDbSymbolTableRecord
100
AcDbBlockTableRecord
  2
block 19
340
0
102
{BLKREFS
331
105
102
}
 70
     0
280
     1
281
     0
  0
BLOCK_RECORD
  5
10E
330
1
100
AcDbSymbolTableRecord
100
AcDbBlockTableRecord
  2
block 20
340
0
102
{BLKREFS
331
10F
102
}
 70
     0
280
     1
281
     0
  0
BLOCK_RECORD
  5
118
330
1
100
AcDbSymbolTableRecord
100
AcDbBlockTableRecord
  2
block 21
340
0
102
{BLKREFS
331
119
102
}
 70
     0
280
     1
281
     0
  0
BLOCK_RECORD
  5
122
330
1
100
AcDbSymbolTableRecord
100
AcDbBlockTableRecord
  2
block 22
340
0
102
{BLKREFS
331
123
102
}
 70
     0
280
     1
281
     0
  0
BLOCK_RECORD
  5
12C
330
1
100
AcDbSymbolTableRecord
100
AcDbBlockTableRecord
  2
block 23
340
0
102
{BLKREFS
331
12D
102
}
 70
     0
280
     1
281
     0
  0
BLOCK_RECORD
  5
136
330
1
100
AcDbSymbolTableRecord
100
AcDbBlockTableRecord
  2
block 24
340
0
102
{BLKREFS
331
137
102
}
 70
     0
280
     1
281
     0
  0
BLOCK_RECORD
  5
140
330
1
100
AcDbSymbolTableRecord
100
AcDbBlockTableRecord
  2
block 25
340
0
102
{BLKREFS
331
141
102
}
 70
     0
280
     1
281
     0
  0
BLOCK_RECORD
  5
14A
330
1
100
AcDbSymbolTableRecord
100
AcDbBlockTableRecord
  2
block 26
340
0
102
{BLKREFS
331
14B
102
}
 70
     0
280
     1
281
     0
  0
BLOCK_RECORD
  5
154
330
1
100
AcDbSymbolTableRecord
100
AcDbBlockTableRecord
  2
block 27
340
0
102
{BLKREFS
331
155
102
}
 70
     0
280
     1
281
     0
  0
BLOCK_RECORD
  5
15E
330
1
100
AcDbSymbolTableRecord
100
AcDbBlockTableRecord
  2
block 28
340
0
102
{BLKREFS
331
15F
102
}
 70
     0
280
     1
281
     0
  0
BLOCK_RECORD
  5
168
330
1
100
AcDbSymbolTableRecord
100
AcDbBlockTableRecord
  2
block 29
340
0
102
{BLKREFS
331
169
102
}
 70
     0
280
     1
281
     0
  0
BLOCK_RECORD
  5
18B
330
1
100
AcDbSymbolTableRecord
100
AcDbBlockTableRecord
  2
block 30
340
0
102
{BLKREFS
331
18C
102
}
 70
     0
280
     1
281
     0
  0
BLOCK_RECORD
  5
1B6
330
1
100
AcDbSymbolTableRecord
100
AcDbBlockTableRecord
  2
block 31
340
0
102
{BLKREFS
331
1B7
102
}
 70
     0
280
     1
281
     0
  0
BLOCK_RECORD
  5
1C1
330
1
100
AcDbSymbolTableRecord
100
AcDbBlockTableRecord
  2
block 32
340
0
102
{BLKREFS
331
1C2
102
}
 70
     0
280
     1
281
     0
  0
BLOCK_RECORD
  5
1CC
330
1
100
AcDbSymbolTableRecord
100
AcDbBlockTableRecord
  2
block 33
340
0
102
{BLKREFS
331
1CD
102
}
 70
     0
280
     1
281
     0
  0
BLOCK_RECORD
  5
1D1
330
1
100
AcDbSymbolTableRecord
100
AcDbBlockTableRecord
  2
block 34
340
0
102
{BLKREFS
331
1D2
102
}
 70
     0
280
     1
281
     0
  0
BLOCK_RECORD
  5
22F
330
1
100
AcDbSymbolTableRecord
100
AcDbBlockTableRecord
  2
block 35
340
0
102
{BLKREFS
331
230
102
}
 70
     0
280
     1
281
     0
  0
ENDTAB
  0
ENDSEC
  0
SECTION
  2
BLOCKS
  0
BLOCK
  5
20
330
1F
100
AcDbEntity
  8
0
100
AcDbBlockBegin
  2
*Model_Space
 70
     0
 10
0.0
 20
0.0
 30
0.0
  3
*Model_Space
  1

  0
ENDBLK
  5
21
330
1F
100
AcDbEntity
  8
0
100
AcDbBlockEnd
  0
BLOCK
  5
1C
330
1B
100
AcDbEntity
 67
     1
  8
0
100
AcDbBlockBegin
  2
*Paper_Space
 70
     0
 10
0.0
 20
0.0
 30
0.0
  3
*Paper_Space
  1

  0
ENDBLK
  5
1D
330
1B
100
AcDbEntity
 67
     1
  8
0
100
AcDbBlockEnd
  0
BLOCK
  5
24
330
23
100
AcDbEntity
  8
0
100
AcDbBlockBegin
  2
*Paper_Space0
 70
     0
 10
0.0
 20
0.0
 30
0.0
  3
*Paper_Space0
  1

  0
ENDBLK
  5
25
330
23
100
AcDbEntity
  8
0
100
AcDbBlockEnd
  0
BLOCK
  5
43
330
41
100
AcDbEntity
  8
0
100
AcDbBlockBegin
  2
block 2
 70
     0
 10
0.0
 20
0.0
 30
0.0
  3
block 2
  1

  0
POLYLINE
  5
45
330
41
100
AcDbEntity
  8
Layer 1
370
     0
100
AcDb2dPolyline
 66
     1
 10
0.0
 20
0.0
 30
0.0
  0
VERTEX
  5
46
330
45
100
AcDbEntity
  8
Layer 1
370
     0
100
AcDbVertex
100
AcDb2dVertex
 10
36.58713567869017
 20
-56.25978463613318
 30
0.0
  0
VERTEX
  5
47
330
45
100
AcDbEntity
  8
Layer 1
370
     0
100
AcDbVertex
100
AcDb2dVertex
 10
36.58713567869017
 20
-27.75978463613282
 30
0.0
  0
VERTEX
  5
48
330
45
100
AcDbEntity
  8
Layer 1
370
     0
100
AcDbVertex
100
AcDb2dVertex
 10
59.58713567869034
 20
-27.75978463613282
 30
0.0
  0
VERTEX
  5
49
330
45
100
AcDbEntity
  8
Layer 1
370
     0
100
AcDbVertex
100
AcDb2dVertex
 10
59.58713567869034
 20
-30.75978463613292
 30
0.0
  0
VERTEX
  5
4A
330
45
100
AcDbEntity
  8
Layer 1
370
     0
100
AcDbVertex
100
AcDb2dVertex
 10
79.58713567869007
 20
-30.75978463613292
 30
0.0
  0
VERTEX
  5
4B
330
45
100
AcDbEntity
  8
Layer 1
370
     0
100
AcDbVertex
100
AcDb2dVertex
 10
79.5871356786904
 20
-27.75978463613282
 30
0.0
  0
VERTEX
  5
4C
330
45
100
AcDbEntity
  8
Layer 1
370
     0
100
AcDbVertex
100
AcDb2dVertex
 10
105.58713567869
 20
-27.75978463613282
 30
0.0
  0
VERTEX
  5
4D
330
45
100
AcDbEntity
  8
Layer 1
370
     0
100
AcDbVertex
100
AcDb2dVertex
 10
105.58713567869
 20
-30.75978463613292
 30
0.0
  0
VERTEX
  5
4E
330
45
100
AcDbEntity
  8
Layer 1
370
     0
100
AcDbVertex
100
AcDb2dVertex
 10
125.5871356786901
 20
-30.75978463613292
 30
0.0
  0
VERTEX
  5
4F
330
45
100
AcDbEntity
  8
Layer 1
370
     0
100
AcDbVertex
100
AcDb2dVertex
 10
125.5871356786901
 20
-27.75978463613282
 30
0.0
  0
VERTEX
  5
50
330
45
100
AcDbEntity
  8
Layer 1
370
     0
100
AcDbVertex
100
AcDb2dVertex
 10
148.5871356786903
 20
-27.75978463613282
 30
0.0
  0
VERTEX
  5
51
330
45
100
AcDbEntity
  8
Layer 1
370
     0
100
AcDbVertex
100
AcDb2dVertex
 10
148.5871356786903
 20
-56.25978463613318
 30
0.0
  0
VERTEX
  5
52
330
45
100
AcDbEntity
  8
Layer 1
370
     0
100
AcDbVertex
100
AcDb2dVertex
 10
145.5871356786902
 20
-56.25978463613318
 30
0.0
  0
VERTEX
  5
53
330
45
100
AcDbEntity
  8
Layer 1
370
     0
100
AcDbVertex
100
AcDb2dVertex
 10
145.5871356786902
 20
-76.25978463613261
 30
0.0
  0
VERTEX
  5
54
330
45
100
AcDbEntity
  8
Layer 1
370
     0
100
AcDbVertex
100
AcDb2dVertex
 10
148.5871356786903
 20
-76.25978463613261
 30
0.0
  0
VERTEX
  5
55
330
45
100
AcDbEntity
  8
Layer 1
370
     0
100
AcDbVertex
100
AcDb2dVertex
 10
148.5871356786903
 20
-104.7597846361327
 30
0.0
  0
VERTEX
  5
56
330
45
100
AcDbEntity
  8
Layer 1
370
     0
100
AcDbVertex
100
AcDb2dVertex
 10
125.5871356786901
 20
-104.7597846361327
 30
0.0
  0
VERTEX
  5
57
330
45
100
AcDbEntity
  8
Layer 1
370
     0
100
AcDbVertex
100
AcDb2dVertex
 10
125.5871356786901
 20
-101.7597846361329
 30
0.0
  0
VERTEX
  5
58
330
45
100
AcDbEntity
  8
Layer 1
370
     0
100
AcDbVertex
100
AcDb2dVertex
 10
105.58713567869
 20
-101.7597846361325
 30
0.0
  0
VERTEX
  5
59
330
45
100
AcDbEntity
  8
Layer 1
370
     0
100
AcDbVertex
100
AcDb2dVertex
 10
105.58713567869
 20
-104.7597846361327
 30
0.0
  0
VERTEX
  5
5A
330
45
100
AcDbEntity
  8
Layer 1
370
     0
100
AcDbVertex
100
AcDb2dVertex
 10
79.5871356786904
 20
-104.7597846361327
 30
0.0
  0
VERTEX
  5
5B
330
45
100
AcDbEntity
  8
Layer 1
370
     0
100
AcDbVertex
100
AcDb2dVertex
 10
79.5871356786904
 20
-101.7597846361329
 30
0.0
  0
VERTEX
  5
5C
330
45
100
AcDbEntity
  8
Layer 1
370
     0
100
AcDbVertex
100
AcDb2dVertex
 10
59.58713567869034
 20
-101.7597846361325
 30
0.0
  0
VERTEX
  5
5D
330
45
100
AcDbEntity
  8
Layer 1
370
     0
100
AcDbVertex
100
AcDb2dVertex
 10
59.58713567869034
 20
-104.7597846361327
 30
0.0
  0
VERTEX
  5
5E
330
45
100
AcDbEntity
  8
Layer 1
370
     0
100
AcDbVertex
100
AcDb2dVertex
 10
36.58713567869017
 20
-104.7597846361327
 30
0.0
  0
VERTEX
  5
5F
330
45
100
AcDbEntity
  8
Layer 1
370
     0
100
AcDbVertex
100
AcDb2dVertex
 10
36.58713567869017
 20
-76.25978463613261
 30
0.0
  0
VERTEX
  5
60
330
45
100
AcDbEntity
  8
Layer 1
370
     0
100
AcDbVertex
100
AcDb2dVertex
 10
39.58713567869027
 20
-76.25978463613261
 30
0.0
  0
VERTEX
  5
61
330
45
100
AcDbEntity
  8
Layer 1
370
     0
100
AcDbVertex
100
AcDb2dVertex
 10
39.58713567869027
 20
-56.25978463613318
 30
0.0
  0
VERTEX
  5
62
330
45
100
AcDbEntity
  8
Layer 1
370
     0
100
AcDbVertex
100
AcDb2dVertex
 10
36.58713567869017
 20
-56.25978463613318
 30
0.0
  0
SEQEND
  5
63
330
45
100
AcDbEntity
  8
Layer 1
370
     0
  0
ENDBLK
  5
44
330
41
100
AcDbEntity
  8
0
100
AcDbBlockEnd
  0
BLOCK
  5
66
330
64
100
AcDbEntity
  8
0
100
AcDbBlockBegin
  2
block 3
 70
     0
 10
0.0
 20
0.0
 30
0.0
  3
block 3
  1

  0
POLYLINE
  5
68
330
64
100
AcDbEntity
  8
Layer 1
370
     0
100
AcDb2dPolyline
 66
     1
 10
0.0
 20
0.0
 30
0.0
  0
VERTEX
  5
69
330
68
100
AcDbEntity
  8
Layer 1
370
     0
100
AcDbVertex
100
AcDb2dVertex
 10
125.5871356786901
 20
-104.7597846361327
 30
0.0
  0
VERTEX
  5
291
330
68
100
AcDbEntity
  8
0
100
AcDbVertex
100
AcDb2dVertex
 10
125.5871356786901
 20
-104.7597846361327
 30
0.0
  0
SEQEND
  5
6A
330
68
100
AcDbEntity
  8
Layer 1
370
     0
  0
POLYLINE
  5
6B
330
64
100
AcDbEntity
  8
Layer 1
370
     0
100
AcDb2dPolyline
 66
     1
 10
0.0
 20
0.0
 30
0.0
  0
VERTEX
  5
6C
330
6B
100
AcDbEntity
  8
Layer 1
370
     0
100
AcDbVertex
100
AcDb2dVertex
 10
148.5871356786903
 20
-104.7597846361327
 30
0.0
  0
VERTEX
  5
292
330
6B
100
AcDbEntity
  8
0
100
AcDbVertex
100
AcDb2dVertex
 10
148.5871356786903
 20
-104.7597846361327
 30
0.0
  0
SEQEND
  5
6D
330
6B
100
AcDbEntity
  8
Layer 1
370
     0
  0
ENDBLK
  5
67
330
64
100
AcDbEntity
  8
0
100
AcDbBlockEnd
  0
BLOCK
  5
70
330
6E
100
AcDbEntity
  8
0
100
AcDbBlockBegin
  2
block 4
 70
     0
 10
0.0
 20
0.0
 30
0.0
  3
block 4
  1

  0
POLYLINE
  5
72
330
6E
100
AcDbEntity
  8
Layer 1
370
     0
100
AcDb2dPolyline
 66
     1
 10
0.0
 20
0.0
 30
0.0
  0
VERTEX
  5
73
330
72
100
AcDbEntity
  8
Layer 1
370
     0
100
AcDbVertex
100
AcDb2dVertex
 10
125.5871356786901
 20
-101.7597846361325
 30
0.0
  0
VERTEX
  5
293
330
72
100
AcDbEntity
  8
0
100
AcDbVertex
100
AcDb2dVertex
 10
125.5871356786901
 20
-101.7597846361325
 30
0.0
  0
SEQEND
  5
74
330
72
100
AcDbEntity
  8
Layer 1
370
     0
  0
POLYLINE
  5
75
330
6E
100
AcDbEntity
  8
Layer 1
370
     0
100
AcDb2dPolyline
 66
     1
 10
0.0
 20
0.0
 30
0.0
  0
VERTEX
  5
76
330
75
100
AcDbEntity
  8
Layer 1
370
     0
100
AcDbVertex
100
AcDb2dVertex
 10
125.5871356786901
 20
-104.7597846361327
 30
0.0
  0
VERTEX
  5
294
330
75
100
AcDbEntity
  8
0
100
AcDbVertex
100
AcDb2dVertex
 10
125.5871356786901
 20
-104.7597846361327
 30
0.0
  0
SEQEND
  5
77
330
75
100
AcDbEntity
  8
Layer 1
370
     0
  0
ENDBLK
  5
71
330
6E
100
AcDbEntity
  8
0
100
AcDbBlockEnd
  0
BLOCK
  5
7A
330
78
100
AcDbEntity
  8
0
100
AcDbBlockBegin
  2
block 5
 70
     0
 10
0.0
 20
0.0
 30
0.0
  3
block 5
  1

  0
POLYLINE
  5
7C
330
78
100
AcDbEntity
  8
Layer 1
370
     0
100
AcDb2dPolyline
 66
     1
 10
0.0
 20
0.0
 30
0.0
  0
VERTEX
  5
7D
330
7C
100
AcDbEntity
  8
Layer 1
370
     0
100
AcDbVertex
100
AcDb2dVertex
 10
105.58713567869
 20
-104.7597846361327
 30
0.0
  0
VERTEX
  5
295
330
7C
100
AcDbEntity
  8
0
100
AcDbVertex
100
AcDb2dVertex
 10
105.58713567869
 20
-104.7597846361327
 30
0.0
  0
SEQEND
  5
7E
330
7C
100
AcDbEntity
  8
Layer 1
370
     0
  0
POLYLINE
  5
7F
330
78
100
AcDbEntity
  8
Layer 1
370
     0
100
AcDb2dPolyline
 66
     1
 10
0.0
 20
0.0
 30
0.0
  0
VERTEX
  5
80
330
7F
100
AcDbEntity
  8
Layer 1
370
     0
100
AcDbVertex
100
AcDb2dVertex
 10
105.58713567869
 20
-101.7597846361325
 30
0.0
  0
VERTEX
  5
296
330
7F
100
AcDbEntity
  8
0
100
AcDbVertex
100
AcDb2dVertex
 10
105.58713567869
 20
-101.7597846361325
 30
0.0
  0
SEQEND
  5
81
330
7F
100
AcDbEntity
  8
Layer 1
370
     0
  0
ENDBLK
  5
7B
330
78
100
AcDbEntity
  8
0
100
AcDbBlockEnd
  0
BLOCK
  5
84
330
82
100
AcDbEntity
  8
0
100
AcDbBlockBegin
  2
block 6
 70
     0
 10
0.0
 20
0.0
 30
0.0
  3
block 6
  1

  0
POLYLINE
  5
86
330
82
100
AcDbEntity
  8
Layer 1
370
     0
100
AcDb2dPolyline
 66
     1
 10
0.0
 20
0.0
 30
0.0
  0
VERTEX
  5
87
330
86
100
AcDbEntity
  8
Layer 1
370
     0
100
AcDbVertex
100
AcDb2dVertex
 10
105.58713567869
 20
-104.7597846361327
 30
0.0
  0
VERTEX
  5
297
330
86
100
AcDbEntity
  8
0
100
AcDbVertex
100
AcDb2dVertex
 10
105.58713567869
 20
-104.7597846361327
 30
0.0
  0
SEQEND
  5
88
330
86
100
AcDbEntity
  8
Layer 1
370
     0
  0
POLYLINE
  5
89
330
82
100
AcDbEntity
  8
Layer 1
370
     0
100
AcDb2dPolyline
 66
     1
 10
0.0
 20
0.0
 30
0.0
  0
VERTEX
  5
8A
330
89
100
AcDbEntity
  8
Layer 1
370
     0
100
AcDbVertex
100
AcDb2dVertex
 10
79.5871356786904
 20
-104.7597846361327
 30
0.0
  0
VERTEX
  5
298
330
89
100
AcDbEntity
  8
0
100
AcDbVertex
100
AcDb2dVertex
 10
79.5871356786904
 20
-104.7597846361327
 30
0.0
  0
SEQEND
  5
8B
330
89
100
AcDbEntity
  8
Layer 1
370
     0
  0
ENDBLK
  5
85
330
82
100
AcDbEntity
  8
0
100
AcDbBlockEnd
  0
BLOCK
  5
8E
330
8C
100
AcDbEntity
  8
0
100
AcDbBlockBegin
  2
block 7
 70
     0
 10
0.0
 20
0.0
 30
0.0
  3
block 7
  1

  0
POLYLINE
  5
90
330
8C
100
AcDbEntity
  8
Layer 1
370
     0
100
AcDb2dPolyline
 66
     1
 10
0.0
 20
0.0
 30
0.0
  0
VERTEX
  5
91
330
90
100
AcDbEntity
  8
Layer 1
370
     0
100
AcDbVertex
100
AcDb2dVertex
 10
79.5871356786904
 20
-101.7597846361325
 30
0.0
  0
VERTEX
  5
299
330
90
100
AcDbEntity
  8
0
100
AcDbVertex
100
AcDb2dVertex
 10
79.5871356786904
 20
-101.7597846361325
 30
0.0
  0
SEQEND
  5
92
330
90
100
AcDbEntity
  8
Layer 1
370
     0
  0
POLYLINE
  5
93
330
8C
100
AcDbEntity
  8
Layer 1
370
     0
100
AcDb2dPolyline
 66
     1
 10
0.0
 20
0.0
 30
0.0
  0
VERTEX
  5
94
330
93
100
AcDbEntity
  8
Layer 1
370
     0
100
AcDbVertex
100
AcDb2dVertex
 10
79.5871356786904
 20
-104.7597846361327
 30
0.0
  0
VERTEX
  5
29A
330
93
100
AcDbEntity
  8
0
100
AcDbVertex
100
AcDb2dVertex
 10
79.5871356786904
 20
-104.7597846361327
 30
0.0
  0
SEQEND
  5
95
330
93
100
AcDbEntity
  8
Layer 1
370
     0
  0
ENDBLK
  5
8F
330
8C
100
AcDbEntity
  8
0
100
AcDbBlockEnd
  0
BLOCK
  5
98
330
96
100
AcDbEntity
  8
0
100
AcDbBlockBegin
  2
block 8
 70
     0
 10
0.0
 20
0.0
 30
0.0
  3
block 8
  1

  0
POLYLINE
  5
9A
330
96
100
AcDbEntity
  8
Layer 1
370
     0
100
AcDb2dPolyline
 66
     1
 10
0.0
 20
0.0
 30
0.0
  0
VERTEX
  5
9B
330
9A
100
AcDbEntity
  8
Layer 1
370
     0
100
AcDbVertex
100
AcDb2dVertex
 10
59.58713567869034
 20
-101.7597846361325
 30
0.0
  0
VERTEX
  5
29B
330
9A
100
AcDbEntity
  8
0
100
AcDbVertex
100
AcDb2dVertex
 10
59.58713567869034
 20
-101.7597846361325
 30
0.0
  0
SEQEND
  5
9C
330
9A
100
AcDbEntity
  8
Layer 1
370
     0
  0
POLYLINE
  5
9D
330
96
100
AcDbEntity
  8
Layer 1
370
     0
100
AcDb2dPolyline
 66
     1
 10
0.0
 20
0.0
 30
0.0
  0
VERTEX
  5
9E
330
9D
100
AcDbEntity
  8
Layer 1
370
     0
100
AcDbVertex
100
AcDb2dVertex
 10
79.5871356786904
 20
-101.7597846361325
 30
0.0
  0
VERTEX
  5
29C
330
9D
100
AcDbEntity
  8
0
100
AcDbVertex
100
AcDb2dVertex
 10
79.5871356786904
 20
-101.7597846361325
 30
0.0
  0
SEQEND
  5
9F
330
9D
100
AcDbEntity
  8
Layer 1
370
     0
  0
ENDBLK
  5
99
330
96
100
AcDbEntity
  8
0
100
AcDbBlockEnd
  0
BLOCK
  5
A2
330
A0
100
AcDbEntity
  8
0
100
AcDbBlockBegin
  2
block 9
 70
     0
 10
0.0
 20
0.0
 30
0.0
  3
block 9
  1

  0
POLYLINE
  5
A4
330
A0
100
AcDbEntity
  8
Layer 1
370
     0
100
AcDb2dPolyline
 66
     1
 10
0.0
 20
0.0
 30
0.0
  0
VERTEX
  5
A5
330
A4
100
AcDbEntity
  8
Layer 1
370
     0
100
AcDbVertex
100
AcDb2dVertex
 10
59.58713567869034
 20
-101.7597846361325
 30
0.0
  0
VERTEX
  5
29D
330
A4
100
AcDbEntity
  8
0
100
AcDbVertex
100
AcDb2dVertex
 10
59.58713567869034
 20
-101.7597846361325
 30
0.0
  0
SEQEND
  5
A6
330
A4
100
AcDbEntity
  8
Layer 1
370
     0
  0
POLYLINE
  5
A7
330
A0
100
AcDbEntity
  8
Layer 1
370
     0
100
AcDb2dPolyline
 66
     1
 10
0.0
 20
0.0
 30
0.0
  0
VERTEX
  5
A8
330
A7
100
AcDbEntity
  8
Layer 1
370
     0
100
AcDbVertex
100
AcDb2dVertex
 10
59.58713567869034
 20
-104.7597846361327
 30
0.0
  0
VERTEX
  5
29E
330
A7
100
AcDbEntity
  8
0
100
AcDbVertex
100
AcDb2dVertex
 10
59.58713567869034
 20
-104.7597846361327
 30
0.0
  0
SEQEND
  5
A9
330
A7
100
AcDbEntity
  8
Layer 1
370
     0
  0
ENDBLK
  5
A3
330
A0
100
AcDbEntity
  8
0
100
AcDbBlockEnd
  0
BLOCK
  5
AC
330
AA
100
AcDbEntity
  8
0
100
AcDbBlockBegin
  2
block 10
 70
     0
 10
0.0
 20
0.0
 30
0.0
  3
block 10
  1

  0
POLYLINE
  5
AE
330
AA
100
AcDbEntity
  8
Layer 1
370
     0
100
AcDb2dPolyline
 66
     1
 10
0.0
 20
0.0
 30
0.0
  0
VERTEX
  5
AF
330
AE
100
AcDbEntity
  8
Layer 1
370
     0
100
AcDbVertex
100
AcDb2dVertex
 10
36.58713567869017
 20
-104.7597846361327
 30
0.0
  0
VERTEX
  5
29F
330
AE
100
AcDbEntity
  8
0
100
AcDbVertex
100
AcDb2dVertex
 10
36.58713567869017
 20
-104.7597846361327
 30
0.0
  0
SEQEND
  5
B0
330
AE
100
AcDbEntity
  8
Layer 1
370
     0
  0
POLYLINE
  5
B1
330
AA
100
AcDbEntity
  8
Layer 1
370
     0
100
AcDb2dPolyline
 66
     1
 10
0.0
 20
0.0
 30
0.0
  0
VERTEX
  5
B2
330
B1
100
AcDbEntity
  8
Layer 1
370
     0
100
AcDbVertex
100
AcDb2dVertex
 10
59.58713567869034
 20
-104.7597846361327
 30
0.0
  0
VERTEX
  5
2A0
330
B1
100
AcDbEntity
  8
0
100
AcDbVertex
100
AcDb2dVertex
 10
59.58713567869034
 20
-104.7597846361327
 30
0.0
  0
SEQEND
  5
B3
330
B1
100
AcDbEntity
  8
Layer 1
370
     0
  0
ENDBLK
  5
AD
330
AA
100
AcDbEntity
  8
0
100
AcDbBlockEnd
  0
BLOCK
  5
B6
330
B4
100
AcDbEntity
  8
0
100
AcDbBlockBegin
  2
block 11
 70
     0
 10
0.0
 20
0.0
 30
0.0
  3
block 11
  1

  0
POLYLINE
  5
B8
330
B4
100
AcDbEntity
  8
Layer 1
370
     0
100
AcDb2dPolyline
 66
     1
 10
0.0
 20
0.0
 30
0.0
  0
VERTEX
  5
B9
330
B8
100
AcDbEntity
  8
Layer 1
370
     0
100
AcDbVertex
100
AcDb2dVertex
 10
36.58713567869017
 20
-76.25978463613261
 30
0.0
  0
VERTEX
  5
2A1
330
B8
100
AcDbEntity
  8
0
100
AcDbVertex
100
AcDb2dVertex
 10
36.58713567869017
 20
-76.25978463613261
 30
0.0
  0
SEQEND
  5
BA
330
B8
100
AcDbEntity
  8
Layer 1
370
     0
  0
POLYLINE
  5
BB
330
B4
100
AcDbEntity
  8
Layer 1
370
     0
100
AcDb2dPolyline
 66
     1
 10
0.0
 20
0.0
 30
0.0
  0
VERTEX
  5
BC
330
BB
100
AcDbEntity
  8
Layer 1
370
     0
100
AcDbVertex
100
AcDb2dVertex
 10
36.58713567869017
 20
-104.7597846361327
 30
0.0
  0
VERTEX
  5
2A2
330
BB
100
AcDbEntity
  8
0
100
AcDbVertex
100
AcDb2dVertex
 10
36.58713567869017
 20
-104.7597846361327
 30
0.0
  0
SEQEND
  5
BD
330
BB
100
AcDbEntity
  8
Layer 1
370
     0
  0
ENDBLK
  5
B7
330
B4
100
AcDbEntity
  8
0
100
AcDbBlockEnd
  0
BLOCK
  5
C0
330
BE
100
AcDbEntity
  8
0
100
AcDbBlockBegin
  2
block 12
 70
     0
 10
0.0
 20
0.0
 30
0.0
  3
block 12
  1

  0
POLYLINE
  5
C2
330
BE
100
AcDbEntity
  8
Layer 1
370
     0
100
AcDb2dPolyline
 66
     1
 10
0.0
 20
0.0
 30
0.0
  0
VERTEX
  5
C3
330
C2
100
AcDbEntity
  8
Layer 1
370
     0
100
AcDbVertex
100
AcDb2dVertex
 10
39.58713567869027
 20
-76.25978463613261
 30
0.0
  0
VERTEX
  5
2A3
330
C2
100
AcDbEntity
  8
0
100
AcDbVertex
100
AcDb2dVertex
 10
39.58713567869027
 20
-76.25978463613261
 30
0.0
  0
SEQEND
  5
C4
330
C2
100
AcDbEntity
  8
Layer 1
370
     0
  0
POLYLINE
  5
C5
330
BE
100
AcDbEntity
  8
Layer 1
370
     0
100
AcDb2dPolyline
 66
     1
 10
0.0
 20
0.0
 30
0.0
  0
VERTEX
  5
C6
330
C5
100
AcDbEntity
  8
Layer 1
370
     0
100
AcDbVertex
100
AcDb2dVertex
 10
36.58713567869017
 20
-76.25978463613261
 30
0.0
  0
VERTEX
  5
2A4
330
C5
100
AcDbEntity
  8
0
100
AcDbVertex
100
AcDb2dVertex
 10
36.58713567869017
 20
-76.25978463613261
 30
0.0
  0
SEQEND
  5
C7
330
C5
100
AcDbEntity
  8
Layer 1
370
     0
  0
ENDBLK
  5
C1
330
BE
100
AcDbEntity
  8
0
100
AcDbBlockEnd
  0
BLOCK
  5
CA
330
C8
100
AcDbEntity
  8
0
100
AcDbBlockBegin
  2
block 13
 70
     0
 10
0.0
 20
0.0
 30
0.0
  3
block 13
  1

  0
POLYLINE
  5
CC
330
C8
100
AcDbEntity
  8
Layer 1
370
     0
100
AcDb2dPolyline
 66
     1
 10
0.0
 20
0.0
 30
0.0
  0
VERTEX
  5
CD
330
CC
100
AcDbEntity
  8
Layer 1
370
     0
100
AcDbVertex
100
AcDb2dVertex
 10
39.58713567869027
 20
-56.25978463613318
 30
0.0
  0
VERTEX
  5
2A5
330
CC
100
AcDbEntity
  8
0
100
AcDbVertex
100
AcDb2dVertex
 10
39.58713567869027
 20
-56.25978463613318
 30
0.0
  0
SEQEND
  5
CE
330
CC
100
AcDbEntity
  8
Layer 1
370
     0
  0
POLYLINE
  5
CF
330
C8
100
AcDbEntity
  8
Layer 1
370
     0
100
AcDb2dPolyline
 66
     1
 10
0.0
 20
0.0
 30
0.0
  0
VERTEX
  5
D0
330
CF
100
AcDbEntity
  8
Layer 1
370
     0
100
AcDbVertex
100
AcDb2dVertex
 10
39.58713567869027
 20
-76.25978463613261
 30
0.0
  0
VERTEX
  5
2A6
330
CF
100
AcDbEntity
  8
0
100
AcDbVertex
100
AcDb2dVertex
 10
39.58713567869027
 20
-76.25978463613261
 30
0.0
  0
SEQEND
  5
D1
330
CF
100
AcDbEntity
  8
Layer 1
370
     0
  0
ENDBLK
  5
CB
330
C8
100
AcDbEntity
  8
0
100
AcDbBlockEnd
  0
BLOCK
  5
D4
330
D2
100
AcDbEntity
  8
0
100
AcDbBlockBegin
  2
block 14
 70
     0
 10
0.0
 20
0.0
 30
0.0
  3
block 14
  1

  0
POLYLINE
  5
D6
330
D2
100
AcDbEntity
  8
Layer 1
370
     0
100
AcDb2dPolyline
 66
     1
 10
0.0
 20
0.0
 30
0.0
  0
VERTEX
  5
D7
330
D6
100
AcDbEntity
  8
Layer 1
370
     0
100
AcDbVertex
100
AcDb2dVertex
 10
36.58713567869017
 20
-56.25978463613318
 30
0.0
  0
VERTEX
  5
2A7
330
D6
100
AcDbEntity
  8
0
100
AcDbVertex
100
AcDb2dVertex
 10
36.58713567869017
 20
-56.25978463613318
 30
0.0
  0
SEQEND
  5
D8
330
D6
100
AcDbEntity
  8
Layer 1
370
     0
  0
POLYLINE
  5
D9
330
D2
100
AcDbEntity
  8
Layer 1
370
     0
100
AcDb2dPolyline
 66
     1
 10
0.0
 20
0.0
 30
0.0
  0
VERTEX
  5
DA
330
D9
100
AcDbEntity
  8
Layer 1
370
     0
100
AcDbVertex
100
AcDb2dVertex
 10
39.58713567869027
 20
-56.25978463613318
 30
0.0
  0
VERTEX
  5
2A8
330
D9
100
AcDbEntity
  8
0
100
AcDbVertex
100
AcDb2dVertex
 10
39.58713567869027
 20
-56.25978463613318
 30
0.0
  0
SEQEND
  5
DB
330
D9
100
AcDbEntity
  8
Layer 1
370
     0
  0
ENDBLK
  5
D5
330
D2
100
AcDbEntity
  8
0
100
AcDbBlockEnd
  0
BLOCK
  5
DE
330
DC
100
AcDbEntity
  8
0
100
AcDbBlockBegin
  2
block 15
 70
     0
 10
0.0
 20
0.0
 30
0.0
  3
block 15
  1

  0
POLYLINE
  5
E0
330
DC
100
AcDbEntity
  8
Layer 1
370
     0
100
AcDb2dPolyline
 66
     1
 10
0.0
 20
0.0
 30
0.0
  0
VERTEX
  5
E1
330
E0
100
AcDbEntity
  8
Layer 1
370
     0
100
AcDbVertex
100
AcDb2dVertex
 10
36.58713567869017
 20
-27.75978463613282
 30
0.0
  0
VERTEX
  5
2A9
330
E0
100
AcDbEntity
  8
0
100
AcDbVertex
100
AcDb2dVertex
 10
36.58713567869017
 20
-27.75978463613282
 30
0.0
  0
SEQEND
  5
E2
330
E0
100
AcDbEntity
  8
Layer 1
370
     0
  0
POLYLINE
  5
E3
330
DC
100
AcDbEntity
  8
Layer 1
370
     0
100
AcDb2dPolyline
 66
     1
 10
0.0
 20
0.0
 30
0.0
  0
VERTEX
  5
E4
330
E3
100
AcDbEntity
  8
Layer 1
370
     0
100
AcDbVertex
100
AcDb2dVertex
 10
36.58713567869017
 20
-56.25978463613318
 30
0.0
  0
VERTEX
  5
2AA
330
E3
100
AcDbEntity
  8
0
100
AcDbVertex
100
AcDb2dVertex
 10
36.58713567869017
 20
-56.25978463613318
 30
0.0
  0
SEQEND
  5
E5
330
E3
100
AcDbEntity
  8
Layer 1
370
     0
  0
ENDBLK
  5
DF
330
DC
100
AcDbEntity
  8
0
100
AcDbBlockEnd
  0
BLOCK
  5
E8
330
E6
100
AcDbEntity
  8
0
100
AcDbBlockBegin
  2
block 16
 70
     0
 10
0.0
 20
0.0
 30
0.0
  3
block 16
  1

  0
POLYLINE
  5
EA
330
E6
100
AcDbEntity
  8
Layer 1
370
     0
100
AcDb2dPolyline
 66
     1
 10
0.0
 20
0.0
 30
0.0
  0
VERTEX
  5
EB
330
EA
100
AcDbEntity
  8
Layer 1
370
     0
100
AcDbVertex
100
AcDb2dVertex
 10
59.58713567869034
 20
-27.75978463613282
 30
0.0
  0
VERTEX
  5
2AB
330
EA
100
AcDbEntity
  8
0
100
AcDbVertex
100
AcDb2dVertex
 10
59.58713567869034
 20
-27.75978463613282
 30
0.0
  0
SEQEND
  5
EC
330
EA
100
AcDbEntity
  8
Layer 1
370
     0
  0
POLYLINE
  5
ED
330
E6
100
AcDbEntity
  8
Layer 1
370
     0
100
AcDb2dPolyline
 66
     1
 10
0.0
 20
0.0
 30
0.0
  0
VERTEX
  5
EE
330
ED
100
AcDbEntity
  8
Layer 1
370
     0
100
AcDbVertex
100
AcDb2dVertex
 10
36.58713567869017
 20
-27.75978463613282
 30
0.0
  0
VERTEX
  5
2AC
330
ED
100
AcDbEntity
  8
0
100
AcDbVertex
100
AcDb2dVertex
 10
36.58713567869017
 20
-27.75978463613282
 30
0.0
  0
SEQEND
  5
EF
330
ED
100
AcDbEntity
  8
Layer 1
370
     0
  0
ENDBLK
  5
E9
330
E6
100
AcDbEntity
  8
0
100
AcDbBlockEnd
  0
BLOCK
  5
F2
330
F0
100
AcDbEntity
  8
0
100
AcDbBlockBegin
  2
block 17
 70
     0
 10
0.0
 20
0.0
 30
0.0
  3
block 17
  1

  0
POLYLINE
  5
F4
330
F0
100
AcDbEntity
  8
Layer 1
370
     0
100
AcDb2dPolyline
 66
     1
 10
0.0
 20
0.0
 30
0.0
  0
VERTEX
  5
F5
330
F4
100
AcDbEntity
  8
Layer 1
370
     0
100
AcDbVertex
100
AcDb2dVertex
 10
59.58713567869034
 20
-30.75978463613292
 30
0.0
  0
VERTEX
  5
2AD
330
F4
100
AcDbEntity
  8
0
100
AcDbVertex
100
AcDb2dVertex
 10
59.58713567869034
 20
-30.75978463613292
 30
0.0
  0
SEQEND
  5
F6
330
F4
100
AcDbEntity
  8
Layer 1
370
     0
  0
POLYLINE
  5
F7
330
F0
100
AcDbEntity
  8
Layer 1
370
     0
100
AcDb2dPolyline
 66
     1
 10
0.0
 20
0.0
 30
0.0
  0
VERTEX
  5
F8
330
F7
100
AcDbEntity
  8
Layer 1
370
     0
100
AcDbVertex
100
AcDb2dVertex
 10
59.58713567869034
 20
-27.75978463613282
 30
0.0
  0
VERTEX
  5
2AE
330
F7
100
AcDbEntity
  8
0
100
AcDbVertex
100
AcDb2dVertex
 10
59.58713567869034
 20
-27.75978463613282
 30
0.0
  0
SEQEND
  5
F9
330
F7
100
AcDbEntity
  8
Layer 1
370
     0
  0
ENDBLK
  5
F3
330
F0
100
AcDbEntity
  8
0
100
AcDbBlockEnd
  0
BLOCK
  5
FC
330
FA
100
AcDbEntity
  8
0
100
AcDbBlockBegin
  2
block 18
 70
     0
 10
0.0
 20
0.0
 30
0.0
  3
block 18
  1

  0
POLYLINE
  5
FE
330
FA
100
AcDbEntity
  8
Layer 1
370
     0
100
AcDb2dPolyline
 66
     1
 10
0.0
 20
0.0
 30
0.0
  0
VERTEX
  5
FF
330
FE
100
AcDbEntity
  8
Layer 1
370
     0
100
AcDbVertex
100
AcDb2dVertex
 10
79.5871356786904
 20
-30.75978463613292
 30
0.0
  0
VERTEX
  5
2AF
330
FE
100
AcDbEntity
  8
0
100
AcDbVertex
100
AcDb2dVertex
 10
79.5871356786904
 20
-30.75978463613292
 30
0.0
  0
SEQEND
  5
100
330
FE
100
AcDbEntity
  8
Layer 1
370
     0
  0
POLYLINE
  5
101
330
FA
100
AcDbEntity
  8
Layer 1
370
     0
100
AcDb2dPolyline
 66
     1
 10
0.0
 20
0.0
 30
0.0
  0
VERTEX
  5
102
330
101
100
AcDbEntity
  8
Layer 1
370
     0
100
AcDbVertex
100
AcDb2dVertex
 10
59.58713567869034
 20
-30.75978463613292
 30
0.0
  0
VERTEX
  5
2B0
330
101
100
AcDbEntity
  8
0
100
AcDbVertex
100
AcDb2dVertex
 10
59.58713567869034
 20
-30.75978463613292
 30
0.0
  0
SEQEND
  5
103
330
101
100
AcDbEntity
  8
Layer 1
370
     0
  0
ENDBLK
  5
FD
330
FA
100
AcDbEntity
  8
0
100
AcDbBlockEnd
  0
BLOCK
  5
106
330
104
100
AcDbEntity
  8
0
100
AcDbBlockBegin
  2
block 19
 70
     0
 10
0.0
 20
0.0
 30
0.0
  3
block 19
  1

  0
POLYLINE
  5
108
330
104
100
AcDbEntity
  8
Layer 1
370
     0
100
AcDb2dPolyline
 66
     1
 10
0.0
 20
0.0
 30
0.0
  0
VERTEX
  5
109
330
108
100
AcDbEntity
  8
Layer 1
370
     0
100
AcDbVertex
100
AcDb2dVertex
 10
105.58713567869
 20
-27.75978463613282
 30
0.0
  0
VERTEX
  5
2B1
330
108
100
AcDbEntity
  8
0
100
AcDbVertex
100
AcDb2dVertex
 10
105.58713567869
 20
-27.75978463613282
 30
0.0
  0
SEQEND
  5
10A
330
108
100
AcDbEntity
  8
Layer 1
370
     0
  0
POLYLINE
  5
10B
330
104
100
AcDbEntity
  8
Layer 1
370
     0
100
AcDb2dPolyline
 66
     1
 10
0.0
 20
0.0
 30
0.0
  0
VERTEX
  5
10C
330
10B
100
AcDbEntity
  8
Layer 1
370
     0
100
AcDbVertex
100
AcDb2dVertex
 10
79.5871356786904
 20
-27.75978463613282
 30
0.0
  0
VERTEX
  5
2B2
330
10B
100
AcDbEntity
  8
0
100
AcDbVertex
100
AcDb2dVertex
 10
79.5871356786904
 20
-27.75978463613282
 30
0.0
  0
SEQEND
  5
10D
330
10B
100
AcDbEntity
  8
Layer 1
370
     0
  0
ENDBLK
  5
107
330
104
100
AcDbEntity
  8
0
100
AcDbBlockEnd
  0
BLOCK
  5
110
330
10E
100
AcDbEntity
  8
0
100
AcDbBlockBegin
  2
block 20
 70
     0
 10
0.0
 20
0.0
 30
0.0
  3
block 20
  1

  0
POLYLINE
  5
112
330
10E
100
AcDbEntity
  8
Layer 1
370
     0
100
AcDb2dPolyline
 66
     1
 10
0.0
 20
0.0
 30
0.0
  0
VERTEX
  5
113
330
112
100
AcDbEntity
  8
Layer 1
370
     0
100
AcDbVertex
100
AcDb2dVertex
 10
105.58713567869
 20
-30.75978463613292
 30
0.0
  0
VERTEX
  5
2B3
330
112
100
AcDbEntity
  8
0
100
AcDbVertex
100
AcDb2dVertex
 10
105.58713567869
 20
-30.75978463613292
 30
0.0
  0
SEQEND
  5
114
330
112
100
AcDbEntity
  8
Layer 1
370
     0
  0
POLYLINE
  5
115
330
10E
100
AcDbEntity
  8
Layer 1
370
     0
100
AcDb2dPolyline
 66
     1
 10
0.0
 20
0.0
 30
0.0
  0
VERTEX
  5
116
330
115
100
AcDbEntity
  8
Layer 1
370
     0
100
AcDbVertex
100
AcDb2dVertex
 10
105.58713567869
 20
-27.75978463613282
 30
0.0
  0
VERTEX
  5
2B4
330
115
100
AcDbEntity
  8
0
100
AcDbVertex
100
AcDb2dVertex
 10
105.58713567869
 20
-27.75978463613282
 30
0.0
  0
SEQEND
  5
117
330
115
100
AcDbEntity
  8
Layer 1
370
     0
  0
ENDBLK
  5
111
330
10E
100
AcDbEntity
  8
0
100
AcDbBlockEnd
  0
BLOCK
  5
11A
330
118
100
AcDbEntity
  8
0
100
AcDbBlockBegin
  2
block 21
 70
     0
 10
0.0
 20
0.0
 30
0.0
  3
block 21
  1

  0
POLYLINE
  5
11C
330
118
100
AcDbEntity
  8
Layer 1
370
     0
100
AcDb2dPolyline
 66
     1
 10
0.0
 20
0.0
 30
0.0
  0
VERTEX
  5
11D
330
11C
100
AcDbEntity
  8
Layer 1
370
     0
100
AcDbVertex
100
AcDb2dVertex
 10
125.5871356786901
 20
-30.75978463613292
 30
0.0
  0
VERTEX
  5
2B5
330
11C
100
AcDbEntity
  8
0
100
AcDbVertex
100
AcDb2dVertex
 10
125.5871356786901
 20
-30.75978463613292
 30
0.0
  0
SEQEND
  5
11E
330
11C
100
AcDbEntity
  8
Layer 1
370
     0
  0
POLYLINE
  5
11F
330
118
100
AcDbEntity
  8
Layer 1
370
     0
100
AcDb2dPolyline
 66
     1
 10
0.0
 20
0.0
 30
0.0
  0
VERTEX
  5
120
330
11F
100
AcDbEntity
  8
Layer 1
370
     0
100
AcDbVertex
100
AcDb2dVertex
 10
105.58713567869
 20
-30.75978463613292
 30
0.0
  0
VERTEX
  5
2B6
330
11F
100
AcDbEntity
  8
0
100
AcDbVertex
100
AcDb2dVertex
 10
105.58713567869
 20
-30.75978463613292
 30
0.0
  0
SEQEND
  5
121
330
11F
100
AcDbEntity
  8
Layer 1
370
     0
  0
ENDBLK
  5
11B
330
118
100
AcDbEntity
  8
0
100
AcDbBlockEnd
  0
BLOCK
  5
124
330
122
100
AcDbEntity
  8
0
100
AcDbBlockBegin
  2
block 22
 70
     0
 10
0.0
 20
0.0
 30
0.0
  3
block 22
  1

  0
POLYLINE
  5
126
330
122
100
AcDbEntity
  8
Layer 1
370
     0
100
AcDb2dPolyline
 66
     1
 10
0.0
 20
0.0
 30
0.0
  0
VERTEX
  5
127
330
126
100
AcDbEntity
  8
Layer 1
370
     0
100
AcDbVertex
100
AcDb2dVertex
 10
125.5871356786901
 20
-27.75978463613282
 30
0.0
  0
VERTEX
  5
2B7
330
126
100
AcDbEntity
  8
0
100
AcDbVertex
100
AcDb2dVertex
 10
125.5871356786901
 20
-27.75978463613282
 30
0.0
  0
SEQEND
  5
128
330
126
100
AcDbEntity
  8
Layer 1
370
     0
  0
POLYLINE
  5
129
330
122
100
AcDbEntity
  8
Layer 1
370
     0
100
AcDb2dPolyline
 66
     1
 10
0.0
 20
0.0
 30
0.0
  0
VERTEX
  5
12A
330
129
100
AcDbEntity
  8
Layer 1
370
     0
100
AcDbVertex
100
AcDb2dVertex
 10
125.5871356786901
 20
-30.75978463613292
 30
0.0
  0
VERTEX
  5
2B8
330
129
100
AcDbEntity
  8
0
100
AcDbVertex
100
AcDb2dVertex
 10
125.5871356786901
 20
-30.75978463613292
 30
0.0
  0
SEQEND
  5
12B
330
129
100
AcDbEntity
  8
Layer 1
370
     0
  0
ENDBLK
  5
125
330
122
100
AcDbEntity
  8
0
100
AcDbBlockEnd
  0
BLOCK
  5
12E
330
12C
100
AcDbEntity
  8
0
100
AcDbBlockBegin
  2
block 23
 70
     0
 10
0.0
 20
0.0
 30
0.0
  3
block 23
  1

  0
POLYLINE
  5
130
330
12C
100
AcDbEntity
  8
Layer 1
370
     0
100
AcDb2dPolyline
 66
     1
 10
0.0
 20
0.0
 30
0.0
  0
VERTEX
  5
131
330
130
100
AcDbEntity
  8
Layer 1
370
     0
100
AcDbVertex
100
AcDb2dVertex
 10
148.5871356786903
 20
-27.75978463613282
 30
0.0
  0
VERTEX
  5
2B9
330
130
100
AcDbEntity
  8
0
100
AcDbVertex
100
AcDb2dVertex
 10
148.5871356786903
 20
-27.75978463613282
 30
0.0
  0
SEQEND
  5
132
330
130
100
AcDbEntity
  8
Layer 1
370
     0
  0
POLYLINE
  5
133
330
12C
100
AcDbEntity
  8
Layer 1
370
     0
100
AcDb2dPolyline
 66
     1
 10
0.0
 20
0.0
 30
0.0
  0
VERTEX
  5
134
330
133
100
AcDbEntity
  8
Layer 1
370
     0
100
AcDbVertex
100
AcDb2dVertex
 10
125.5871356786901
 20
-27.75978463613282
 30
0.0
  0
VERTEX
  5
2BA
330
133
100
AcDbEntity
  8
0
100
AcDbVertex
100
AcDb2dVertex
 10
125.5871356786901
 20
-27.75978463613282
 30
0.0
  0
SEQEND
  5
135
330
133
100
AcDbEntity
  8
Layer 1
370
     0
  0
ENDBLK
  5
12F
330
12C
100
AcDbEntity
  8
0
100
AcDbBlockEnd
  0
BLOCK
  5
138
330
136
100
AcDbEntity
  8
0
100
AcDbBlockBegin
  2
block 24
 70
     0
 10
0.0
 20
0.0
 30
0.0
  3
block 24
  1

  0
POLYLINE
  5
13A
330
136
100
AcDbEntity
  8
Layer 1
370
     0
100
AcDb2dPolyline
 66
     1
 10
0.0
 20
0.0
 30
0.0
  0
VERTEX
  5
13B
330
13A
100
AcDbEntity
  8
Layer 1
370
     0
100
AcDbVertex
100
AcDb2dVertex
 10
148.5871356786903
 20
-56.25978463613318
 30
0.0
  0
VERTEX
  5
2BB
330
13A
100
AcDbEntity
  8
0
100
AcDbVertex
100
AcDb2dVertex
 10
148.5871356786903
 20
-56.25978463613318
 30
0.0
  0
SEQEND
  5
13C
330
13A
100
AcDbEntity
  8
Layer 1
370
     0
  0
POLYLINE
  5
13D
330
136
100
AcDbEntity
  8
Layer 1
370
     0
100
AcDb2dPolyline
 66
     1
 10
0.0
 20
0.0
 30
0.0
  0
VERTEX
  5
13E
330
13D
100
AcDbEntity
  8
Layer 1
370
     0
100
AcDbVertex
100
AcDb2dVertex
 10
148.5871356786903
 20
-27.75978463613282
 30
0.0
  0
VERTEX
  5
2BC
330
13D
100
AcDbEntity
  8
0
100
AcDbVertex
100
AcDb2dVertex
 10
148.5871356786903
 20
-27.75978463613282
 30
0.0
  0
SEQEND
  5
13F
330
13D
100
AcDbEntity
  8
Layer 1
370
     0
  0
ENDBLK
  5
139
330
136
100
AcDbEntity
  8
0
100
AcDbBlockEnd
  0
BLOCK
  5
142
330
140
100
AcDbEntity
  8
0
100
AcDbBlockBegin
  2
block 25
 70
     0
 10
0.0
 20
0.0
 30
0.0
  3
block 25
  1

  0
POLYLINE
  5
144
330
140
100
AcDbEntity
  8
Layer 1
370
     0
100
AcDb2dPolyline
 66
     1
 10
0.0
 20
0.0
 30
0.0
  0
VERTEX
  5
145
330
144
100
AcDbEntity
  8
Layer 1
370
     0
100
AcDbVertex
100
AcDb2dVertex
 10
145.5871356786902
 20
-56.25978463613318
 30
0.0
  0
VERTEX
  5
2BD
330
144
100
AcDbEntity
  8
0
100
AcDbVertex
100
AcDb2dVertex
 10
145.5871356786902
 20
-56.25978463613318
 30
0.0
  0
SEQEND
  5
146
330
144
100
AcDbEntity
  8
Layer 1
370
     0
  0
POLYLINE
  5
147
330
140
100
AcDbEntity
  8
Layer 1
370
     0
100
AcDb2dPolyline
 66
     1
 10
0.0
 20
0.0
 30
0.0
  0
VERTEX
  5
148
330
147
100
AcDbEntity
  8
Layer 1
370
     0
100
AcDbVertex
100
AcDb2dVertex
 10
148.5871356786903
 20
-56.25978463613318
 30
0.0
  0
VERTEX
  5
2BE
330
147
100
AcDbEntity
  8
0
100
AcDbVertex
100
AcDb2dVertex
 10
148.5871356786903
 20
-56.25978463613318
 30
0.0
  0
SEQEND
  5
149
330
147
100
AcDbEntity
  8
Layer 1
370
     0
  0
ENDBLK
  5
143
330
140
100
AcDbEntity
  8
0
100
AcDbBlockEnd
  0
BLOCK
  5
14C
330
14A
100
AcDbEntity
  8
0
100
AcDbBlockBegin
  2
block 26
 70
     0
 10
0.0
 20
0.0
 30
0.0
  3
block 26
  1

  0
POLYLINE
  5
14E
330
14A
100
AcDbEntity
  8
Layer 1
370
     0
100
AcDb2dPolyline
 66
     1
 10
0.0
 20
0.0
 30
0.0
  0
VERTEX
  5
14F
330
14E
100
AcDbEntity
  8
Layer 1
370
     0
100
AcDbVertex
100
AcDb2dVertex
 10
145.5871356786902
 20
-76.25978463613261
 30
0.0
  0
VERTEX
  5
2BF
330
14E
100
AcDbEntity
  8
0
100
AcDbVertex
100
AcDb2dVertex
 10
145.5871356786902
 20
-76.25978463613261
 30
0.0
  0
SEQEND
  5
150
330
14E
100
AcDbEntity
  8
Layer 1
370
     0
  0
POLYLINE
  5
151
330
14A
100
AcDbEntity
  8
Layer 1
370
     0
100
AcDb2dPolyline
 66
     1
 10
0.0
 20
0.0
 30
0.0
  0
VERTEX
  5
152
330
151
100
AcDbEntity
  8
Layer 1
370
     0
100
AcDbVertex
100
AcDb2dVertex
 10
145.5871356786902
 20
-56.25978463613318
 30
0.0
  0
VERTEX
  5
2C0
330
151
100
AcDbEntity
  8
0
100
AcDbVertex
100
AcDb2dVertex
 10
145.5871356786902
 20
-56.25978463613318
 30
0.0
  0
SEQEND
  5
153
330
151
100
AcDbEntity
  8
Layer 1
370
     0
  0
ENDBLK
  5
14D
330
14A
100
AcDbEntity
  8
0
100
AcDbBlockEnd
  0
BLOCK
  5
156
330
154
100
AcDbEntity
  8
0
100
AcDbBlockBegin
  2
block 27
 70
     0
 10
0.0
 20
0.0
 30
0.0
  3
block 27
  1

  0
POLYLINE
  5
158
330
154
100
AcDbEntity
  8
Layer 1
370
     0
100
AcDb2dPolyline
 66
     1
 10
0.0
 20
0.0
 30
0.0
  0
VERTEX
  5
159
330
158
100
AcDbEntity
  8
Layer 1
370
     0
100
AcDbVertex
100
AcDb2dVertex
 10
148.5871356786903
 20
-76.25978463613261
 30
0.0
  0
VERTEX
  5
2C1
330
158
100
AcDbEntity
  8
0
100
AcDbVertex
100
AcDb2dVertex
 10
148.5871356786903
 20
-76.25978463613261
 30
0.0
  0
SEQEND
  5
15A
330
158
100
AcDbEntity
  8
Layer 1
370
     0
  0
POLYLINE
  5
15B
330
154
100
AcDbEntity
  8
Layer 1
370
     0
100
AcDb2dPolyline
 66
     1
 10
0.0
 20
0.0
 30
0.0
  0
VERTEX
  5
15C
330
15B
100
AcDbEntity
  8
Layer 1
370
     0
100
AcDbVertex
100
AcDb2dVertex
 10
145.5871356786902
 20
-76.25978463613261
 30
0.0
  0
VERTEX
  5
2C2
330
15B
100
AcDbEntity
  8
0
100
AcDbVertex
100
AcDb2dVertex
 10
145.5871356786902
 20
-76.25978463613261
 30
0.0
  0
SEQEND
  5
15D
330
15B
100
AcDbEntity
  8
Layer 1
370
     0
  0
ENDBLK
  5
157
330
154
100
AcDbEntity
  8
0
100
AcDbBlockEnd
  0
BLOCK
  5
160
330
15E
100
AcDbEntity
  8
0
100
AcDbBlockBegin
  2
block 28
 70
     0
 10
0.0
 20
0.0
 30
0.0
  3
block 28
  1

  0
POLYLINE
  5
162
330
15E
100
AcDbEntity
  8
Layer 1
370
     0
100
AcDb2dPolyline
 66
     1
 10
0.0
 20
0.0
 30
0.0
  0
VERTEX
  5
163
330
162
100
AcDbEntity
  8
Layer 1
370
     0
100
AcDbVertex
100
AcDb2dVertex
 10
148.5871356786903
 20
-104.7597846361327
 30
0.0
  0
VERTEX
  5
2C3
330
162
100
AcDbEntity
  8
0
100
AcDbVertex
100
AcDb2dVertex
 10
148.5871356786903
 20
-104.7597846361327
 30
0.0
  0
SEQEND
  5
164
330
162
100
AcDbEntity
  8
Layer 1
370
     0
  0
POLYLINE
  5
165
330
15E
100
AcDbEntity
  8
Layer 1
370
     0
100
AcDb2dPolyline
 66
     1
 10
0.0
 20
0.0
 30
0.0
  0
VERTEX
  5
166
330
165
100
AcDbEntity
  8
Layer 1
370
     0
100
AcDbVertex
100
AcDb2dVertex
 10
148.5871356786903
 20
-76.25978463613261
 30
0.0
  0
VERTEX
  5
2C4
330
165
100
AcDbEntity
  8
0
100
AcDbVertex
100
AcDb2dVertex
 10
148.5871356786903
 20
-76.25978463613261
 30
0.0
  0
SEQEND
  5
167
330
165
100
AcDbEntity
  8
Layer 1
370
     0
  0
ENDBLK
  5
161
330
15E
100
AcDbEntity
  8
0
100
AcDbBlockEnd
  0
BLOCK
  5
16A
330
168
100
AcDbEntity
  8
0
100
AcDbBlockBegin
  2
block 29
 70
     0
 10
0.0
 20
0.0
 30
0.0
  3
block 29
  1

  0
POLYLINE
  5
16C
330
168
100
AcDbEntity
  8
Layer 1
370
     0
100
AcDb2dPolyline
 66
     1
 10
0.0
 20
0.0
 30
0.0
  0
VERTEX
  5
16D
330
16C
100
AcDbEntity
  8
Layer 1
370
     0
100
AcDbVertex
100
AcDb2dVertex
 10
204.7390621764504
 20
-32.66874520963222
 30
0.0
  0
VERTEX
  5
16E
330
16C
100
AcDbEntity
  8
Layer 1
370
     0
100
AcDbVertex
100
AcDb2dVertex
 10
233.2390621764507
 20
-32.66874520963222
 30
0.0
  0
VERTEX
  5
16F
330
16C
100
AcDbEntity
  8
Layer 1
370
     0
100
AcDbVertex
100
AcDb2dVertex
 10
233.2390621764507
 20
-43.66874520963228
 30
0.0
  0
VERTEX
  5
170
330
16C
100
AcDbEntity
  8
Layer 1
370
     0
100
AcDbVertex
100
AcDb2dVertex
 10
230.23906217645
 20
-43.66874520963228
 30
0.0
  0
VERTEX
  5
171
330
16C
100
AcDbEntity
  8
Layer 1
370
     0
100
AcDbVertex
100
AcDb2dVertex
 10
230.23906217645
 20
-57.66874520963214
 30
0.0
  0
VERTEX
  5
172
330
16C
100
AcDbEntity
  8
Layer 1
370
     0
100
AcDbVertex
100
AcDb2dVertex
 10
233.2390621764507
 20
-57.66874520963214
 30
0.0
  0
VERTEX
  5
173
330
16C
100
AcDbEntity
  8
Layer 1
370
     0
100
AcDbVertex
100
AcDb2dVertex
 10
233.2390621764507
 20
-71.66874520963167
 30
0.0
  0
VERTEX
  5
174
330
16C
100
AcDbEntity
  8
Layer 1
370
     0
100
AcDbVertex
100
AcDb2dVertex
 10
230.23906217645
 20
-71.66874520963167
 30
0.0
  0
VERTEX
  5
175
330
16C
100
AcDbEntity
  8
Layer 1
370
     0
100
AcDbVertex
100
AcDb2dVertex
 10
230.23906217645
 20
-85.66874520963216
 30
0.0
  0
VERTEX
  5
176
330
16C
100
AcDbEntity
  8
Layer 1
370
     0
100
AcDbVertex
100
AcDb2dVertex
 10
233.2390621764507
 20
-85.66874520963216
 30
0.0
  0
VERTEX
  5
177
330
16C
100
AcDbEntity
  8
Layer 1
370
     0
100
AcDbVertex
100
AcDb2dVertex
 10
233.2390621764507
 20
-99.66874520963233
 30
0.0
  0
VERTEX
  5
178
330
16C
100
AcDbEntity
  8
Layer 1
370
     0
100
AcDbVertex
100
AcDb2dVertex
 10
204.7390621764504
 20
-99.66874520963233
 30
0.0
  0
VERTEX
  5
179
330
16C
100
AcDbEntity
  8
Layer 1
370
     0
100
AcDbVertex
100
AcDb2dVertex
 10
204.7390621764504
 20
-102.6687452096321
 30
0.0
  0
VERTEX
  5
17A
330
16C
100
AcDbEntity
  8
Layer 1
370
     0
100
AcDbVertex
100
AcDb2dVertex
 10
184.7390621764503
 20
-102.6687452096321
 30
0.0
  0
VERTEX
  5
17B
330
16C
100
AcDbEntity
  8
Layer 1
370
     0
100
AcDbVertex
100
AcDb2dVertex
 10
184.7390621764503
 20
-99.66874520963233
 30
0.0
  0
VERTEX
  5
17C
330
16C
100
AcDbEntity
  8
Layer 1
370
     0
100
AcDbVertex
100
AcDb2dVertex
 10
156.2390621764506
 20
-99.66874520963233
 30
0.0
  0
VERTEX
  5
17D
330
16C
100
AcDbEntity
  8
Layer 1
370
     0
100
AcDbVertex
100
AcDb2dVertex
 10
156.2390621764506
 20
-85.66874520963216
 30
0.0
  0
VERTEX
  5
17E
330
16C
100
AcDbEntity
  8
Layer 1
370
     0
100
AcDbVertex
100
AcDb2dVertex
 10
159.2390621764504
 20
-85.66874520963216
 30
0.0
  0
VERTEX
  5
17F
330
16C
100
AcDbEntity
  8
Layer 1
370
     0
100
AcDbVertex
100
AcDb2dVertex
 10
159.2390621764504
 20
-71.66874520963167
 30
0.0
  0
VERTEX
  5
180
330
16C
100
AcDbEntity
  8
Layer 1
370
     0
100
AcDbVertex
100
AcDb2dVertex
 10
156.2390621764506
 20
-71.66874520963167
 30
0.0
  0
VERTEX
  5
181
330
16C
100
AcDbEntity
  8
Layer 1
370
     0
100
AcDbVertex
100
AcDb2dVertex
 10
156.2390621764506
 20
-57.66874520963214
 30
0.0
  0
VERTEX
  5
182
330
16C
100
AcDbEntity
  8
Layer 1
370
     0
100
AcDbVertex
100
AcDb2dVertex
 10
159.2390621764504
 20
-57.66874520963214
 30
0.0
  0
VERTEX
  5
183
330
16C
100
AcDbEntity
  8
Layer 1
370
     0
100
AcDbVertex
100
AcDb2dVertex
 10
159.2390621764504
 20
-43.66874520963228
 30
0.0
  0
VERTEX
  5
184
330
16C
100
AcDbEntity
  8
Layer 1
370
     0
100
AcDbVertex
100
AcDb2dVertex
 10
156.2390621764506
 20
-43.66874520963228
 30
0.0
  0
VERTEX
  5
185
330
16C
100
AcDbEntity
  8
Layer 1
370
     0
100
AcDbVertex
100
AcDb2dVertex
 10
156.2390621764506
 20
-32.66874520963222
 30
0.0
  0
VERTEX
  5
186
330
16C
100
AcDbEntity
  8
Layer 1
370
     0
100
AcDbVertex
100
AcDb2dVertex
 10
184.7390621764503
 20
-32.66874520963222
 30
0.0
  0
VERTEX
  5
187
330
16C
100
AcDbEntity
  8
Layer 1
370
     0
100
AcDbVertex
100
AcDb2dVertex
 10
184.7390621764503
 20
-29.66874520963211
 30
0.0
  0
VERTEX
  5
188
330
16C
100
AcDbEntity
  8
Layer 1
370
     0
100
AcDbVertex
100
AcDb2dVertex
 10
204.7390621764504
 20
-29.66874520963211
 30
0.0
  0
VERTEX
  5
189
330
16C
100
AcDbEntity
  8
Layer 1
370
     0
100
AcDbVertex
100
AcDb2dVertex
 10
204.7390621764504
 20
-32.66874520963222
 30
0.0
  0
SEQEND
  5
18A
330
16C
100
AcDbEntity
  8
Layer 1
370
     0
  0
ENDBLK
  5
16B
330
168
100
AcDbEntity
  8
0
100
AcDbBlockEnd
  0
BLOCK
  5
18D
330
18B
100
AcDbEntity
  8
0
100
AcDbBlockBegin
  2
block 30
 70
     0
 10
0.0
 20
0.0
 30
0.0
  3
block 30
  1

  0
POLYLINE
  5
18F
330
18B
100
AcDbEntity
  8
Layer 1
370
     0
100
AcDb2dPolyline
 66
     1
 10
0.0
 20
0.0
 30
0.0
  0
VERTEX
  5
190
330
18F
100
AcDbEntity
  8
Layer 1
370
     0
100
AcDbVertex
100
AcDb2dVertex
 10
36.47884715225158
 20
-112.3214333708863
 30
0.0
  0
VERTEX
  5
191
330
18F
100
AcDbEntity
  8
Layer 1
370
     0
100
AcDbVertex
100
AcDb2dVertex
 10
56.47884715225165
 20
-112.3214333708863
 30
0.0
  0
VERTEX
  5
192
330
18F
100
AcDbEntity
  8
Layer 1
370
     0
100
AcDbVertex
100
AcDb2dVertex
 10
56.47884715225165
 20
-109.3214333708869
 30
0.0
  0
VERTEX
  5
193
330
18F
100
AcDbEntity
  8
Layer 1
370
     0
100
AcDbVertex
100
AcDb2dVertex
 10
76.47884715225172
 20
-109.3214333708869
 30
0.0
  0
VERTEX
  5
194
330
18F
100
AcDbEntity
  8
Layer 1
370
     0
100
AcDbVertex
100
AcDb2dVertex
 10
76.47884715225172
 20
-112.3214333708863
 30
0.0
  0
VERTEX
  5
195
330
18F
100
AcDbEntity
  8
Layer 1
370
     0
100
AcDbVertex
100
AcDb2dVertex
 10
102.4788471522513
 20
-112.3214333708863
 30
0.0
  0
VERTEX
  5
196
330
18F
100
AcDbEntity
  8
Layer 1
370
     0
100
AcDbVertex
100
AcDb2dVertex
 10
102.4788471522513
 20
-109.3214333708869
 30
0.0
  0
VERTEX
  5
197
330
18F
100
AcDbEntity
  8
Layer 1
370
     0
100
AcDbVertex
100
AcDb2dVertex
 10
122.4788471522514
 20
-109.3214333708869
 30
0.0
  0
VERTEX
  5
198
330
18F
100
AcDbEntity
  8
Layer 1
370
     0
100
AcDbVertex
100
AcDb2dVertex
 10
122.4788471522514
 20
-112.3214333708863
 30
0.0
  0
VERTEX
  5
199
330
18F
100
AcDbEntity
  8
Layer 1
370
     0
100
AcDbVertex
100
AcDb2dVertex
 10
142.4788471522515
 20
-112.3214333708863
 30
0.0
  0
VERTEX
  5
19A
330
18F
100
AcDbEntity
  8
Layer 1
370
     0
100
AcDbVertex
100
AcDb2dVertex
 10
142.4788471522515
 20
-123.321433370887
 30
0.0
  0
VERTEX
  5
19B
330
18F
100
AcDbEntity
  8
Layer 1
370
     0
100
AcDbVertex
100
AcDb2dVertex
 10
145.4788471522516
 20
-123.321433370887
 30
0.0
  0
VERTEX
  5
19C
330
18F
100
AcDbEntity
  8
Layer 1
370
     0
100
AcDbVertex
100
AcDb2dVertex
 10
145.4788471522516
 20
-137.3214333708866
 30
0.0
  0
VERTEX
  5
19D
330
18F
100
AcDbEntity
  8
Layer 1
370
     0
100
AcDbVertex
100
AcDb2dVertex
 10
142.4788471522515
 20
-137.3214333708866
 30
0.0
  0
VERTEX
  5
19E
330
18F
100
AcDbEntity
  8
Layer 1
370
     0
100
AcDbVertex
100
AcDb2dVertex
 10
142.4788471522515
 20
-151.3214333708864
 30
0.0
  0
VERTEX
  5
19F
330
18F
100
AcDbEntity
  8
Layer 1
370
     0
100
AcDbVertex
100
AcDb2dVertex
 10
145.4788471522516
 20
-151.3214333708864
 30
0.0
  0
VERTEX
  5
1A0
330
18F
100
AcDbEntity
  8
Layer 1
370
     0
100
AcDbVertex
100
AcDb2dVertex
 10
145.4788471522516
 20
-165.3214333708863
 30
0.0
  0
VERTEX
  5
1A1
330
18F
100
AcDbEntity
  8
Layer 1
370
     0
100
AcDbVertex
100
AcDb2dVertex
 10
142.4788471522515
 20
-165.3214333708863
 30
0.0
  0
VERTEX
  5
1A2
330
18F
100
AcDbEntity
  8
Layer 1
370
     0
100
AcDbVertex
100
AcDb2dVertex
 10
142.4788471522515
 20
-179.3214333708868
 30
0.0
  0
VERTEX
  5
1A3
330
18F
100
AcDbEntity
  8
Layer 1
370
     0
100
AcDbVertex
100
AcDb2dVertex
 10
122.4788471522514
 20
-179.3214333708868
 30
0.0
  0
VERTEX
  5
1A4
330
18F
100
AcDbEntity
  8
Layer 1
370
     0
100
AcDbVertex
100
AcDb2dVertex
 10
122.4788471522514
 20
-182.3214333708862
 30
0.0
  0
VERTEX
  5
1A5
330
18F
100
AcDbEntity
  8
Layer 1
370
     0
100
AcDbVertex
100
AcDb2dVertex
 10
102.4788471522513
 20
-182.3214333708869
 30
0.0
  0
VERTEX
  5
1A6
330
18F
100
AcDbEntity
  8
Layer 1
370
     0
100
AcDbVertex
100
AcDb2dVertex
 10
102.4788471522513
 20
-179.3214333708868
 30
0.0
  0
VERTEX
  5
1A7
330
18F
100
AcDbEntity
  8
Layer 1
370
     0
100
AcDbVertex
100
AcDb2dVertex
 10
76.47884715225106
 20
-179.3214333708868
 30
0.0
  0
VERTEX
  5
1A8
330
18F
100
AcDbEntity
  8
Layer 1
370
     0
100
AcDbVertex
100
AcDb2dVertex
 10
76.47884715225172
 20
-182.3214333708862
 30
0.0
  0
VERTEX
  5
1A9
330
18F
100
AcDbEntity
  8
Layer 1
370
     0
100
AcDbVertex
100
AcDb2dVertex
 10
56.47884715225165
 20
-182.3214333708869
 30
0.0
  0
VERTEX
  5
1AA
330
18F
100
AcDbEntity
  8
Layer 1
370
     0
100
AcDbVertex
100
AcDb2dVertex
 10
56.47884715225165
 20
-179.3214333708868
 30
0.0
  0
VERTEX
  5
1AB
330
18F
100
AcDbEntity
  8
Layer 1
370
     0
100
AcDbVertex
100
AcDb2dVertex
 10
36.47884715225158
 20
-179.3214333708868
 30
0.0
  0
VERTEX
  5
1AC
330
18F
100
AcDbEntity
  8
Layer 1
370
     0
100
AcDbVertex
100
AcDb2dVertex
 10
36.47884715225158
 20
-165.3214333708863
 30
0.0
  0
VERTEX
  5
1AD
330
18F
100
AcDbEntity
  8
Layer 1
370
     0
100
AcDbVertex
100
AcDb2dVertex
 10
33.47884715225148
 20
-165.3214333708863
 30
0.0
  0
VERTEX
  5
1AE
330
18F
100
AcDbEntity
  8
Layer 1
370
     0
100
AcDbVertex
100
AcDb2dVertex
 10
33.47884715225148
 20
-151.3214333708864
 30
0.0
  0
VERTEX
  5
1AF
330
18F
100
AcDbEntity
  8
Layer 1
370
     0
100
AcDbVertex
100
AcDb2dVertex
 10
36.47884715225158
 20
-151.3214333708864
 30
0.0
  0
VERTEX
  5
1B0
330
18F
100
AcDbEntity
  8
Layer 1
370
     0
100
AcDbVertex
100
AcDb2dVertex
 10
36.47884715225158
 20
-137.3214333708866
 30
0.0
  0
VERTEX
  5
1B1
330
18F
100
AcDbEntity
  8
Layer 1
370
     0
100
AcDbVertex
100
AcDb2dVertex
 10
33.47884715225148
 20
-137.3214333708866
 30
0.0
  0
VERTEX
  5
1B2
330
18F
100
AcDbEntity
  8
Layer 1
370
     0
100
AcDbVertex
100
AcDb2dVertex
 10
33.47884715225148
 20
-123.321433370887
 30
0.0
  0
VERTEX
  5
1B3
330
18F
100
AcDbEntity
  8
Layer 1
370
     0
100
AcDbVertex
100
AcDb2dVertex
 10
36.47884715225158
 20
-123.321433370887
 30
0.0
  0
VERTEX
  5
1B4
330
18F
100
AcDbEntity
  8
Layer 1
370
     0
100
AcDbVertex
100
AcDb2dVertex
 10
36.47884715225158
 20
-112.3214333708863
 30
0.0
  0
SEQEND
  5
1B5
330
18F
100
AcDbEntity
  8
Layer 1
370
     0
  0
ENDBLK
  5
18E
330
18B
100
AcDbEntity
  8
0
100
AcDbBlockEnd
  0
BLOCK
  5
1B8
330
1B6
100
AcDbEntity
  8
0
100
AcDbBlockBegin
  2
block 31
 70
     0
 10
0.0
 20
0.0
 30
0.0
  3
block 31
  1

  0
POLYLINE
  5
1BA
330
1B6
100
AcDbEntity
  8
Layer 1
370
     0
100
AcDb2dPolyline
 66
     1
 10
0.0
 20
0.0
 30
0.0
  0
VERTEX
  5
1BB
330
1BA
100
AcDbEntity
  8
Layer 1
370
     0
100
AcDbVertex
100
AcDb2dVertex
 10
201.8746521291587
 20
-135.804852178087
 30
0.0
  0
VERTEX
  5
1BC
330
1BA
100
AcDbEntity
  8
Layer 1
370
     0
100
AcDbVertex
100
AcDb2dVertex
 10
201.8746521291587
 20
-137.8048521780871
 30
0.0
  0
VERTEX
  5
1BD
330
1BA
100
AcDbEntity
  8
Layer 1
370
     0
100
AcDbVertex
100
AcDb2dVertex
 10
203.8746521291588
 20
-137.8048521780871
 30
0.0
  0
VERTEX
  5
1BE
330
1BA
100
AcDbEntity
  8
Layer 1
370
     0
100
AcDbVertex
100
AcDb2dVertex
 10
203.8746521291588
 20
-135.804852178087
 30
0.0
  0
VERTEX
  5
1BF
330
1BA
100
AcDbEntity
  8
Layer 1
370
     0
100
AcDbVertex
100
AcDb2dVertex
 10
201.8746521291587
 20
-135.804852178087
 30
0.0
  0
SEQEND
  5
1C0
330
1BA
100
AcDbEntity
  8
Layer 1
370
     0
  0
ENDBLK
  5
1B9
330
1B6
100
AcDbEntity
  8
0
100
AcDbBlockEnd
  0
BLOCK
  5
1C3
330
1C1
100
AcDbEntity
  8
0
100
AcDbBlockBegin
  2
block 32
 70
     0
 10
0.0
 20
0.0
 30
0.0
  3
block 32
  1

  0
POLYLINE
  5
1C5
330
1C1
100
AcDbEntity
  8
Layer 1
370
     0
100
AcDb2dPolyline
 66
     1
 10
0.0
 20
0.0
 30
0.0
  0
VERTEX
  5
1C6
330
1C5
100
AcDbEntity
  8
Layer 1
370
     0
100
AcDbVertex
100
AcDb2dVertex
 10
208.8746521291583
 20
-135.7087701416852
 30
0.0
  0
VERTEX
  5
1C7
330
1C5
100
AcDbEntity
  8
Layer 1
370
     0
100
AcDbVertex
100
AcDb2dVertex
 10
208.8746521291583
 20
-137.7087701416856
 30
0.0
  0
VERTEX
  5
1C8
330
1C5
100
AcDbEntity
  8
Layer 1
370
     0
100
AcDbVertex
100
AcDb2dVertex
 10
210.8746521291584
 20
-137.7087701416856
 30
0.0
  0
VERTEX
  5
1C9
330
1C5
100
AcDbEntity
  8
Layer 1
370
     0
100
AcDbVertex
100
AcDb2dVertex
 10
210.8746521291584
 20
-135.7087701416859
 30
0.0
  0
VERTEX
  5
1CA
330
1C5
100
AcDbEntity
  8
Layer 1
370
     0
100
AcDbVertex
100
AcDb2dVertex
 10
208.8746521291583
 20
-135.7087701416852
 30
0.0
  0
SEQEND
  5
1CB
330
1C5
100
AcDbEntity
  8
Layer 1
370
     0
  0
ENDBLK
  5
1C4
330
1C1
100
AcDbEntity
  8
0
100
AcDbBlockEnd
  0
BLOCK
  5
1CE
330
1CC
100
AcDbEntity
  8
0
100
AcDbBlockBegin
  2
block 33
 70
     0
 10
0.0
 20
0.0
 30
0.0
  3
block 33
  1

  0
SPLINE
  5
1D0
330
1CC
100
AcDbEntity
  8
Layer 1
370
     0
100
AcDbSpline
210
0.0
220
0.0
230
1.0
 70
    11
 71
     3
 72
    20
 73
    16
 74
     0
 42
0.0000000001
 43
0.0000000001
 12
1.0
 22
0.0
 32
0.0
 13
1.0
 23
0.0
 33
0.0
 40
0.0
 40
0.0
 40
0.0
 40
0.0
 40
1.0
 40
1.0
 40
1.0
 40
2.0
 40
2.0
 40
2.0
 40
3.0
 40
3.0
 40
3.0
 40
4.0
 40
4.0
 40
4.0
 40
5.0
 40
5.0
 40
5.0
 40
5.0
 10
201.7562664745215
 20
-167.6221212550517
 30
0.0
 10
201.7562664745215
 20
-164.8606975058975
 30
0.0
 10
203.9948427253669
 20
-162.6221212550515
 30
0.0
 10
206.756266474521
 20
-162.6221212550515
 30
0.0
 10
209.5176902236751
 20
-162.6221212550515
 30
0.0
 10
211.7562664745218
 20
-164.8606975058975
 30
0.0
 10
211.7562664745218
 20
-167.6221212550517
 30
0.0
 10
211.7562664745218
 20
-170.3835450042052
 30
0.0
 10
209.5176902236751
 20
-172.6221212550512
 30
0.0
 10
206.756266474521
 20
-172.6221212550512
 30
0.0
 10
203.9948427253669
 20
-172.6221212550512
 30
0.0
 10
201.7562664745215
 20
-170.3835450042052
 30
0.0
 10
201.7562664745215
 20
-167.6221212550517
 30
0.0
 10
201.7562664745215
 20
-167.6221212550517
 30
0.0
 10
201.7562664745215
 20
-167.6221212550517
 30
0.0
 10
201.7562664745215
 20
-167.6221212550517
 30
0.0
  0
ENDBLK
  5
1CF
330
1CC
100
AcDbEntity
  8
0
100
AcDbBlockEnd
  0
BLOCK
  5
1D3
330
1D1
100
AcDbEntity
  8
0
100
AcDbBlockBegin
  2
block 34
 70
     0
 10
0.0
 20
0.0
 30
0.0
  3
block 34
  1

  0
POLYLINE
  5
1D5
330
1D1
100
AcDbEntity
  8
Layer 1
370
     0
100
AcDb2dPolyline
 66
     1
 10
0.0
 20
0.0
 30
0.0
  0
VERTEX
  5
1D6
330
1D5
100
AcDbEntity
  8
Layer 1
370
     0
100
AcDbVertex
100
AcDb2dVertex
 10
153.756266474521
 20
-112.6924011036042
 30
0.0
  0
VERTEX
  5
1D7
330
1D5
100
AcDbEntity
  8
Layer 1
370
     0
100
AcDbVertex
100
AcDb2dVertex
 10
173.7562664745211
 20
-112.6924011036042
 30
0.0
  0
VERTEX
  5
1D8
330
1D5
100
AcDbEntity
  8
Layer 1
370
     0
100
AcDbVertex
100
AcDb2dVertex
 10
173.7562664745211
 20
-109.6924011036048
 30
0.0
  0
VERTEX
  5
1D9
330
1D5
100
AcDbEntity
  8
Layer 1
370
     0
100
AcDbVertex
100
AcDb2dVertex
 10
193.7562664745215
 20
-109.6924011036048
 30
0.0
  0
VERTEX
  5
1DA
330
1D5
100
AcDbEntity
  8
Layer 1
370
     0
100
AcDbVertex
100
AcDb2dVertex
 10
193.7562664745215
 20
-112.6924011036042
 30
0.0
  0
VERTEX
  5
1DB
330
1D5
100
AcDbEntity
  8
Layer 1
370
     0
100
AcDbVertex
100
AcDb2dVertex
 10
219.7562664745211
 20
-112.6924011036042
 30
0.0
  0
VERTEX
  5
1DC
330
1D5
100
AcDbEntity
  8
Layer 1
370
     0
100
AcDbVertex
100
AcDb2dVertex
 10
219.7562664745211
 20
-109.6924011036048
 30
0.0
  0
VERTEX
  5
1DD
330
1D5
100
AcDbEntity
  8
Layer 1
370
     0
100
AcDbVertex
100
AcDb2dVertex
 10
239.7562664745212
 20
-109.6924011036048
 30
0.0
  0
VERTEX
  5
1DE
330
1D5
100
AcDbEntity
  8
Layer 1
370
     0
100
AcDbVertex
100
AcDb2dVertex
 10
239.7562664745212
 20
-112.6924011036042
 30
0.0
  0
VERTEX
  5
1DF
330
1D5
100
AcDbEntity
  8
Layer 1
370
     0
100
AcDbVertex
100
AcDb2dVertex
 10
259.7562664745206
 20
-112.6924011036042
 30
0.0
  0
VERTEX
  5
1E0
330
1D5
100
AcDbEntity
  8
Layer 1
370
     0
100
AcDbVertex
100
AcDb2dVertex
 10
259.7562664745206
 20
-123.6924011036046
 30
0.0
  0
VERTEX
  5
1E1
330
1D5
100
AcDbEntity
  8
Layer 1
370
     0
100
AcDbVertex
100
AcDb2dVertex
 10
262.7562664745213
 20
-123.6924011036046
 30
0.0
  0
VERTEX
  5
1E2
330
1D5
100
AcDbEntity
  8
Layer 1
370
     0
100
AcDbVertex
100
AcDb2dVertex
 10
262.7562664745213
 20
-137.6924011036045
 30
0.0
  0
VERTEX
  5
1E3
330
1D5
100
AcDbEntity
  8
Layer 1
370
     0
100
AcDbVertex
100
AcDb2dVertex
 10
259.7562664745206
 20
-137.6924011036045
 30
0.0
  0
VERTEX
  5
1E4
330
1D5
100
AcDbEntity
  8
Layer 1
370
     0
100
AcDbVertex
100
AcDb2dVertex
 10
259.7562664745206
 20
-151.6924011036043
 30
0.0
  0
VERTEX
  5
1E5
330
1D5
100
AcDbEntity
  8
Layer 1
370
     0
100
AcDbVertex
100
AcDb2dVertex
 10
262.7562664745213
 20
-151.6924011036043
 30
0.0
  0
VERTEX
  5
1E6
330
1D5
100
AcDbEntity
  8
Layer 1
370
     0
100
AcDbVertex
100
AcDb2dVertex
 10
262.7562664745213
 20
-165.6924011036042
 30
0.0
  0
VERTEX
  5
1E7
330
1D5
100
AcDbEntity
  8
Layer 1
370
     0
100
AcDbVertex
100
AcDb2dVertex
 10
259.7562664745206
 20
-165.6924011036042
 30
0.0
  0
VERTEX
  5
1E8
330
1D5
100
AcDbEntity
  8
Layer 1
370
     0
100
AcDbVertex
100
AcDb2dVertex
 10
259.7562664745206
 20
-179.6924011036047
 30
0.0
  0
VERTEX
  5
1E9
330
1D5
100
AcDbEntity
  8
Layer 1
370
     0
100
AcDbVertex
100
AcDb2dVertex
 10
239.7562664745212
 20
-179.6924011036047
 30
0.0
  0
VERTEX
  5
1EA
330
1D5
100
AcDbEntity
  8
Layer 1
370
     0
100
AcDbVertex
100
AcDb2dVertex
 10
239.7562664745212
 20
-182.6924011036041
 30
0.0
  0
VERTEX
  5
1EB
330
1D5
100
AcDbEntity
  8
Layer 1
370
     0
100
AcDbVertex
100
AcDb2dVertex
 10
219.7562664745211
 20
-182.6924011036048
 30
0.0
  0
VERTEX
  5
1EC
330
1D5
100
AcDbEntity
  8
Layer 1
370
     0
100
AcDbVertex
100
AcDb2dVertex
 10
219.7562664745211
 20
-179.6924011036047
 30
0.0
  0
VERTEX
  5
1ED
330
1D5
100
AcDbEntity
  8
Layer 1
370
     0
100
AcDbVertex
100
AcDb2dVertex
 10
193.7562664745215
 20
-179.6924011036047
 30
0.0
  0
VERTEX
  5
1EE
330
1D5
100
AcDbEntity
  8
Layer 1
370
     0
100
AcDbVertex
100
AcDb2dVertex
 10
193.7562664745215
 20
-182.6924011036041
 30
0.0
  0
VERTEX
  5
1EF
330
1D5
100
AcDbEntity
  8
Layer 1
370
     0
100
AcDbVertex
100
AcDb2dVertex
 10
173.7562664745211
 20
-182.6924011036048
 30
0.0
  0
VERTEX
  5
1F0
330
1D5
100
AcDbEntity
  8
Layer 1
370
     0
100
AcDbVertex
100
AcDb2dVertex
 10
173.7562664745211
 20
-179.6924011036047
 30
0.0
  0
VERTEX
  5
1F1
330
1D5
100
AcDbEntity
  8
Layer 1
370
     0
100
AcDbVertex
100
AcDb2dVertex
 10
153.756266474521
 20
-179.6924011036047
 30
0.0
  0
VERTEX
  5
1F2
330
1D5
100
AcDbEntity
  8
Layer 1
370
     0
100
AcDbVertex
100
AcDb2dVertex
 10
153.756266474521
 20
-165.6924011036042
 30
0.0
  0
VERTEX
  5
1F3
330
1D5
100
AcDbEntity
  8
Layer 1
370
     0
100
AcDbVertex
100
AcDb2dVertex
 10
150.7562664745209
 20
-165.6924011036042
 30
0.0
  0
VERTEX
  5
1F4
330
1D5
100
AcDbEntity
  8
Layer 1
370
     0
100
AcDbVertex
100
AcDb2dVertex
 10
150.7562664745209
 20
-151.6924011036043
 30
0.0
  0
VERTEX
  5
1F5
330
1D5
100
AcDbEntity
  8
Layer 1
370
     0
100
AcDbVertex
100
AcDb2dVertex
 10
153.756266474521
 20
-151.6924011036043
 30
0.0
  0
VERTEX
  5
1F6
330
1D5
100
AcDbEntity
  8
Layer 1
370
     0
100
AcDbVertex
100
AcDb2dVertex
 10
153.756266474521
 20
-137.6924011036045
 30
0.0
  0
VERTEX
  5
1F7
330
1D5
100
AcDbEntity
  8
Layer 1
370
     0
100
AcDbVertex
100
AcDb2dVertex
 10
150.7562664745209
 20
-137.6924011036045
 30
0.0
  0
VERTEX
  5
1F8
330
1D5
100
AcDbEntity
  8
Layer 1
370
     0
100
AcDbVertex
100
AcDb2dVertex
 10
150.7562664745209
 20
-123.6924011036046
 30
0.0
  0
VERTEX
  5
1F9
330
1D5
100
AcDbEntity
  8
Layer 1
370
     0
100
AcDbVertex
100
AcDb2dVertex
 10
153.756266474521
 20
-123.6924011036046
 30
0.0
  0
VERTEX
  5
1FA
330
1D5
100
AcDbEntity
  8
Layer 1
370
     0
100
AcDbVertex
100
AcDb2dVertex
 10
153.756266474521
 20
-112.6924011036042
 30
0.0
  0
SEQEND
  5
1FB
330
1D5
100
AcDbEntity
  8
Layer 1
370
     0
  0
ENDBLK
  5
1D4
330
1D1
100
AcDbEntity
  8
0
100
AcDbBlockEnd
  0
BLOCK
  5
231
330
22F
100
AcDbEntity
  8
0
100
AcDbBlockBegin
  2
block 35
 70
     0
 10
0.0
 20
0.0
 30
0.0
  3
block 35
  1

  0
POLYLINE
  5
233
330
22F
100
AcDbEntity
  8
Layer 1
370
     0
100
AcDb2dPolyline
 66
     1
 10
0.0
 20
0.0
 30
0.0
  0
VERTEX
  5
234
330
233
100
AcDbEntity
  8
Layer 1
370
     0
100
AcDbVertex
100
AcDb2dVertex
 10
285.5251732673649
 20
-32.66874520963222
 30
0.0
  0
VERTEX
  5
235
330
233
100
AcDbEntity
  8
Layer 1
370
     0
100
AcDbVertex
100
AcDb2dVertex
 10
314.0251732673653
 20
-32.66874520963222
 30
0.0
  0
VERTEX
  5
236
330
233
100
AcDbEntity
  8
Layer 1
370
     0
100
AcDbVertex
100
AcDb2dVertex
 10
314.0251732673653
 20
-43.66874520963228
 30
0.0
  0
VERTEX
  5
237
330
233
100
AcDbEntity
  8
Layer 1
370
     0
100
AcDbVertex
100
AcDb2dVertex
 10
311.0251732673646
 20
-43.66874520963228
 30
0.0
  0
VERTEX
  5
238
330
233
100
AcDbEntity
  8
Layer 1
370
     0
100
AcDbVertex
100
AcDb2dVertex
 10
311.0251732673646
 20
-57.66874520963214
 30
0.0
  0
VERTEX
  5
239
330
233
100
AcDbEntity
  8
Layer 1
370
     0
100
AcDbVertex
100
AcDb2dVertex
 10
314.0251732673653
 20
-57.66874520963214
 30
0.0
  0
VERTEX
  5
23A
330
233
100
AcDbEntity
  8
Layer 1
370
     0
100
AcDbVertex
100
AcDb2dVertex
 10
314.0251732673653
 20
-71.66874520963167
 30
0.0
  0
VERTEX
  5
23B
330
233
100
AcDbEntity
  8
Layer 1
370
     0
100
AcDbVertex
100
AcDb2dVertex
 10
311.0251732673646
 20
-71.66874520963167
 30
0.0
  0
VERTEX
  5
23C
330
233
100
AcDbEntity
  8
Layer 1
370
     0
100
AcDbVertex
100
AcDb2dVertex
 10
311.0251732673646
 20
-85.66874520963216
 30
0.0
  0
VERTEX
  5
23D
330
233
100
AcDbEntity
  8
Layer 1
370
     0
100
AcDbVertex
100
AcDb2dVertex
 10
314.0251732673653
 20
-85.66874520963216
 30
0.0
  0
VERTEX
  5
23E
330
233
100
AcDbEntity
  8
Layer 1
370
     0
100
AcDbVertex
100
AcDb2dVertex
 10
314.0251732673653
 20
-99.66874520963233
 30
0.0
  0
VERTEX
  5
23F
330
233
100
AcDbEntity
  8
Layer 1
370
     0
100
AcDbVertex
100
AcDb2dVertex
 10
285.5251732673649
 20
-99.66874520963233
 30
0.0
  0
VERTEX
  5
240
330
233
100
AcDbEntity
  8
Layer 1
370
     0
100
AcDbVertex
100
AcDb2dVertex
 10
285.5251732673649
 20
-102.6687452096321
 30
0.0
  0
VERTEX
  5
241
330
233
100
AcDbEntity
  8
Layer 1
370
     0
100
AcDbVertex
100
AcDb2dVertex
 10
265.5251732673649
 20
-102.6687452096321
 30
0.0
  0
VERTEX
  5
242
330
233
100
AcDbEntity
  8
Layer 1
370
     0
100
AcDbVertex
100
AcDb2dVertex
 10
265.5251732673649
 20
-99.66874520963233
 30
0.0
  0
VERTEX
  5
243
330
233
100
AcDbEntity
  8
Layer 1
370
     0
100
AcDbVertex
100
AcDb2dVertex
 10
237.0251732673655
 20
-99.66874520963233
 30
0.0
  0
VERTEX
  5
244
330
233
100
AcDbEntity
  8
Layer 1
370
     0
100
AcDbVertex
100
AcDb2dVertex
 10
237.0251732673655
 20
-85.66874520963216
 30
0.0
  0
VERTEX
  5
245
330
233
100
AcDbEntity
  8
Layer 1
370
     0
100
AcDbVertex
100
AcDb2dVertex
 10
240.025173267365
 20
-85.66874520963216
 30
0.0
  0
VERTEX
  5
246
330
233
100
AcDbEntity
  8
Layer 1
370
     0
100
AcDbVertex
100
AcDb2dVertex
 10
240.025173267365
 20
-71.66874520963167
 30
0.0
  0
VERTEX
  5
247
330
233
100
AcDbEntity
  8
Layer 1
370
     0
100
AcDbVertex
100
AcDb2dVertex
 10
237.0251732673655
 20
-71.66874520963167
 30
0.0
  0
VERTEX
  5
248
330
233
100
AcDbEntity
  8
Layer 1
370
     0
100
AcDbVertex
100
AcDb2dVertex
 10
237.0251732673655
 20
-57.66874520963214
 30
0.0
  0
VERTEX
  5
249
330
233
100
AcDbEntity
  8
Layer 1
370
     0
100
AcDbVertex
100
AcDb2dVertex
 10
240.025173267365
 20
-57.66874520963214
 30
0.0
  0
VERTEX
  5
24A
330
233
100
AcDbEntity
  8
Layer 1
370
     0
100
AcDbVertex
100
AcDb2dVertex
 10
240.025173267365
 20
-43.66874520963228
 30
0.0
  0
VERTEX
  5
24B
330
233
100
AcDbEntity
  8
Layer 1
370
     0
100
AcDbVertex
100
AcDb2dVertex
 10
237.0251732673655
 20
-43.66874520963228
 30
0.0
  0
VERTEX
  5
24C
330
233
100
AcDbEntity
  8
Layer 1
370
     0
100
AcDbVertex
100
AcDb2dVertex
 10
237.0251732673655
 20
-32.66874520963222
 30
0.0
  0
VERTEX
  5
24D
330
233
100
AcDbEntity
  8
Layer 1
370
     0
100
AcDbVertex
100
AcDb2dVertex
 10
265.5251732673649
 20
-32.66874520963222
 30
0.0
  0
VERTEX
  5
24E
330
233
100
AcDbEntity
  8
Layer 1
370
     0
100
AcDbVertex
100
AcDb2dVertex
 10
265.5251732673649
 20
-29.66874520963211
 30
0.0
  0
VERTEX
  5
24F
330
233
100
AcDbEntity
  8
Layer 1
370
     0
100
AcDbVertex
100
AcDb2dVertex
 10
285.5251732673649
 20
-29.66874520963211
 30
0.0
  0
VERTEX
  5
250
330
233
100
AcDbEntity
  8
Layer 1
370
     0
100
AcDbVertex
100
AcDb2dVertex
 10
285.5251732673649
 20
-32.66874520963222
 30
0.0
  0
SEQEND
  5
251
330
233
100
AcDbEntity
  8
Layer 1
370
     0
  0
ENDBLK
  5
232
330
22F
100
AcDbEntity
  8
0
100
AcDbBlockEnd
  0
ENDSEC
  0
SECTION
  2
ENTITIES
  0
INSERT
  5
42
330
1F
100
AcDbEntity
  8
Layer 1
100
AcDbBlockReference
  2
block 2
 10
0.0
 20
0.0
 30
0.0
  0
INSERT
  5
65
330
1F
100
AcDbEntity
  8
Layer 1
100
AcDbBlockReference
  2
block 3
 10
0.0
 20
0.0
 30
0.0
  0
INSERT
  5
6F
330
1F
100
AcDbEntity
  8
Layer 1
100
AcDbBlockReference
  2
block 4
 10
0.0
 20
0.0
 30
0.0
  0
INSERT
  5
79
330
1F
100
AcDbEntity
  8
Layer 1
100
AcDbBlockReference
  2
block 5
 10
0.0
 20
0.0
 30
0.0
  0
INSERT
  5
83
330
1F
100
AcDbEntity
  8
Layer 1
100
AcDbBlockReference
  2
block 6
 10
0.0
 20
0.0
 30
0.0
  0
INSERT
  5
8D
330
1F
100
AcDbEntity
  8
Layer 1
100
AcDbBlockReference
  2
block 7
 10
0.0
 20
0.0
 30
0.0
  0
INSERT
  5
97
330
1F
100
AcDbEntity
  8
Layer 1
100
AcDbBlockReference
  2
block 8
 10
0.0
 20
0.0
 30
0.0
  0
INSERT
  5
A1
330
1F
100
AcDbEntity
  8
Layer 1
100
AcDbBlockReference
  2
block 9
 10
0.0
 20
0.0
 30
0.0
  0
INSERT
  5
AB
330
1F
100
AcDbEntity
  8
Layer 1
100
AcDbBlockReference
  2
block 10
 10
0.0
 20
0.0
 30
0.0
  0
INSERT
  5
B5
330
1F
100
AcDbEntity
  8
Layer 1
100
AcDbBlockReference
  2
block 11
 10
0.0
 20
0.0
 30
0.0
  0
INSERT
  5
BF
330
1F
100
AcDbEntity
  8
Layer 1
100
AcDbBlockReference
  2
block 12
 10
0.0
 20
0.0
 30
0.0
  0
INSERT
  5
C9
330
1F
100
AcDbEntity
  8
Layer 1
100
AcDbBlockReference
  2
block 13
 10
0.0
 20
0.0
 30
0.0
  0
INSERT
  5
D3
330
1F
100
AcDbEntity
  8
Layer 1
100
AcDbBlockReference
  2
block 14
 10
0.0
 20
0.0
 30
0.0
  0
INSERT
  5
DD
330
1F
100
AcDbEntity
  8
Layer 1
100
AcDbBlockReference
  2
block 15
 10
0.0
 20
0.0
 30
0.0
  0
INSERT
  5
E7
330
1F
100
AcDbEntity
  8
Layer 1
100
AcDbBlockReference
  2
block 16
 10
0.0
 20
0.0
 30
0.0
  0
INSERT
  5
F1
330
1F
100
AcDbEntity
  8
Layer 1
100
AcDbBlockReference
  2
block 17
 10
0.0
 20
0.0
 30
0.0
  0
INSERT
  5
FB
330
1F
100
AcDbEntity
  8
Layer 1
100
AcDbBlockReference
  2
block 18
 10
0.0
 20
0.0
 30
0.0
  0
INSERT
  5
105
330
1F
100
AcDbEntity
  8
Layer 1
100
AcDbBlockReference
  2
block 19
 10
0.0
 20
0.0
 30
0.0
  0
INSERT
  5
10F
330
1F
100
AcDbEntity
  8
Layer 1
100
AcDbBlockReference
  2
block 20
 10
0.0
 20
0.0
 30
0.0
  0
INSERT
  5
119
330
1F
100
AcDbEntity
  8
Layer 1
100
AcDbBlockReference
  2
block 21
 10
0.0
 20
0.0
 30
0.0
  0
INSERT
  5
123
330
1F
100
AcDbEntity
  8
Layer 1
100
AcDbBlockReference
  2
block 22
 10
0.0
 20
0.0
 30
0.0
  0
INSERT
  5
12D
330
1F
100
AcDbEntity
  8
Layer 1
100
AcDbBlockReference
  2
block 23
 10
0.0
 20
0.0
 30
0.0
  0
INSERT
  5
137
330
1F
100
AcDbEntity
  8
Layer 1
100
AcDbBlockReference
  2
block 24
 10
0.0
 20
0.0
 30
0.0
  0
INSERT
  5
141
330
1F
100
AcDbEntity
  8
Layer 1
100
AcDbBlockReference
  2
block 25
 10
0.0
 20
0.0
 30
0.0
  0
INSERT
  5
14B
330
1F
100
AcDbEntity
  8
Layer 1
100
AcDbBlockReference
  2
block 26
 10
0.0
 20
0.0
 30
0.0
  0
INSERT
  5
155
330
1F
100
AcDbEntity
  8
Layer 1
100
AcDbBlockReference
  2
block 27
 10
0.0
 20
0.0
 30
0.0
  0
INSERT
  5
15F
330
1F
100
AcDbEntity
  8
Layer 1
100
AcDbBlockReference
  2
block 28
 10
0.0
 20
0.0
 30
0.0
  0
INSERT
  5
169
330
1F
100
AcDbEntity
  8
Layer 1
100
AcDbBlockReference
  2
block 29
 10
0.0
 20
0.0
 30
0.0
  0
INSERT
  5
18C
330
1F
100
AcDbEntity
  8
Layer 1
100
AcDbBlockReference
  2
block 30
 10
0.0
 20
0.0
 30
0.0
  0
INSERT
  5
1B7
330
1F
100
AcDbEntity
  8
Layer 1
100
AcDbBlockReference
  2
block 31
 10
0.0
 20
0.0
 30
0.0
  0
INSERT
  5
1C2
330
1F
100
AcDbEntity
  8
Layer 1
100
AcDbBlockReference
  2
block 32
 10
0.0
 20
0.0
 30
0.0
  0
INSERT
  5
1CD
330
1F
100
AcDbEntity
  8
Layer 1
100
AcDbBlockReference
  2
block 33
 10
0.0
 20
0.0
 30
0.0
  0
INSERT
  5
1D2
330
1F
100
AcDbEntity
  8
Layer 1
100
AcDbBlockReference
  2
block 34
 10
0.0
 20
0.0
 30
0.0
  0
SPLINE
  5
1FC
330
1F
100
AcDbEntity
  8
Layer 1
370
     0
100
AcDbSpline
210
0.0
220
0.0
230
1.0
 70
    11
 71
     3
 72
    11
 73
     7
 74
     0
 42
0.0000000001
 43
0.0000000001
 12
1.0
 22
0.0
 32
0.0
 13
1.0
 23
0.0
 33
0.0
 40
0.0
 40
0.0
 40
0.0
 40
0.0
 40
1.0
 40
1.0
 40
1.0
 40
2.0
 40
2.0
 40
2.0
 40
2.0
 10
75.13913360236357
 20
-127.8625957390976
 30
0.0
 10
75.13913360236357
 20
-127.8625957390976
 30
0.0
 10
77.62823107182324
 20
-139.4783839299072
 30
0.0
 10
87.16977137141689
 20
-135.7447377257184
 30
0.0
 10
87.16977137141689
 20
-135.7447377257184
 30
0.0
 10
82.81385079986318
 20
-127.8625957390976
 30
0.0
 10
75.13913360236357
 20
-127.8625957390976
 30
0.0
  0
SPLINE
  5
1FD
330
1F
100
AcDbEntity
  8
Layer 1
370
     0
100
AcDbSpline
210
0.0
220
0.0
230
1.0
 70
    11
 71
     3
 72
    11
 73
     7
 74
     0
 42
0.0000000001
 43
0.0000000001
 12
1.0
 22
0.0
 32
0.0
 13
1.0
 23
0.0
 33
0.0
 40
0.0
 40
0.0
 40
0.0
 40
0.0
 40
1.0
 40
1.0
 40
1.0
 40
2.0
 40
2.0
 40
2.0
 40
2.0
 10
92.14796631033495
 20
-135.1224633583535
 30
0.0
 10
92.14796631033495
 20
-135.1224633583535
 30
0.0
 10
101.2746570316855
 20
-138.8561095625421
 30
0.0
 10
105.0083032358742
 20
-127.8625957390976
 30
0.0
 10
105.0083032358742
 20
-127.8625957390976
 30
0.0
 10
96.08903730364521
 20
-126.410622215246
 30
0.0
 10
92.14796631033495
 20
-135.1224633583535
 30
0.0
  0
SPLINE
  5
1FE
330
1F
100
AcDbEntity
  8
Layer 1
370
     0
100
AcDbSpline
210
0.0
220
0.0
230
1.0
 70
    11
 71
     3
 72
    14
 73
    10
 74
     0
 42
0.0000000001
 43
0.0000000001
 12
1.0
 22
0.0
 32
0.0
 13
1.0
 23
0.0
 33
0.0
 40
0.0
 40
0.0
 40
0.0
 40
0.0
 40
1.0
 40
1.0
 40
1.0
 40
2.0
 40
2.0
 40
2.0
 40
3.0
 40
3.0
 40
3.0
 40
3.0
 10
70.36836345256674
 20
-136.3670120930831
 30
0.0
 10
70.36836345256674
 20
-136.3670120930831
 30
0.0
 10
75.13913360236388
 20
-146.3234019709202
 30
0.0
 10
81.77672685425475
 20
-147.1531011274064
 30
0.0
 10
81.77672685425475
 20
-147.1531011274064
 30
0.0
 10
84.88809869107877
 20
-146.1159771817983
 30
0.0
 10
86.75492179317312
 20
-144.4565788688255
 30
0.0
 10
88.6217448952678
 20
-142.7971805558527
 30
0.0
 10
73.06488571114765
 20
-135.5373129365966
 30
0.0
 10
70.36836345256674
 20
-136.3670120930831
 30
0.0
  0
SPLINE
  5
1FF
330
1F
100
AcDbEntity
  8
Layer 1
370
     0
100
AcDbSpline
210
0.0
220
0.0
230
1.0
 70
    11
 71
     3
 72
    17
 73
    13
 74
     0
 42
0.0000000001
 43
0.0000000001
 12
1.0
 22
0.0
 32
0.0
 13
1.0
 23
0.0
 33
0.0
 40
0.0
 40
0.0
 40
0.0
 40
0.0
 40
1.0
 40
1.0
 40
1.0
 40
2.0
 40
2.0
 40
2.0
 40
3.0
 40
3.0
 40
3.0
 40
4.0
 40
4.0
 40
4.0
 40
4.0
 10
102.0039893547263
 20
-147.6281708057171
 30
0.0
 10
97.54101082749645
 20
-148.1902250730146
 30
0.0
 10
92.97766546682118
 20
-145.2862780253121
 30
0.0
 10
92.97766546682118
 20
-145.2862780253121
 30
0.0
 10
92.97766546682118
 20
-145.2862780253121
 30
0.0
 10
102.6195725998609
 20
-135.8919424147724
 30
0.0
 10
110.6087725421576
 20
-135.5373129365966
 30
0.0
 10
110.6087725421576
 20
-135.5373129365966
 30
0.0
 10
107.289975916212
 20
-142.1749061884881
 30
0.0
 10
107.289975916212
 20
-142.1749061884881
 30
0.0
 10
107.289975916212
 20
-142.1749061884881
 30
0.0
 10
102.0039893547263
 20
-147.6281708057171
 30
0.0
 10
102.0039893547263
 20
-147.6281708057171
 30
0.0
  0
SPLINE
  5
200
330
1F
100
AcDbEntity
  8
Layer 1
370
     0
100
AcDbSpline
210
0.0
220
0.0
230
1.0
 70
    11
 71
     3
 72
    14
 73
    10
 74
     0
 42
0.0000000001
 43
0.0000000001
 12
1.0
 22
0.0
 32
0.0
 13
1.0
 23
0.0
 33
0.0
 40
0.0
 40
0.0
 40
0.0
 40
0.0
 40
1.0
 40
1.0
 40
1.0
 40
2.0
 40
2.0
 40
2.0
 40
3.0
 40
3.0
 40
3.0
 40
3.0
 10
79.49505417391727
 20
-155.2426679031489
 30
0.0
 10
77.46111747682505
 20
-154.6615431325515
 30
0.0
 10
70.99063781993142
 20
-146.9456763382849
 30
0.0
 10
70.99063781993142
 20
-146.9456763382849
 30
0.0
 10
70.99063781993142
 20
-146.9456763382849
 30
0.0
 10
79.08020459567383
 20
-145.7011276035552
 30
0.0
 10
85.71779784756534
 20
-153.7906943792976
 30
0.0
 10
85.71779784756534
 20
-153.7906943792976
 30
0.0
 10
82.39900122161974
 20
-156.0723670596354
 30
0.0
 10
79.49505417391727
 20
-155.2426679031489
 30
0.0
  0
SPLINE
  5
201
330
1F
100
AcDbEntity
  8
Layer 1
370
     0
100
AcDbSpline
210
0.0
220
0.0
230
1.0
 70
    11
 71
     3
 72
    14
 73
    10
 74
     0
 42
0.0000000001
 43
0.0000000001
 12
1.0
 22
0.0
 32
0.0
 13
1.0
 23
0.0
 33
0.0
 40
0.0
 40
0.0
 40
0.0
 40
0.0
 40
1.0
 40
1.0
 40
1.0
 40
2.0
 40
2.0
 40
2.0
 40
3.0
 40
3.0
 40
3.0
 40
3.0
 10
104.8008784467526
 20
-153.7906943792976
 30
0.0
 10
97.33358603837489
 20
-157.5243405834867
 30
0.0
 10
95.46676293628053
 20
-154.6203935357842
 30
0.0
 10
95.46676293628053
 20
-154.6203935357842
 30
0.0
 10
95.46676293628053
 20
-154.6203935357842
 30
0.0
 10
107.9122502835767
 20
-145.4937028144336
 30
0.0
 10
110.1939229639144
 20
-145.9085523926768
 30
0.0
 10
110.1939229639144
 20
-145.9085523926768
 30
0.0
 10
106.0454271814823
 20
-153.1684200119329
 30
0.0
 10
104.8008784467526
 20
-153.7906943792976
 30
0.0
  0
SPLINE
  5
202
330
1F
100
AcDbEntity
  8
Layer 1
370
     0
100
AcDbSpline
210
0.0
220
0.0
230
1.0
 70
    11
 71
     3
 72
    14
 73
    10
 74
     0
 42
0.0000000001
 43
0.0000000001
 12
1.0
 22
0.0
 32
0.0
 13
1.0
 23
0.0
 33
0.0
 40
0.0
 40
0.0
 40
0.0
 40
0.0
 40
1.0
 40
1.0
 40
1.0
 40
2.0
 40
2.0
 40
2.0
 40
3.0
 40
3.0
 40
3.0
 40
3.0
 10
104.5934536576311
 20
-126.6180470043676
 30
0.0
 10
104.5934536576311
 20
-126.6180470043676
 30
0.0
 10
105.0083032358748
 20
-123.5066751675436
 30
0.0
 10
106.0454271814826
 20
-123.9215247457867
 30
0.0
 10
106.0454271814826
 20
-123.9215247457867
 30
0.0
 10
108.7419494400635
 20
-126.410622215246
 30
0.0
 10
108.7419494400635
 20
-126.410622215246
 30
0.0
 10
108.7419494400635
 20
-126.410622215246
 30
0.0
 10
106.2528519706048
 20
-127.2403213717326
 30
0.0
 10
104.5934536576311
 20
-126.6180470043676
 30
0.0
  0
SPLINE
  5
203
330
1F
100
AcDbEntity
  8
Layer 1
370
     0
100
AcDbSpline
210
0.0
220
0.0
230
1.0
 70
    11
 71
     3
 72
    14
 73
    10
 74
     0
 42
0.0000000001
 43
0.0000000001
 12
1.0
 22
0.0
 32
0.0
 13
1.0
 23
0.0
 33
0.0
 40
0.0
 40
0.0
 40
0.0
 40
0.0
 40
1.0
 40
1.0
 40
1.0
 40
2.0
 40
2.0
 40
2.0
 40
3.0
 40
3.0
 40
3.0
 40
3.0
 10
112.6830204333738
 20
-131.5962419432863
 30
0.0
 10
113.3519452786878
 20
-131.261779520629
 30
0.0
 10
110.4013477530363
 20
-128.6922948955838
 30
0.0
 10
110.4013477530363
 20
-128.6922948955838
 30
0.0
 10
110.4013477530363
 20
-128.6922948955838
 30
0.0
 10
108.7419494400638
 20
-130.3516932085566
 30
0.0
 10
109.3642238074282
 20
-131.5962419432863
 30
0.0
 10
109.3642238074282
 20
-131.5962419432863
 30
0.0
 10
112.2681708551313
 20
-131.8036667324079
 30
0.0
 10
112.6830204333738
 20
-131.5962419432863
 30
0.0
  0
SPLINE
  5
204
330
1F
100
AcDbEntity
  8
Layer 1
370
     0
100
AcDbSpline
210
0.0
220
0.0
230
1.0
 70
    11
 71
     3
 72
    14
 73
    10
 74
     0
 42
0.0000000001
 43
0.0000000001
 12
1.0
 22
0.0
 32
0.0
 13
1.0
 23
0.0
 33
0.0
 40
0.0
 40
0.0
 40
0.0
 40
0.0
 40
1.0
 40
1.0
 40
1.0
 40
2.0
 40
2.0
 40
2.0
 40
3.0
 40
3.0
 40
3.0
 40
3.0
 10
97.12616124925333
 20
-119.3581793851114
 30
0.0
 10
97.12616124925333
 20
-119.3581793851114
 30
0.0
 10
101.8969313990502
 20
-120.187878541598
 30
0.0
 10
102.5192057664152
 20
-122.0547016436923
 30
0.0
 10
102.5192057664152
 20
-122.0547016436923
 30
0.0
 10
96.08903730364521
 20
-123.5066751675436
 30
0.0
 10
95.46676293628053
 20
-127.2403213717326
 30
0.0
 10
95.46676293628053
 20
-127.2403213717326
 30
0.0
 10
92.97766546682118
 20
-123.299250378422
 30
0.0
 10
97.12616124925333
 20
-119.3581793851114
 30
0.0
  0
SPLINE
  5
205
330
1F
100
AcDbEntity
  8
Layer 1
370
     0
100
AcDbSpline
210
0.0
220
0.0
230
1.0
 70
    11
 71
     3
 72
    14
 73
    10
 74
     0
 42
0.0000000001
 43
0.0000000001
 12
1.0
 22
0.0
 32
0.0
 13
1.0
 23
0.0
 33
0.0
 40
0.0
 40
0.0
 40
0.0
 40
0.0
 40
1.0
 40
1.0
 40
1.0
 40
2.0
 40
2.0
 40
2.0
 40
3.0
 40
3.0
 40
3.0
 40
3.0
 10
91.73311673209183
 20
-121.8472768545708
 30
0.0
 10
91.41494162994081
 20
-123.1199772631736
 30
0.0
 10
93.39251504506463
 20
-119.565604174233
 30
0.0
 10
93.39251504506463
 20
-119.565604174233
 30
0.0
 10
93.39251504506463
 20
-119.565604174233
 30
0.0
 10
91.11084236472651
 20
-119.565604174233
 30
0.0
 10
91.11084236472651
 20
-119.565604174233
 30
0.0
 10
91.11084236472651
 20
-119.565604174233
 30
0.0
 10
91.94054152121339
 20
-121.0175776980842
 30
0.0
 10
91.73311673209183
 20
-121.8472768545708
 30
0.0
  0
SPLINE
  5
206
330
1F
100
AcDbEntity
  8
Layer 1
370
     0
100
AcDbSpline
210
0.0
220
0.0
230
1.0
 70
    11
 71
     3
 72
    14
 73
    10
 74
     0
 42
0.0000000001
 43
0.0000000001
 12
1.0
 22
0.0
 32
0.0
 13
1.0
 23
0.0
 33
0.0
 40
0.0
 40
0.0
 40
0.0
 40
0.0
 40
1.0
 40
1.0
 40
1.0
 40
2.0
 40
2.0
 40
2.0
 40
3.0
 40
3.0
 40
3.0
 40
3.0
 10
86.75492179317312
 20
-119.565604174233
 30
0.0
 10
86.75492179317312
 20
-119.565604174233
 30
0.0
 10
89.24401926263248
 20
-119.3581793851114
 30
0.0
 10
89.24401926263248
 20
-119.3581793851114
 30
0.0
 10
89.24401926263248
 20
-119.3581793851114
 30
0.0
 10
88.82916968438936
 20
-121.8472768545708
 30
0.0
 10
87.58462094965968
 20
-122.2621264328139
 30
0.0
 10
87.58462094965968
 20
-122.2621264328139
 30
0.0
 10
87.79204573878124
 20
-119.7730289633549
 30
0.0
 10
86.75492179317312
 20
-119.565604174233
 30
0.0
  0
SPLINE
  5
207
330
1F
100
AcDbEntity
  8
Layer 1
370
     0
100
AcDbSpline
210
0.0
220
0.0
230
1.0
 70
    11
 71
     3
 72
    14
 73
    10
 74
     0
 42
0.0000000001
 43
0.0000000001
 12
1.0
 22
0.0
 32
0.0
 13
1.0
 23
0.0
 33
0.0
 40
0.0
 40
0.0
 40
0.0
 40
0.0
 40
1.0
 40
1.0
 40
1.0
 40
2.0
 40
2.0
 40
2.0
 40
3.0
 40
3.0
 40
3.0
 40
3.0
 10
84.6806739019572
 20
-122.8844008001789
 30
0.0
 10
84.05839953459285
 20
-122.6769760110576
 30
0.0
 10
82.39900122161974
 20
-119.9804537524767
 30
0.0
 10
82.39900122161974
 20
-119.9804537524767
 30
0.0
 10
82.39900122161974
 20
-119.9804537524767
 30
0.0
 10
84.05839953459285
 20
-118.7359050177467
 30
0.0
 10
84.6806739019572
 20
-119.565604174233
 30
0.0
 10
84.6806739019572
 20
-119.565604174233
 30
0.0
 10
84.6806739019572
 20
-122.8844008001789
 30
0.0
 10
84.6806739019572
 20
-122.8844008001789
 30
0.0
  0
SPLINE
  5
208
330
1F
100
AcDbEntity
  8
Layer 1
370
     0
100
AcDbSpline
210
0.0
220
0.0
230
1.0
 70
    11
 71
     3
 72
    14
 73
    10
 74
     0
 42
0.0000000001
 43
0.0000000001
 12
1.0
 22
0.0
 32
0.0
 13
1.0
 23
0.0
 33
0.0
 40
0.0
 40
0.0
 40
0.0
 40
0.0
 40
1.0
 40
1.0
 40
1.0
 40
2.0
 40
2.0
 40
2.0
 40
3.0
 40
3.0
 40
3.0
 40
3.0
 10
75.553983180607
 20
-122.8844008001789
 30
0.0
 10
75.553983180607
 20
-122.8844008001789
 30
0.0
 10
79.08020459567383
 20
-120.187878541598
 30
0.0
 10
79.08020459567383
 20
-120.187878541598
 30
0.0
 10
79.08020459567383
 20
-120.187878541598
 30
0.0
 10
85.71779784756534
 20
-123.9215247457867
 30
0.0
 10
83.43612516722753
 20
-128.484870106462
 30
0.0
 10
83.43612516722753
 20
-128.484870106462
 30
0.0
 10
80.11732854128195
 20
-122.4695512219358
 30
0.0
 10
75.553983180607
 20
-122.8844008001789
 30
0.0
  0
SPLINE
  5
209
330
1F
100
AcDbEntity
  8
Layer 1
370
     0
100
AcDbSpline
210
0.0
220
0.0
230
1.0
 70
    11
 71
     3
 72
    14
 73
    10
 74
     0
 42
0.0000000001
 43
0.0000000001
 12
1.0
 22
0.0
 32
0.0
 13
1.0
 23
0.0
 33
0.0
 40
0.0
 40
0.0
 40
0.0
 40
0.0
 40
1.0
 40
1.0
 40
1.0
 40
2.0
 40
2.0
 40
2.0
 40
3.0
 40
3.0
 40
3.0
 40
3.0
 10
66.21986767013428
 20
-132.218516310651
 30
0.0
 10
66.07319619516029
 20
-132.365187785625
 30
0.0
 10
67.87926598310739
 20
-129.3145692629485
 30
0.0
 10
67.87926598310739
 20
-129.3145692629485
 30
0.0
 10
67.87926598310739
 20
-129.3145692629485
 30
0.0
 10
69.74608908520175
 20
-129.3145692629485
 30
0.0
 10
69.74608908520175
 20
-131.5962419432863
 30
0.0
 10
69.74608908520175
 20
-131.5962419432863
 30
0.0
 10
67.46441640486427
 20
-130.9739675759213
 30
0.0
 10
66.21986767013428
 20
-132.218516310651
 30
0.0
  0
SPLINE
  5
20A
330
1F
100
AcDbEntity
  8
Layer 1
370
     0
100
AcDbSpline
210
0.0
220
0.0
230
1.0
 70
    11
 71
     3
 72
    14
 73
    10
 74
     0
 42
0.0000000001
 43
0.0000000001
 12
1.0
 22
0.0
 32
0.0
 13
1.0
 23
0.0
 33
0.0
 40
0.0
 40
0.0
 40
0.0
 40
0.0
 40
1.0
 40
1.0
 40
1.0
 40
2.0
 40
2.0
 40
2.0
 40
3.0
 40
3.0
 40
3.0
 40
3.0
 10
69.74608908520175
 20
-126.410622215246
 30
0.0
 10
69.54269234532974
 20
-126.4513015632203
 30
0.0
 10
72.23518655466077
 20
-124.1289495349086
 30
0.0
 10
72.23518655466077
 20
-124.1289495349086
 30
0.0
 10
72.23518655466077
 20
-124.1289495349086
 30
0.0
 10
74.10200965675544
 20
-125.3734982696379
 30
0.0
 10
73.06488571114733
 20
-127.032896582611
 30
0.0
 10
73.06488571114733
 20
-127.032896582611
 30
0.0
 10
71.82033697641765
 20
-125.9957726370029
 30
0.0
 10
69.74608908520175
 20
-126.410622215246
 30
0.0
  0
SPLINE
  5
20B
330
1F
100
AcDbEntity
  8
Layer 1
370
     0
100
AcDbSpline
210
0.0
220
0.0
230
1.0
 70
    11
 71
     3
 72
    14
 73
    10
 74
     0
 42
0.0000000001
 43
0.0000000001
 12
1.0
 22
0.0
 32
0.0
 13
1.0
 23
0.0
 33
0.0
 40
0.0
 40
0.0
 40
0.0
 40
0.0
 40
1.0
 40
1.0
 40
1.0
 40
2.0
 40
2.0
 40
2.0
 40
3.0
 40
3.0
 40
3.0
 40
3.0
 10
77.42080628270104
 20
-168.9327039851746
 30
0.0
 10
77.12972856317745
 20
-168.8963192702344
 30
0.0
 10
82.39900122161941
 20
-171.0069518763909
 30
0.0
 10
82.39900122161941
 20
-171.0069518763909
 30
0.0
 10
82.39900122161941
 20
-171.0069518763909
 30
0.0
 10
85.92522263668688
 20
-163.3322346788916
 30
0.0
 10
84.2658243237141
 20
-160.2208628420676
 30
0.0
 10
84.2658243237141
 20
-160.2208628420676
 30
0.0
 10
79.08020459567383
 20
-169.1401287742965
 30
0.0
 10
77.42080628270104
 20
-168.9327039851746
 30
0.0
  0
SPLINE
  5
20C
330
1F
100
AcDbEntity
  8
Layer 1
370
     0
100
AcDbSpline
210
0.0
220
0.0
230
1.0
 70
    11
 71
     3
 72
    14
 73
    10
 74
     0
 42
0.0000000001
 43
0.0000000001
 12
1.0
 22
0.0
 32
0.0
 13
1.0
 23
0.0
 33
0.0
 40
0.0
 40
0.0
 40
0.0
 40
0.0
 40
1.0
 40
1.0
 40
1.0
 40
2.0
 40
2.0
 40
2.0
 40
3.0
 40
3.0
 40
3.0
 40
3.0
 10
77.21338149357948
 20
-164.3693586244994
 30
0.0
 10
77.21338149357948
 20
-164.3693586244994
 30
0.0
 10
77.00595670445792
 20
-167.4807304613237
 30
0.0
 10
75.9688327588498
 20
-167.6881552504456
 30
0.0
 10
74.66645816396098
 20
-167.9486301694228
 30
0.0
 10
73.06488571114733
 20
-166.0287569374725
 30
0.0
 10
73.06488571114733
 20
-166.0287569374725
 30
0.0
 10
73.06488571114733
 20
-166.0287569374725
 30
0.0
 10
77.21338149357948
 20
-164.3693586244994
 30
0.0
 10
77.21338149357948
 20
-164.3693586244994
 30
0.0
  0
SPLINE
  5
20D
330
1F
100
AcDbEntity
  8
Layer 1
370
     0
100
AcDbSpline
210
0.0
220
0.0
230
1.0
 70
    11
 71
     3
 72
    14
 73
    10
 74
     0
 42
0.0000000001
 43
0.0000000001
 12
1.0
 22
0.0
 32
0.0
 13
1.0
 23
0.0
 33
0.0
 40
0.0
 40
0.0
 40
0.0
 40
0.0
 40
1.0
 40
1.0
 40
1.0
 40
2.0
 40
2.0
 40
2.0
 40
3.0
 40
3.0
 40
3.0
 40
3.0
 10
69.12381471783675
 20
-162.2951107332838
 30
0.0
 10
69.12381471783675
 20
-162.2951107332838
 30
0.0
 10
71.82033697641765
 20
-165.199057780986
 30
0.0
 10
71.82033697641765
 20
-165.199057780986
 30
0.0
 10
71.82033697641765
 20
-165.199057780986
 30
0.0
 10
75.13913360236324
 20
-164.3693586244994
 30
0.0
 10
74.309434445877
 20
-160.4282876311891
 30
0.0
 10
74.309434445877
 20
-160.4282876311891
 30
0.0
 10
69.74608908520175
 20
-162.7099603115266
 30
0.0
 10
69.12381471783675
 20
-162.2951107332838
 30
0.0
  0
SPLINE
  5
20E
330
1F
100
AcDbEntity
  8
Layer 1
370
     0
100
AcDbSpline
210
0.0
220
0.0
230
1.0
 70
    11
 71
     3
 72
    14
 73
    10
 74
     0
 42
0.0000000001
 43
0.0000000001
 12
1.0
 22
0.0
 32
0.0
 13
1.0
 23
0.0
 33
0.0
 40
0.0
 40
0.0
 40
0.0
 40
0.0
 40
1.0
 40
1.0
 40
1.0
 40
2.0
 40
2.0
 40
2.0
 40
3.0
 40
3.0
 40
3.0
 40
3.0
 10
66.84214203749927
 20
-158.9763141073379
 30
0.0
 10
66.84214203749927
 20
-158.9763141073379
 30
0.0
 10
68.29411556135051
 20
-161.0505619985538
 30
0.0
 10
68.29411556135051
 20
-161.0505619985538
 30
0.0
 10
68.29411556135051
 20
-161.0505619985538
 30
0.0
 10
70.16093866344518
 20
-160.8431372094322
 30
0.0
 10
69.53866429608019
 20
-158.5614645290945
 30
0.0
 10
69.53866429608019
 20
-158.5614645290945
 30
0.0
 10
68.50154035047207
 20
-160.013438052946
 30
0.0
 10
66.84214203749927
 20
-158.9763141073379
 30
0.0
  0
SPLINE
  5
20F
330
1F
100
AcDbEntity
  8
Layer 1
370
     0
100
AcDbSpline
210
0.0
220
0.0
230
1.0
 70
    11
 71
     3
 72
    14
 73
    10
 74
     0
 42
0.0000000001
 43
0.0000000001
 12
1.0
 22
0.0
 32
0.0
 13
1.0
 23
0.0
 33
0.0
 40
0.0
 40
0.0
 40
0.0
 40
0.0
 40
1.0
 40
1.0
 40
1.0
 40
2.0
 40
2.0
 40
2.0
 40
3.0
 40
3.0
 40
3.0
 40
3.0
 10
63.31592062243212
 20
-152.546145644568
 30
0.0
 10
63.31592062243212
 20
-152.546145644568
 30
0.0
 10
64.14561977891836
 20
-155.8649422705139
 30
0.0
 10
64.14561977891836
 20
-155.8649422705139
 30
0.0
 10
64.14561977891836
 20
-155.8649422705139
 30
0.0
 10
66.21986767013428
 20
-156.279791848757
 30
0.0
 10
66.84214203749927
 20
-154.6203935357842
 30
0.0
 10
66.84214203749927
 20
-154.6203935357842
 30
0.0
 10
63.31592062243212
 20
-153.5832695901761
 30
0.0
 10
63.31592062243212
 20
-152.546145644568
 30
0.0
  0
SPLINE
  5
210
330
1F
100
AcDbEntity
  8
Layer 1
370
     0
100
AcDbSpline
210
0.0
220
0.0
230
1.0
 70
    11
 71
     3
 72
    14
 73
    10
 74
     0
 42
0.0000000001
 43
0.0000000001
 12
1.0
 22
0.0
 32
0.0
 13
1.0
 23
0.0
 33
0.0
 40
0.0
 40
0.0
 40
0.0
 40
0.0
 40
1.0
 40
1.0
 40
1.0
 40
2.0
 40
2.0
 40
2.0
 40
3.0
 40
3.0
 40
3.0
 40
3.0
 10
62.48622146594557
 20
-144.0417292905824
 30
0.0
 10
62.48622146594557
 20
-144.0417292905824
 30
0.0
 10
62.69364625506713
 20
-148.1902250730146
 30
0.0
 10
62.69364625506713
 20
-148.1902250730146
 30
0.0
 10
62.69364625506713
 20
-148.1902250730146
 30
0.0
 10
66.63471724837771
 20
-150.2644729642305
 30
0.0
 10
68.70896513959363
 20
-148.6050746512577
 30
0.0
 10
68.70896513959363
 20
-148.6050746512577
 30
0.0
 10
63.10849583331024
 20
-146.3234019709202
 30
0.0
 10
62.48622146594557
 20
-144.0417292905824
 30
0.0
  0
SPLINE
  5
211
330
1F
100
AcDbEntity
  8
Layer 1
370
     0
100
AcDbSpline
210
0.0
220
0.0
230
1.0
 70
    11
 71
     3
 72
    14
 73
    10
 74
     0
 42
0.0000000001
 43
0.0000000001
 12
1.0
 22
0.0
 32
0.0
 13
1.0
 23
0.0
 33
0.0
 40
0.0
 40
0.0
 40
0.0
 40
0.0
 40
1.0
 40
1.0
 40
1.0
 40
2.0
 40
2.0
 40
2.0
 40
3.0
 40
3.0
 40
3.0
 40
3.0
 10
69.53866429608019
 20
-140.7229326646368
 30
0.0
 10
69.1020477167948
 20
-141.487011678386
 30
0.0
 10
63.10849583331024
 20
-138.4412599842994
 30
0.0
 10
63.10849583331024
 20
-138.4412599842994
 30
0.0
 10
63.31592062243212
 20
-138.2338351951775
 30
0.0
 10
65.18274372452647
 20
-132.8407906780157
 30
0.0
 10
66.63471724837771
 20
-134.2927642018669
 30
0.0
 10
66.63471724837771
 20
-134.2927642018669
 30
0.0
 10
70.36836345256643
 20
-139.2709591407856
 30
0.0
 10
69.53866429608019
 20
-140.7229326646368
 30
0.0
  0
SPLINE
  5
212
330
1F
100
AcDbEntity
  8
Layer 1
370
     0
100
AcDbSpline
210
0.0
220
0.0
230
1.0
 70
     8
 71
     3
 72
    14
 73
    10
 74
     0
 42
0.0000000001
 43
0.0000000001
 12
1.0
 22
0.0
 32
0.0
 13
1.0
 23
0.0
 33
0.0
 40
0.0
 40
0.0
 40
0.0
 40
0.0
 40
1.0
 40
1.0
 40
1.0
 40
2.0
 40
2.0
 40
2.0
 40
3.0
 40
3.0
 40
3.0
 40
3.0
 10
85.71779784756534
 20
-170.7995270872693
 30
0.0
 10
85.71779784756534
 20
-170.7995270872693
 30
0.0
 10
87.9994705279028
 20
-173.9108989240933
 30
0.0
 10
90.69599278648371
 20
-170.1772527199047
 30
0.0
 10
90.69599278648371
 20
-170.1772527199047
 30
0.0
 10
91.73311673209183
 20
-165.4064825701075
 30
0.0
 10
90.07371841911872
 20
-163.12480988977
 30
0.0
 10
90.07371841911872
 20
-163.12480988977
 30
0.0
 10
88.4143201061456
 20
-169.9698279307828
 30
0.0
 10
85.92522263668688
 20
-170.5921022981478
 30
0.0
  0
SPLINE
  5
213
330
1F
100
AcDbEntity
  8
Layer 1
370
     0
100
AcDbSpline
210
0.0
220
0.0
230
1.0
 70
    11
 71
     3
 72
    20
 73
    16
 74
     0
 42
0.0000000001
 43
0.0000000001
 12
1.0
 22
0.0
 32
0.0
 13
1.0
 23
0.0
 33
0.0
 40
0.0
 40
0.0
 40
0.0
 40
0.0
 40
1.0
 40
1.0
 40
1.0
 40
2.0
 40
2.0
 40
2.0
 40
3.0
 40
3.0
 40
3.0
 40
4.0
 40
4.0
 40
4.0
 40
5.0
 40
5.0
 40
5.0
 40
5.0
 10
92.77024067769962
 20
-168.7252791960531
 30
0.0
 10
92.56281588857807
 20
-168.9327039851746
 30
0.0
 10
91.31826715384871
 20
-170.5921022981478
 30
0.0
 10
91.31826715384871
 20
-170.5921022981478
 30
0.0
 10
91.31826715384871
 20
-170.5921022981478
 30
0.0
 10
91.73311673209183
 20
-171.6292262437556
 30
0.0
 10
91.73311673209183
 20
-171.6292262437556
 30
0.0
 10
91.73311673209183
 20
-171.6292262437556
 30
0.0
 10
94.01478941242962
 20
-171.2143766655124
 30
0.0
 10
94.01478941242962
 20
-171.2143766655124
 30
0.0
 10
94.01478941242962
 20
-171.2143766655124
 30
0.0
 10
94.22221420155086
 20
-169.3475535634181
 30
0.0
 10
94.22221420155086
 20
-169.3475535634181
 30
0.0
 10
94.22221420155086
 20
-169.3475535634181
 30
0.0
 10
92.77024067769962
 20
-168.7252791960531
 30
0.0
 10
92.77024067769962
 20
-168.7252791960531
 30
0.0
  0
SPLINE
  5
214
330
1F
100
AcDbEntity
  8
Layer 1
370
     0
100
AcDbSpline
210
0.0
220
0.0
230
1.0
 70
    11
 71
     3
 72
    14
 73
    10
 74
     0
 42
0.0000000001
 43
0.0000000001
 12
1.0
 22
0.0
 32
0.0
 13
1.0
 23
0.0
 33
0.0
 40
0.0
 40
0.0
 40
0.0
 40
0.0
 40
1.0
 40
1.0
 40
1.0
 40
2.0
 40
2.0
 40
2.0
 40
3.0
 40
3.0
 40
3.0
 40
3.0
 10
104.5934536576311
 20
-161.0505619985538
 30
0.0
 10
104.5934536576311
 20
-161.0505619985538
 30
0.0
 10
105.2157280249957
 20
-165.4064825701075
 30
0.0
 10
108.3270998618201
 20
-164.3693586244994
 30
0.0
 10
108.3270998618201
 20
-164.3693586244994
 30
0.0
 10
110.401347753036
 20
-161.6728363659188
 30
0.0
 10
110.401347753036
 20
-161.6728363659188
 30
0.0
 10
110.401347753036
 20
-161.6728363659188
 30
0.0
 10
105.0083032358742
 20
-161.8802611550404
 30
0.0
 10
104.5934536576311
 20
-161.0505619985538
 30
0.0
  0
SPLINE
  5
215
330
1F
100
AcDbEntity
  8
Layer 1
370
     0
100
AcDbSpline
210
0.0
220
0.0
230
1.0
 70
    11
 71
     3
 72
    17
 73
    13
 74
     0
 42
0.0000000001
 43
0.0000000001
 12
1.0
 22
0.0
 32
0.0
 13
1.0
 23
0.0
 33
0.0
 40
0.0
 40
0.0
 40
0.0
 40
0.0
 40
1.0
 40
1.0
 40
1.0
 40
2.0
 40
2.0
 40
2.0
 40
3.0
 40
3.0
 40
3.0
 40
4.0
 40
4.0
 40
4.0
 40
4.0
 10
112.26817085513
 20
-159.1837388964594
 30
0.0
 10
111.2373902347501
 20
-159.2982700765017
 30
0.0
 10
109.3642238074279
 20
-154.8278183249057
 30
0.0
 10
109.3642238074279
 20
-154.8278183249057
 30
0.0
 10
109.3642238074279
 20
-154.8278183249057
 30
0.0
 10
109.3642238074279
 20
-151.5090216989601
 30
0.0
 10
109.3642238074279
 20
-151.5090216989601
 30
0.0
 10
109.3642238074279
 20
-151.5090216989601
 30
0.0
 10
114.7572683245897
 20
-154.2055439575411
 30
0.0
 10
114.7572683245897
 20
-154.2055439575411
 30
0.0
 10
114.7572683245897
 20
-154.2055439575411
 30
0.0
 10
114.1349939572247
 20
-158.9763141073379
 30
0.0
 10
112.26817085513
 20
-159.1837388964594
 30
0.0
  0
SPLINE
  5
216
330
1F
100
AcDbEntity
  8
Layer 1
370
     0
100
AcDbSpline
210
0.0
220
0.0
230
1.0
 70
    11
 71
     3
 72
    14
 73
    10
 74
     0
 42
0.0000000001
 43
0.0000000001
 12
1.0
 22
0.0
 32
0.0
 13
1.0
 23
0.0
 33
0.0
 40
0.0
 40
0.0
 40
0.0
 40
0.0
 40
1.0
 40
1.0
 40
1.0
 40
2.0
 40
2.0
 40
2.0
 40
3.0
 40
3.0
 40
3.0
 40
3.0
 10
96.08903730364521
 20
-167.6881552504456
 30
0.0
 10
96.08903730364521
 20
-167.6881552504456
 30
0.0
 10
95.88161251452365
 20
-170.5921022981478
 30
0.0
 10
95.88161251452365
 20
-170.5921022981478
 30
0.0
 10
95.88161251452365
 20
-170.5921022981478
 30
0.0
 10
97.54101082749645
 20
-171.421801454634
 30
0.0
 10
97.95586040573988
 20
-169.7624031416612
 30
0.0
 10
98.370709983983
 20
-168.1030048286884
 30
0.0
 10
96.08903730364521
 20
-167.6881552504456
 30
0.0
 10
96.08903730364521
 20
-167.6881552504456
 30
0.0
  0
SPLINE
  5
217
330
1F
100
AcDbEntity
  8
Layer 1
370
     0
100
AcDbSpline
210
0.0
220
0.0
230
1.0
 70
    11
 71
     3
 72
    14
 73
    10
 74
     0
 42
0.0000000001
 43
0.0000000001
 12
1.0
 22
0.0
 32
0.0
 13
1.0
 23
0.0
 33
0.0
 40
0.0
 40
0.0
 40
0.0
 40
0.0
 40
1.0
 40
1.0
 40
1.0
 40
2.0
 40
2.0
 40
2.0
 40
3.0
 40
3.0
 40
3.0
 40
3.0
 10
97.12616124925333
 20
-162.0876859441619
 30
0.0
 10
97.12616124925333
 20
-162.0876859441619
 30
0.0
 10
96.71131167101053
 20
-168.1030048286884
 30
0.0
 10
101.0672322425639
 20
-169.5549783525396
 30
0.0
 10
101.0672322425639
 20
-169.5549783525396
 30
0.0
 10
104.5934536576311
 20
-167.0658808830803
 30
0.0
 10
104.5934536576311
 20
-167.0658808830803
 30
0.0
 10
104.5934536576311
 20
-167.0658808830803
 30
0.0
 10
97.12616124925333
 20
-162.0876859441619
 30
0.0
 10
97.12616124925333
 20
-162.0876859441619
 30
0.0
  0
SPLINE
  5
218
330
1F
100
AcDbEntity
  8
Layer 1
370
     0
100
AcDbSpline
210
0.0
220
0.0
230
1.0
 70
    11
 71
     3
 72
    14
 73
    10
 74
     0
 42
0.0000000001
 43
0.0000000001
 12
1.0
 22
0.0
 32
0.0
 13
1.0
 23
0.0
 33
0.0
 40
0.0
 40
0.0
 40
0.0
 40
0.0
 40
1.0
 40
1.0
 40
1.0
 40
2.0
 40
2.0
 40
2.0
 40
3.0
 40
3.0
 40
3.0
 40
3.0
 10
115.3795426919544
 20
-151.094172120717
 30
0.0
 10
114.0177322346426
 20
-151.6388963036417
 30
0.0
 10
113.7201443789816
 20
-148.1902250730146
 30
0.0
 10
113.7201443789816
 20
-148.1902250730146
 30
0.0
 10
113.7201443789816
 20
-148.1902250730146
 30
0.0
 10
116.4166666375625
 20
-149.0199242295011
 30
0.0
 10
116.4166666375625
 20
-149.0199242295011
 30
0.0
 10
116.4166666375625
 20
-149.0199242295011
 30
0.0
 10
116.4166666375625
 20
-150.6793225424736
 30
0.0
 10
115.3795426919544
 20
-151.094172120717
 30
0.0
  0
SPLINE
  5
219
330
1F
100
AcDbEntity
  8
Layer 1
370
     0
100
AcDbSpline
210
0.0
220
0.0
230
1.0
 70
    11
 71
     3
 72
    14
 73
    10
 74
     0
 42
0.0000000001
 43
0.0000000001
 12
1.0
 22
0.0
 32
0.0
 13
1.0
 23
0.0
 33
0.0
 40
0.0
 40
0.0
 40
0.0
 40
0.0
 40
1.0
 40
1.0
 40
1.0
 40
2.0
 40
2.0
 40
2.0
 40
3.0
 40
3.0
 40
3.0
 40
3.0
 10
113.9275691681031
 20
-141.9674813993662
 30
0.0
 10
113.9275691681031
 20
-141.9674813993662
 30
0.0
 10
116.0018170593194
 20
-141.7600566102446
 30
0.0
 10
116.0018170593194
 20
-141.7600566102446
 30
0.0
 10
116.0018170593194
 20
-141.7600566102446
 30
0.0
 10
116.4166666375625
 20
-144.4565788688255
 30
0.0
 10
116.4166666375625
 20
-144.4565788688255
 30
0.0
 10
116.4166666375625
 20
-144.4565788688255
 30
0.0
 10
114.1349939572247
 20
-143.8343045014612
 30
0.0
 10
113.9275691681031
 20
-141.9674813993662
 30
0.0
  0
SPLINE
  5
21A
330
1F
100
AcDbEntity
  8
Layer 1
370
     0
100
AcDbSpline
210
0.0
220
0.0
230
1.0
 70
    11
 71
     3
 72
    20
 73
    16
 74
     0
 42
0.0000000001
 43
0.0000000001
 12
1.0
 22
0.0
 32
0.0
 13
1.0
 23
0.0
 33
0.0
 40
0.0
 40
0.0
 40
0.0
 40
0.0
 40
1.0
 40
1.0
 40
1.0
 40
2.0
 40
2.0
 40
2.0
 40
3.0
 40
3.0
 40
3.0
 40
4.0
 40
4.0
 40
4.0
 40
5.0
 40
5.0
 40
5.0
 40
5.0
 10
113.7201443789816
 20
-133.8779146236238
 30
0.0
 10
113.9127334607931
 20
-133.9549502563482
 30
0.0
 10
115.7943922701978
 20
-138.6486847734206
 30
0.0
 10
115.7943922701978
 20
-138.6486847734206
 30
0.0
 10
115.7943922701978
 20
-138.6486847734206
 30
0.0
 10
113.9275691681031
 20
-138.0264104060559
 30
0.0
 10
113.9275691681031
 20
-138.0264104060559
 30
0.0
 10
113.9275691681031
 20
-138.0264104060559
 30
0.0
 10
112.8904452224954
 20
-139.8932335081503
 30
0.0
 10
112.8904452224954
 20
-139.8932335081503
 30
0.0
 10
112.8904452224954
 20
-139.8932335081503
 30
0.0
 10
110.1939229639144
 20
-140.9303574537584
 30
0.0
 10
110.1939229639144
 20
-140.9303574537584
 30
0.0
 10
110.1939229639144
 20
-140.9303574537584
 30
0.0
 10
112.6830204333738
 20
-133.4630650453807
 30
0.0
 10
113.7201443789816
 20
-133.8779146236238
 30
0.0
  0
SPLINE
  5
21B
330
1F
100
AcDbEntity
  8
Layer 1
370
     0
100
AcDbSpline
210
0.0
220
0.0
230
1.0
 70
     8
 71
     3
 72
    68
 73
    64
 74
     0
 42
0.0000000001
 43
0.0000000001
 12
1.0
 22
0.0
 32
0.0
 13
1.0
 23
0.0
 33
0.0
 40
0.0
 40
0.0
 40
0.0
 40
0.0
 40
1.0
 40
1.0
 40
1.0
 40
2.0
 40
2.0
 40
2.0
 40
3.0
 40
3.0
 40
3.0
 40
4.0
 40
4.0
 40
4.0
 40
5.0
 40
5.0
 40
5.0
 40
6.0
 40
6.0
 40
6.0
 40
7.0
 40
7.0
 40
7.0
 40
8.0
 40
8.0
 40
8.0
 40
9.0
 40
9.0
 40
9.0
 40
10.0
 40
10.0
 40
10.0
 40
11.0
 40
11.0
 40
11.0
 40
12.0
 40
12.0
 40
12.0
 40
13.0
 40
13.0
 40
13.0
 40
14.0
 40
14.0
 40
14.0
 40
15.0
 40
15.0
 40
15.0
 40
16.0
 40
16.0
 40
16.0
 40
17.0
 40
17.0
 40
17.0
 40
18.0
 40
18.0
 40
18.0
 40
19.0
 40
19.0
 40
19.0
 40
20.0
 40
20.0
 40
20.0
 40
21.0
 40
21.0
 40
21.0
 40
21.0
 10
195.7241391626739
 20
-43.03888887841312
 30
0.0
 10
195.7241391626739
 20
-43.03888887841312
 30
0.0
 10
195.7241391626739
 20
-46.95823925402885
 30
0.0
 10
193.1112389122632
 20
-49.13565612937131
 30
0.0
 10
193.1112389122632
 20
-49.13565612937131
 30
0.0
 10
192.6757555371953
 20
-50.00662287950777
 30
0.0
 10
192.6757555371953
 20
-50.00662287950777
 30
0.0
 10
192.6757555371953
 20
-50.00662287950777
 30
0.0
 10
193.5467222873321
 20
-50.00662287950777
 30
0.0
 10
193.5467222873321
 20
-50.00662287950777
 30
0.0
 10
193.5467222873321
 20
-50.00662287950777
 30
0.0
 10
193.5467222873321
 20
-50.87758962964425
 30
0.0
 10
193.5467222873321
 20
-50.87758962964425
 30
0.0
 10
193.5467222873321
 20
-50.87758962964425
 30
0.0
 10
190.9338220369224
 20
-55.23242338032917
 30
0.0
 10
189.6273719117164
 20
-54.79694000526029
 30
0.0
 10
189.6273719117164
 20
-54.79694000526029
 30
0.0
 10
189.1918885366475
 20
-53.49048988005494
 30
0.0
 10
189.1918885366475
 20
-53.49048988005494
 30
0.0
 10
189.1918885366475
 20
-53.49048988005494
 30
0.0
 10
183.5306046607582
 20
-60.45822388115056
 30
0.0
 10
183.9660880358264
 20
-53.05500650498671
 30
0.0
 10
183.9660880358264
 20
-53.05500650498671
 30
0.0
 10
180.0467376602107
 20
-58.2808070058081
 30
0.0
 10
185.7080215361003
 20
-58.71629038087666
 30
0.0
 10
185.7080215361003
 20
-58.71629038087666
 30
0.0
 10
187.4499550363742
 20
-56.5388735055342
 30
0.0
 10
193.5467222873321
 20
-55.23242338032917
 30
0.0
 10
193.5467222873321
 20
-55.23242338032917
 30
0.0
 10
196.1596225377431
 20
-57.40984025567163
 30
0.0
 10
194.4176890374689
 20
-58.71629038087666
 30
0.0
 10
194.4176890374689
 20
-58.71629038087666
 30
0.0
 10
191.8047887870575
 20
-64.37757425676597
 30
0.0
 10
188.7564051615786
 20
-62.63564075649206
 30
0.0
 10
188.7564051615786
 20
-62.63564075649206
 30
0.0
 10
188.7564051615786
 20
-64.37757425676597
 30
0.0
 10
187.4499550363736
 20
-64.81305763183452
 30
0.0
 10
187.4499550363736
 20
-64.81305763183452
 30
0.0
 10
182.6596379106207
 20
-64.81305763183452
 30
0.0
 10
182.6596379106207
 20
-64.81305763183452
 30
0.0
 10
182.6596379106207
 20
-64.81305763183452
 30
0.0
 10
184.4015714108947
 20
-67.4259578822449
 30
0.0
 10
187.4499550363736
 20
-66.55499113210843
 30
0.0
 10
190.4983386618525
 20
-65.68402438197164
 30
0.0
 10
193.1112389122632
 20
-63.50660750662949
 30
0.0
 10
193.1112389122632
 20
-63.50660750662949
 30
0.0
 10
193.1112389122632
 20
-63.50660750662949
 30
0.0
 10
192.6757555371953
 20
-67.4259578822449
 30
0.0
 10
194.8531724125371
 20
-67.4259578822449
 30
0.0
 10
197.0305892878789
 20
-67.4259578822449
 30
0.0
 10
192.6757555371953
 20
-69.60337475758736
 30
0.0
 10
192.6757555371953
 20
-69.60337475758736
 30
0.0
 10
192.6757555371953
 20
-69.60337475758736
 30
0.0
 10
190.9338220369214
 20
-69.16789138251848
 30
0.0
 10
190.9338220369214
 20
-69.16789138251848
 30
0.0
 10
190.9338220369214
 20
-69.16789138251848
 30
0.0
 10
190.9338220369214
 20
-70.90982488279238
 30
0.0
 10
190.9338220369214
 20
-70.90982488279238
 30
0.0
 10
190.9338220369214
 20
-70.90982488279238
 30
0.0
 10
187.0144716613057
 20
-72.6517583830663
 30
0.0
 10
186.1435049111685
 20
-71.78079163292949
 30
0.0
 10
186.1435049111685
 20
-71.78079163292949
 30
0.0
 10
188.320921786511
 20
-76.57110875868233
 30
0.0
 10
194.8531724125371
 20
-70.03885813265559
 30
0.0
  0
POLYLINE
  5
21C
330
1F
100
AcDbEntity
  8
Layer 1
370
     0
100
AcDb2dPolyline
 66
     1
 10
0.0
 20
0.0
 30
0.0
  0
VERTEX
  5
21D
330
21C
100
AcDbEntity
  8
Layer 1
370
     0
100
AcDbVertex
100
AcDb2dVertex
 10
194.8531724125371
 20
-70.03885813265559
 30
0.0
  0
VERTEX
  5
21E
330
21C
100
AcDbEntity
  8
Layer 1
370
     0
100
AcDbVertex
100
AcDb2dVertex
 10
195.2886557876054
 20
-72.21627500799774
 30
0.0
  0
VERTEX
  5
21F
330
21C
100
AcDbEntity
  8
Layer 1
370
     0
100
AcDbVertex
100
AcDb2dVertex
 10
193.5467222873321
 20
-73.95820850827164
 30
0.0
  0
VERTEX
  5
220
330
21C
100
AcDbEntity
  8
Layer 1
370
     0
100
AcDbVertex
100
AcDb2dVertex
 10
194.8531724125365
 20
-78.74852563402415
 30
0.0
  0
VERTEX
  5
221
330
21C
100
AcDbEntity
  8
Layer 1
370
     0
100
AcDbVertex
100
AcDb2dVertex
 10
195.288655787605
 20
-83.53884275977698
 30
0.0
  0
VERTEX
  5
222
330
21C
100
AcDbEntity
  8
Layer 1
370
     0
100
AcDbVertex
100
AcDb2dVertex
 10
193.9822056624
 20
-85.2807762600509
 30
0.0
  0
VERTEX
  5
223
330
21C
100
AcDbEntity
  8
Layer 1
370
     0
100
AcDbVertex
100
AcDb2dVertex
 10
195.6951931471232
 20
-90.76233621116585
 30
0.0
  0
SEQEND
  5
224
330
21C
100
AcDbEntity
  8
Layer 1
370
     0
  0
SPLINE
  5
225
330
1F
100
AcDbEntity
  8
Layer 1
370
     0
100
AcDbSpline
210
0.0
220
0.0
230
1.0
 70
     8
 71
     3
 72
    68
 73
    64
 74
     0
 42
0.0000000001
 43
0.0000000001
 12
1.0
 22
0.0
 32
0.0
 13
1.0
 23
0.0
 33
0.0
 40
0.0
 40
0.0
 40
0.0
 40
0.0
 40
1.0
 40
1.0
 40
1.0
 40
2.0
 40
2.0
 40
2.0
 40
3.0
 40
3.0
 40
3.0
 40
4.0
 40
4.0
 40
4.0
 40
5.0
 40
5.0
 40
5.0
 40
6.0
 40
6.0
 40
6.0
 40
7.0
 40
7.0
 40
7.0
 40
8.0
 40
8.0
 40
8.0
 40
9.0
 40
9.0
 40
9.0
 40
10.0
 40
10.0
 40
10.0
 40
11.0
 40
11.0
 40
11.0
 40
12.0
 40
12.0
 40
12.0
 40
13.0
 40
13.0
 40
13.0
 40
14.0
 40
14.0
 40
14.0
 40
15.0
 40
15.0
 40
15.0
 40
16.0
 40
16.0
 40
16.0
 40
17.0
 40
17.0
 40
17.0
 40
18.0
 40
18.0
 40
18.0
 40
19.0
 40
19.0
 40
19.0
 40
20.0
 40
20.0
 40
20.0
 40
21.0
 40
21.0
 40
21.0
 40
21.0
 10
195.7241391629874
 20
-43.03888887812917
 30
0.0
 10
195.7241391629874
 20
-43.03888887812917
 30
0.0
 10
195.7241391628103
 20
-46.95823925374489
 30
0.0
 10
198.3370394131241
 20
-49.13565612920446
 30
0.0
 10
198.3370394131241
 20
-49.13565612920446
 30
0.0
 10
198.7725227881528
 20
-50.00662287936083
 30
0.0
 10
198.7725227881528
 20
-50.00662287936083
 30
0.0
 10
198.7725227881528
 20
-50.00662287936083
 30
0.0
 10
197.9015560380161
 20
-50.00662287932168
 30
0.0
 10
197.9015560380161
 20
-50.00662287932168
 30
0.0
 10
197.9015560380161
 20
-50.00662287932168
 30
0.0
 10
197.9015560379766
 20
-50.8775896294588
 30
0.0
 10
197.9015560379766
 20
-50.8775896294588
 30
0.0
 10
197.9015560379766
 20
-50.8775896294588
 30
0.0
 10
200.5144562881919
 20
-55.23242338026019
 30
0.0
 10
201.8209064134165
 20
-54.79694000525034
 30
0.0
 10
201.8209064134165
 20
-54.79694000525034
 30
0.0
 10
202.2563897885431
 20
-53.49048988006489
 30
0.0
 10
202.2563897885431
 20
-53.49048988006489
 30
0.0
 10
202.2563897885431
 20
-53.49048988006489
 30
0.0
 10
207.9176736641196
 20
-60.45822388141366
 30
0.0
 10
207.4821902893844
 20
-53.05500650523055
 30
0.0
 10
207.4821902893844
 20
-53.05500650523055
 30
0.0
 10
211.4015406647653
 20
-58.28080700622777
 30
0.0
 10
205.740256788857
 20
-58.71629038104253
 30
0.0
 10
205.740256788857
 20
-58.71629038104253
 30
0.0
 10
203.99832328868
 20
-56.53887350562211
 30
0.0
 10
197.9015560377815
 20
-55.23242338014276
 30
0.0
 10
197.9015560377815
 20
-55.23242338014276
 30
0.0
 10
195.2886557872723
 20
-57.4098402553681
 30
0.0
 10
197.0305892874881
 20
-58.7162903806511
 30
0.0
 10
197.0305892874881
 20
-58.7162903806511
 30
0.0
 10
199.6434895376444
 20
-64.37757425665848
 30
0.0
 10
202.6918731632016
 20
-62.63564075652094
 30
0.0
 10
202.6918731632016
 20
-62.63564075652094
 30
0.0
 10
202.6918731631233
 20
-64.37757425679484
 30
0.0
 10
203.9983232883088
 20
-64.8130576319221
 30
0.0
 10
203.9983232883088
 20
-64.8130576319221
 30
0.0
 10
208.7886404140616
 20
-64.81305763213709
 30
0.0
 10
208.7886404140616
 20
-64.81305763213709
 30
0.0
 10
208.7886404140616
 20
-64.81305763213709
 30
0.0
 10
207.0467069136712
 20
-67.42595788246885
 30
0.0
 10
203.9983232882315
 20
-66.55499113219602
 30
0.0
 10
200.9499396627917
 20
-65.68402438192223
 30
0.0
 10
198.3370394124782
 20
-63.50660750646201
 30
0.0
 10
198.3370394124782
 20
-63.50660750646201
 30
0.0
 10
198.3370394124782
 20
-63.50660750646201
 30
0.0
 10
198.7725227873696
 20
-67.42595788209795
 30
0.0
 10
196.5951059120285
 20
-67.42595788200009
 30
0.0
 10
194.4176890366867
 20
-67.42595788190319
 30
0.0
 10
198.7725227872727
 20
-69.6033747574401
 30
0.0
 10
198.7725227872727
 20
-69.6033747574401
 30
0.0
 10
198.7725227872727
 20
-69.6033747574401
 30
0.0
 10
200.5144562875662
 20
-69.16789138244982
 30
0.0
 10
200.5144562875662
 20
-69.16789138244982
 30
0.0
 10
200.5144562875662
 20
-69.16789138244982
 30
0.0
 10
200.5144562874876
 20
-70.90982488272373
 30
0.0
 10
200.5144562874876
 20
-70.90982488272373
 30
0.0
 10
200.5144562874876
 20
-70.90982488272373
 30
0.0
 10
204.4338066630251
 20
-72.65175838317313
 30
0.0
 10
205.3047734132016
 20
-71.78079163307612
 30
0.0
 10
205.3047734132016
 20
-71.78079163307612
 30
0.0
 10
203.1273565376442
 20
-76.57110875872982
 30
0.0
 10
196.595105911911
 20
-70.03885813241111
 30
0.0
  0
POLYLINE
  5
226
330
1F
100
AcDbEntity
  8
Layer 1
370
     0
100
AcDb2dPolyline
 66
     1
 10
0.0
 20
0.0
 30
0.0
  0
VERTEX
  5
227
330
226
100
AcDbEntity
  8
Layer 1
370
     0
100
AcDbVertex
100
AcDb2dVertex
 10
196.595105911911
 20
-70.03885813241111
 30
0.0
  0
VERTEX
  5
228
330
226
100
AcDbEntity
  8
Layer 1
370
     0
100
AcDbVertex
100
AcDb2dVertex
 10
196.1596225367446
 20
-72.21627500773303
 30
0.0
  0
VERTEX
  5
229
330
226
100
AcDbEntity
  8
Layer 1
370
     0
100
AcDbVertex
100
AcDb2dVertex
 10
197.9015560369405
 20
-73.95820850808522
 30
0.0
  0
VERTEX
  5
22A
330
226
100
AcDbEntity
  8
Layer 1
370
     0
100
AcDbVertex
100
AcDb2dVertex
 10
196.5951059115206
 20
-78.74852563377934
 30
0.0
  0
VERTEX
  5
22B
330
226
100
AcDbEntity
  8
Layer 1
370
     0
100
AcDbVertex
100
AcDb2dVertex
 10
196.159622536237
 20
-83.53884275951229
 30
0.0
  0
VERTEX
  5
22C
330
226
100
AcDbEntity
  8
Layer 1
370
     0
100
AcDbVertex
100
AcDb2dVertex
 10
197.4660726613638
 20
-85.28077625984459
 30
0.0
  0
VERTEX
  5
22D
330
226
100
AcDbEntity
  8
Layer 1
370
     0
100
AcDbVertex
100
AcDb2dVertex
 10
195.7122169054358
 20
-90.89311467793027
 30
0.0
  0
SEQEND
  5
22E
330
226
100
AcDbEntity
  8
Layer 1
370
     0
  0
INSERT
  5
230
330
1F
100
AcDbEntity
  8
Layer 1
100
AcDbBlockReference
  2
block 35
 10
0.0
 20
0.0
 30
0.0
  0
SPLINE
  5
252
330
1F
100
AcDbEntity
  8
Layer 1
370
     0
100
AcDbSpline
210
0.0
220
0.0
230
1.0
 70
     8
 71
     3
 72
    68
 73
    64
 74
     0
 42
0.0000000001
 43
0.0000000001
 12
1.0
 22
0.0
 32
0.0
 13
1.0
 23
0.0
 33
0.0
 40
0.0
 40
0.0
 40
0.0
 40
0.0
 40
1.0
 40
1.0
 40
1.0
 40
2.0
 40
2.0
 40
2.0
 40
3.0
 40
3.0
 40
3.0
 40
4.0
 40
4.0
 40
4.0
 40
5.0
 40
5.0
 40
5.0
 40
6.0
 40
6.0
 40
6.0
 40
7.0
 40
7.0
 40
7.0
 40
8.0
 40
8.0
 40
8.0
 40
9.0
 40
9.0
 40
9.0
 40
10.0
 40
10.0
 40
10.0
 40
11.0
 40
11.0
 40
11.0
 40
12.0
 40
12.0
 40
12.0
 40
13.0
 40
13.0
 40
13.0
 40
14.0
 40
14.0
 40
14.0
 40
15.0
 40
15.0
 40
15.0
 40
16.0
 40
16.0
 40
16.0
 40
17.0
 40
17.0
 40
17.0
 40
18.0
 40
18.0
 40
18.0
 40
19.0
 40
19.0
 40
19.0
 40
20.0
 40
20.0
 40
20.0
 40
21.0
 40
21.0
 40
21.0
 40
21.0
 10
276.5102502535885
 20
-43.03888887841312
 30
0.0
 10
276.5102502535885
 20
-43.03888887841312
 30
0.0
 10
276.5102502535885
 20
-46.95823925402885
 30
0.0
 10
273.8973500031778
 20
-49.13565612937131
 30
0.0
 10
273.8973500031778
 20
-49.13565612937131
 30
0.0
 10
273.4618666281099
 20
-50.00662287950777
 30
0.0
 10
273.4618666281099
 20
-50.00662287950777
 30
0.0
 10
273.4618666281099
 20
-50.00662287950777
 30
0.0
 10
274.3328333782467
 20
-50.00662287950777
 30
0.0
 10
274.3328333782467
 20
-50.00662287950777
 30
0.0
 10
274.3328333782467
 20
-50.00662287950777
 30
0.0
 10
274.3328333782467
 20
-50.87758962964425
 30
0.0
 10
274.3328333782467
 20
-50.87758962964425
 30
0.0
 10
274.3328333782467
 20
-50.87758962964425
 30
0.0
 10
271.719933127837
 20
-55.23242338032917
 30
0.0
 10
270.4134830026309
 20
-54.79694000526029
 30
0.0
 10
270.4134830026309
 20
-54.79694000526029
 30
0.0
 10
269.9779996275621
 20
-53.49048988005494
 30
0.0
 10
269.9779996275621
 20
-53.49048988005494
 30
0.0
 10
269.9779996275621
 20
-53.49048988005494
 30
0.0
 10
264.3167157516727
 20
-60.45822388115056
 30
0.0
 10
264.752199126741
 20
-53.05500650498671
 30
0.0
 10
264.752199126741
 20
-53.05500650498671
 30
0.0
 10
260.8328487511253
 20
-58.2808070058081
 30
0.0
 10
266.4941326270149
 20
-58.71629038087666
 30
0.0
 10
266.4941326270149
 20
-58.71629038087666
 30
0.0
 10
268.2360661272888
 20
-56.5388735055342
 30
0.0
 10
274.3328333782467
 20
-55.23242338032917
 30
0.0
 10
274.3328333782467
 20
-55.23242338032917
 30
0.0
 10
276.9457336286577
 20
-57.40984025567163
 30
0.0
 10
275.2038001283835
 20
-58.71629038087666
 30
0.0
 10
275.2038001283835
 20
-58.71629038087666
 30
0.0
 10
272.5908998779721
 20
-64.37757425676597
 30
0.0
 10
269.5425162524932
 20
-62.63564075649206
 30
0.0
 10
269.5425162524932
 20
-62.63564075649206
 30
0.0
 10
269.5425162524932
 20
-64.37757425676597
 30
0.0
 10
268.2360661272882
 20
-64.81305763183452
 30
0.0
 10
268.2360661272882
 20
-64.81305763183452
 30
0.0
 10
263.4457490015353
 20
-64.81305763183452
 30
0.0
 10
263.4457490015353
 20
-64.81305763183452
 30
0.0
 10
263.4457490015353
 20
-64.81305763183452
 30
0.0
 10
265.1876825018093
 20
-67.4259578822449
 30
0.0
 10
268.2360661272882
 20
-66.55499113210843
 30
0.0
 10
271.2844497527671
 20
-65.68402438197164
 30
0.0
 10
273.8973500031778
 20
-63.50660750662949
 30
0.0
 10
273.8973500031778
 20
-63.50660750662949
 30
0.0
 10
273.8973500031778
 20
-63.50660750662949
 30
0.0
 10
273.4618666281099
 20
-67.4259578822449
 30
0.0
 10
275.6392835034517
 20
-67.4259578822449
 30
0.0
 10
277.8167003787935
 20
-67.4259578822449
 30
0.0
 10
273.4618666281099
 20
-69.60337475758736
 30
0.0
 10
273.4618666281099
 20
-69.60337475758736
 30
0.0
 10
273.4618666281099
 20
-69.60337475758736
 30
0.0
 10
271.719933127836
 20
-69.16789138251848
 30
0.0
 10
271.719933127836
 20
-69.16789138251848
 30
0.0
 10
271.719933127836
 20
-69.16789138251848
 30
0.0
 10
271.719933127836
 20
-70.90982488279238
 30
0.0
 10
271.719933127836
 20
-70.90982488279238
 30
0.0
 10
271.719933127836
 20
-70.90982488279238
 30
0.0
 10
267.8005827522202
 20
-72.6517583830663
 30
0.0
 10
266.9296160020832
 20
-71.78079163292949
 30
0.0
 10
266.9296160020832
 20
-71.78079163292949
 30
0.0
 10
269.1070328774256
 20
-76.57110875868233
 30
0.0
 10
275.6392835034517
 20
-70.03885813265559
 30
0.0
  0
POLYLINE
  5
253
330
1F
100
AcDbEntity
  8
Layer 1
370
     0
100
AcDb2dPolyline
 66
     1
 10
0.0
 20
0.0
 30
0.0
  0
VERTEX
  5
254
330
253
100
AcDbEntity
  8
Layer 1
370
     0
100
AcDbVertex
100
AcDb2dVertex
 10
275.6392835034517
 20
-70.03885813265559
 30
0.0
  0
VERTEX
  5
255
330
253
100
AcDbEntity
  8
Layer 1
370
     0
100
AcDbVertex
100
AcDb2dVertex
 10
276.0747668785199
 20
-72.21627500799774
 30
0.0
  0
VERTEX
  5
256
330
253
100
AcDbEntity
  8
Layer 1
370
     0
100
AcDbVertex
100
AcDb2dVertex
 10
274.3328333782467
 20
-73.95820850827164
 30
0.0
  0
VERTEX
  5
257
330
253
100
AcDbEntity
  8
Layer 1
370
     0
100
AcDbVertex
100
AcDb2dVertex
 10
275.6392835034511
 20
-78.74852563402415
 30
0.0
  0
VERTEX
  5
258
330
253
100
AcDbEntity
  8
Layer 1
370
     0
100
AcDbVertex
100
AcDb2dVertex
 10
276.0747668785196
 20
-83.53884275977698
 30
0.0
  0
VERTEX
  5
259
330
253
100
AcDbEntity
  8
Layer 1
370
     0
100
AcDbVertex
100
AcDb2dVertex
 10
274.7683167533146
 20
-85.2807762600509
 30
0.0
  0
VERTEX
  5
25A
330
253
100
AcDbEntity
  8
Layer 1
370
     0
100
AcDbVertex
100
AcDb2dVertex
 10
276.4813042380378
 20
-90.76233621116585
 30
0.0
  0
SEQEND
  5
25B
330
253
100
AcDbEntity
  8
Layer 1
370
     0
  0
SPLINE
  5
25C
330
1F
100
AcDbEntity
  8
Layer 1
370
     0
100
AcDbSpline
210
0.0
220
0.0
230
1.0
 70
     8
 71
     3
 72
    68
 73
    64
 74
     0
 42
0.0000000001
 43
0.0000000001
 12
1.0
 22
0.0
 32
0.0
 13
1.0
 23
0.0
 33
0.0
 40
0.0
 40
0.0
 40
0.0
 40
0.0
 40
1.0
 40
1.0
 40
1.0
 40
2.0
 40
2.0
 40
2.0
 40
3.0
 40
3.0
 40
3.0
 40
4.0
 40
4.0
 40
4.0
 40
5.0
 40
5.0
 40
5.0
 40
6.0
 40
6.0
 40
6.0
 40
7.0
 40
7.0
 40
7.0
 40
8.0
 40
8.0
 40
8.0
 40
9.0
 40
9.0
 40
9.0
 40
10.0
 40
10.0
 40
10.0
 40
11.0
 40
11.0
 40
11.0
 40
12.0
 40
12.0
 40
12.0
 40
13.0
 40
13.0
 40
13.0
 40
14.0
 40
14.0
 40
14.0
 40
15.0
 40
15.0
 40
15.0
 40
16.0
 40
16.0
 40
16.0
 40
17.0
 40
17.0
 40
17.0
 40
18.0
 40
18.0
 40
18.0
 40
19.0
 40
19.0
 40
19.0
 40
20.0
 40
20.0
 40
20.0
 40
21.0
 40
21.0
 40
21.0
 40
21.0
 10
276.510250253902
 20
-43.03888887812917
 30
0.0
 10
276.510250253902
 20
-43.03888887812917
 30
0.0
 10
276.5102502537248
 20
-46.95823925374489
 30
0.0
 10
279.123150504039
 20
-49.13565612920446
 30
0.0
 10
279.123150504039
 20
-49.13565612920446
 30
0.0
 10
279.5586338790674
 20
-50.00662287936083
 30
0.0
 10
279.5586338790674
 20
-50.00662287936083
 30
0.0
 10
279.5586338790674
 20
-50.00662287936083
 30
0.0
 10
278.6876671289306
 20
-50.00662287932168
 30
0.0
 10
278.6876671289306
 20
-50.00662287932168
 30
0.0
 10
278.6876671289306
 20
-50.00662287932168
 30
0.0
 10
278.6876671288912
 20
-50.8775896294588
 30
0.0
 10
278.6876671288912
 20
-50.8775896294588
 30
0.0
 10
278.6876671288912
 20
-50.8775896294588
 30
0.0
 10
281.3005673791065
 20
-55.23242338026019
 30
0.0
 10
282.6070175043311
 20
-54.79694000525034
 30
0.0
 10
282.6070175043311
 20
-54.79694000525034
 30
0.0
 10
283.0425008794577
 20
-53.49048988006489
 30
0.0
 10
283.0425008794577
 20
-53.49048988006489
 30
0.0
 10
283.0425008794577
 20
-53.49048988006489
 30
0.0
 10
288.7037847550342
 20
-60.45822388141366
 30
0.0
 10
288.268301380299
 20
-53.05500650523055
 30
0.0
 10
288.268301380299
 20
-53.05500650523055
 30
0.0
 10
292.1876517556798
 20
-58.28080700622777
 30
0.0
 10
286.5263678797716
 20
-58.71629038104253
 30
0.0
 10
286.5263678797716
 20
-58.71629038104253
 30
0.0
 10
284.7844343795946
 20
-56.53887350562211
 30
0.0
 10
278.6876671286961
 20
-55.23242338014276
 30
0.0
 10
278.6876671286961
 20
-55.23242338014276
 30
0.0
 10
276.0747668781869
 20
-57.4098402553681
 30
0.0
 10
277.8167003784027
 20
-58.7162903806511
 30
0.0
 10
277.8167003784027
 20
-58.7162903806511
 30
0.0
 10
280.429600628559
 20
-64.37757425665848
 30
0.0
 10
283.4779842541162
 20
-62.63564075652094
 30
0.0
 10
283.4779842541162
 20
-62.63564075652094
 30
0.0
 10
283.4779842540379
 20
-64.37757425679484
 30
0.0
 10
284.7844343792234
 20
-64.8130576319221
 30
0.0
 10
284.7844343792234
 20
-64.8130576319221
 30
0.0
 10
289.5747515049762
 20
-64.81305763213709
 30
0.0
 10
289.5747515049762
 20
-64.81305763213709
 30
0.0
 10
289.5747515049762
 20
-64.81305763213709
 30
0.0
 10
287.8328180045858
 20
-67.42595788246885
 30
0.0
 10
284.784434379146
 20
-66.55499113219602
 30
0.0
 10
281.7360507537063
 20
-65.68402438192223
 30
0.0
 10
279.1231505033928
 20
-63.50660750646201
 30
0.0
 10
279.1231505033928
 20
-63.50660750646201
 30
0.0
 10
279.1231505033928
 20
-63.50660750646201
 30
0.0
 10
279.5586338782842
 20
-67.42595788209795
 30
0.0
 10
277.3812170029431
 20
-67.42595788200009
 30
0.0
 10
275.2038001276013
 20
-67.42595788190319
 30
0.0
 10
279.5586338781873
 20
-69.6033747574401
 30
0.0
 10
279.5586338781873
 20
-69.6033747574401
 30
0.0
 10
279.5586338781873
 20
-69.6033747574401
 30
0.0
 10
281.3005673784808
 20
-69.16789138244982
 30
0.0
 10
281.3005673784808
 20
-69.16789138244982
 30
0.0
 10
281.3005673784808
 20
-69.16789138244982
 30
0.0
 10
281.3005673784022
 20
-70.90982488272373
 30
0.0
 10
281.3005673784022
 20
-70.90982488272373
 30
0.0
 10
281.3005673784022
 20
-70.90982488272373
 30
0.0
 10
285.2199177539396
 20
-72.65175838317313
 30
0.0
 10
286.0908845041162
 20
-71.78079163307612
 30
0.0
 10
286.0908845041162
 20
-71.78079163307612
 30
0.0
 10
283.9134676285588
 20
-76.57110875872982
 30
0.0
 10
277.3812170028256
 20
-70.03885813241111
 30
0.0
  0
POLYLINE
  5
25D
330
1F
100
AcDbEntity
  8
Layer 1
370
     0
100
AcDb2dPolyline
 66
     1
 10
0.0
 20
0.0
 30
0.0
  0
VERTEX
  5
25E
330
25D
100
AcDbEntity
  8
Layer 1
370
     0
100
AcDbVertex
100
AcDb2dVertex
 10
277.3812170028256
 20
-70.03885813241111
 30
0.0
  0
VERTEX
  5
25F
330
25D
100
AcDbEntity
  8
Layer 1
370
     0
100
AcDbVertex
100
AcDb2dVertex
 10
276.9457336276592
 20
-72.21627500773303
 30
0.0
  0
VERTEX
  5
260
330
25D
100
AcDbEntity
  8
Layer 1
370
     0
100
AcDbVertex
100
AcDb2dVertex
 10
278.6876671278551
 20
-73.95820850808522
 30
0.0
  0
VERTEX
  5
261
330
25D
100
AcDbEntity
  8
Layer 1
370
     0
100
AcDbVertex
100
AcDb2dVertex
 10
277.3812170024352
 20
-78.74852563377934
 30
0.0
  0
VERTEX
  5
262
330
25D
100
AcDbEntity
  8
Layer 1
370
     0
100
AcDbVertex
100
AcDb2dVertex
 10
276.9457336271516
 20
-83.53884275951229
 30
0.0
  0
VERTEX
  5
263
330
25D
100
AcDbEntity
  8
Layer 1
370
     0
100
AcDbVertex
100
AcDb2dVertex
 10
278.2521837522784
 20
-85.28077625984459
 30
0.0
  0
VERTEX
  5
264
330
25D
100
AcDbEntity
  8
Layer 1
370
     0
100
AcDbVertex
100
AcDb2dVertex
 10
276.4983279963504
 20
-90.89311467793027
 30
0.0
  0
SEQEND
  5
265
330
25D
100
AcDbEntity
  8
Layer 1
370
     0
  0
SPLINE
  5
266
330
1F
100
AcDbEntity
  8
Layer 1
370
     0
100
AcDbSpline
210
0.0
220
0.0
230
1.0
 70
    11
 71
     3
 72
    29
 73
    25
 74
     0
 42
0.0000000001
 43
0.0000000001
 12
1.0
 22
0.0
 32
0.0
 13
1.0
 23
0.0
 33
0.0
 40
0.0
 40
0.0
 40
0.0
 40
0.0
 40
1.0
 40
1.0
 40
1.0
 40
2.0
 40
2.0
 40
2.0
 40
3.0
 40
3.0
 40
3.0
 40
4.0
 40
4.0
 40
4.0
 40
5.0
 40
5.0
 40
5.0
 40
6.0
 40
6.0
 40
6.0
 40
7.0
 40
7.0
 40
7.0
 40
8.0
 40
8.0
 40
8.0
 40
8.0
 10
132.7407498433898
 20
-70.41127080360287
 30
0.0
 10
133.9928505556461
 20
-66.65496866683243
 30
0.0
 10
136.8150315545631
 20
-68.37412994801608
 30
0.0
 10
136.8150315545631
 20
-68.37412994801608
 30
0.0
 10
137.4940785064272
 20
-65.65794214056743
 30
0.0
 10
132.7407498433898
 20
-67.01603604429175
 30
0.0
 10
132.7407498433898
 20
-67.01603604429175
 30
0.0
 10
132.7407498433898
 20
-67.01603604429175
 30
0.0
 10
132.7407498433898
 20
-64.97889518870495
 30
0.0
 10
132.7407498433898
 20
-64.97889518870495
 30
0.0
 10
132.7407498433917
 20
-62.26270738125599
 30
0.0
 10
138.1731254582864
 20
-61.58366042939382
 30
0.0
 10
138.1731254582864
 20
-61.58366042939382
 30
0.0
 10
137.4940785064243
 20
-59.54651957380702
 30
0.0
 10
132.0617028915264
 20
-61.58366042939382
 30
0.0
 10
132.0617028915264
 20
-61.58366042939382
 30
0.0
 10
132.0617028915264
 20
-56.83033176635806
 30
0.0
 10
127.9874211803527
 20
-54.79319091077126
 30
0.0
 10
127.9874211803527
 20
-54.79319091077126
 30
0.0
 10
127.9874211803527
 20
-54.79319091077126
 30
0.0
 10
136.1359846026999
 20
-73.12745861105184
 30
0.0
 10
123.9131394691798
 20
-73.806505562914
 30
0.0
 10
123.9131394691798
 20
-73.806505562914
 30
0.0
 10
130.0245620359421
 20
-78.55983422594943
 30
0.0
 10
132.7407498433898
 20
-70.41127080360287
 30
0.0
  0
SPLINE
  5
267
330
1F
100
AcDbEntity
  8
Layer 1
370
     0
100
AcDbSpline
210
0.0
220
0.0
230
1.0
 70
    11
 71
     3
 72
    11
 73
     7
 74
     0
 42
0.0000000001
 43
0.0000000001
 12
1.0
 22
0.0
 32
0.0
 13
1.0
 23
0.0
 33
0.0
 40
0.0
 40
0.0
 40
0.0
 40
0.0
 40
1.0
 40
1.0
 40
1.0
 40
2.0
 40
2.0
 40
2.0
 40
2.0
 10
131.8511971133837
 20
-53.43509700704693
 30
0.0
 10
131.8511971133837
 20
-53.43509700704693
 30
0.0
 10
135.2464318726961
 20
-58.1884256700827
 30
0.0
 10
138.6416666320063
 20
-48.68176834401118
 30
0.0
 10
138.6416666320063
 20
-48.68176834401118
 30
0.0
 10
135.9254788245586
 20
-63.6208012849803
 30
0.0
 10
131.8511971133837
 20
-53.43509700704693
 30
0.0
  0
SPLINE
  5
268
330
1F
100
AcDbEntity
  8
Layer 1
370
     0
100
AcDbSpline
210
0.0
220
0.0
230
1.0
 70
    11
 71
     3
 72
    11
 73
     7
 74
     0
 42
0.0000000001
 43
0.0000000001
 12
1.0
 22
0.0
 32
0.0
 13
1.0
 23
0.0
 33
0.0
 40
0.0
 40
0.0
 40
0.0
 40
0.0
 40
1.0
 40
1.0
 40
1.0
 40
2.0
 40
2.0
 40
2.0
 40
2.0
 10
131.8511971133837
 20
-48.00272139214901
 30
0.0
 10
131.8511971133837
 20
-48.00272139214901
 30
0.0
 10
137.9626196801447
 20
-49.36081529587334
 30
0.0
 10
136.6045257764195
 20
-41.89129882538861
 30
0.0
 10
136.6045257764195
 20
-41.89129882538861
 30
0.0
 10
142.0369013913183
 20
-50.71890919959797
 30
0.0
 10
131.8511971133837
 20
-48.00272139214901
 30
0.0
  0
SPLINE
  5
269
330
1F
100
AcDbEntity
  8
Layer 1
370
     0
100
AcDbSpline
210
0.0
220
0.0
230
1.0
 70
    11
 71
     3
 72
    11
 73
     7
 74
     0
 42
0.0000000001
 43
0.0000000001
 12
1.0
 22
0.0
 32
0.0
 13
1.0
 23
0.0
 33
0.0
 40
0.0
 40
0.0
 40
0.0
 40
0.0
 40
1.0
 40
1.0
 40
1.0
 40
2.0
 40
2.0
 40
2.0
 40
2.0
 10
123.5514564174218
 20
-78.14472211321119
 30
0.0
 10
123.5514564174218
 20
-78.14472211321119
 30
0.0
 10
124.2305033692853
 20
-88.33042639114456
 30
0.0
 10
117.4400338506614
 20
-86.97233248741992
 30
0.0
 10
117.4400338506614
 20
-86.97233248741992
 30
0.0
 10
126.9466911767339
 20
-96.47898981349113
 30
0.0
 10
123.5514564174218
 20
-78.14472211321119
 30
0.0
  0
SPLINE
  5
26A
330
1F
100
AcDbEntity
  8
Layer 1
370
     0
100
AcDbSpline
210
0.0
220
0.0
230
1.0
 70
    11
 71
     3
 72
    11
 73
     7
 74
     0
 42
0.0000000001
 43
0.0000000001
 12
1.0
 22
0.0
 32
0.0
 13
1.0
 23
0.0
 33
0.0
 40
0.0
 40
0.0
 40
0.0
 40
0.0
 40
1.0
 40
1.0
 40
1.0
 40
2.0
 40
2.0
 40
2.0
 40
2.0
 10
120.4585762053394
 20
-46.64462748842437
 30
0.0
 10
120.4585762053394
 20
-46.64462748842437
 30
0.0
 10
118.4214353497551
 20
-42.57034577725109
 30
0.0
 10
125.8909518202386
 20
-37.81701711421533
 30
0.0
 10
125.8909518202386
 20
-37.81701711421533
 30
0.0
 10
111.6309658311307
 20
-39.85415796980212
 30
0.0
 10
120.4585762053394
 20
-46.64462748842437
 30
0.0
  0
SPLINE
  5
26B
330
1F
100
AcDbEntity
  8
Layer 1
370
     0
100
AcDbSpline
210
0.0
220
0.0
230
1.0
 70
    11
 71
     3
 72
    20
 73
    16
 74
     0
 42
0.0000000001
 43
0.0000000001
 12
1.0
 22
0.0
 32
0.0
 13
1.0
 23
0.0
 33
0.0
 40
0.0
 40
0.0
 40
0.0
 40
0.0
 40
1.0
 40
1.0
 40
1.0
 40
2.0
 40
2.0
 40
2.0
 40
3.0
 40
3.0
 40
3.0
 40
4.0
 40
4.0
 40
4.0
 40
5.0
 40
5.0
 40
5.0
 40
5.0
 10
116.3842944941664
 20
-51.28519858595185
 30
0.0
 10
110.2728719274057
 20
-59.43376200829874
 30
0.0
 10
107.5566841199586
 20
-54.00138639340049
 30
0.0
 10
107.5566841199586
 20
-54.00138639340049
 30
0.0
 10
107.5566841199586
 20
-54.00138639340049
 30
0.0
 10
106.8776371680971
 20
-58.07566810457409
 30
0.0
 10
109.5938249755451
 20
-57.39662115271193
 30
0.0
 10
109.5938249755451
 20
-57.39662115271193
 30
0.0
 10
108.9147780236843
 20
-61.47090286388553
 30
0.0
 10
104.8404963125097
 20
-58.07566810457409
 30
0.0
 10
104.8404963125097
 20
-58.07566810457409
 30
0.0
 10
104.1614493606456
 20
-65.54518457505947
 30
0.0
 10
110.2728719274057
 20
-59.43376200829906
 30
0.0
 10
110.2728719274057
 20
-59.43376200829906
 30
0.0
 10
117.0633414460283
 20
-54.00138639340145
 30
0.0
 10
116.3842944941664
 20
-51.28519858595217
 30
0.0
  0
SPLINE
  5
26C
330
1F
100
AcDbEntity
  8
Layer 1
370
     0
100
AcDbSpline
210
0.0
220
0.0
230
1.0
 70
     8
 71
     3
 72
    38
 73
    34
 74
     0
 42
0.0000000001
 43
0.0000000001
 12
1.0
 22
0.0
 32
0.0
 13
1.0
 23
0.0
 33
0.0
 40
0.0
 40
0.0
 40
0.0
 40
0.0
 40
1.0
 40
1.0
 40
1.0
 40
2.0
 40
2.0
 40
2.0
 40
3.0
 40
3.0
 40
3.0
 40
4.0
 40
4.0
 40
4.0
 40
5.0
 40
5.0
 40
5.0
 40
6.0
 40
6.0
 40
6.0
 40
7.0
 40
7.0
 40
7.0
 40
8.0
 40
8.0
 40
8.0
 40
9.0
 40
9.0
 40
9.0
 40
10.0
 40
10.0
 40
10.0
 40
11.0
 40
11.0
 40
11.0
 40
11.0
 10
125.0607275947602
 20
-55.47223786263406
 30
0.0
 10
127.7769154022091
 20
-60.22556652566983
 30
0.0
 10
127.0978684503466
 20
-64.9788951887056
 30
0.0
 10
127.0978684503466
 20
-64.9788951887056
 30
0.0
 10
127.0978684503466
 20
-73.80650556291464
 30
0.0
 10
120.9864458835866
 20
-69.73222385174103
 30
0.0
 10
120.9864458835866
 20
-69.73222385174103
 30
0.0
 10
129.1350093059341
 20
-68.37412994801672
 30
0.0
 10
123.7026336910355
 20
-57.50937871822087
 30
0.0
 10
123.7026336910355
 20
-57.50937871822087
 30
0.0
 10
123.7026336910355
 20
-60.22556652566983
 30
0.0
 10
118.2702580761379
 20
-65.65794214056776
 30
0.0
 10
118.2702580761379
 20
-65.65794214056776
 30
0.0
 10
118.2702580761379
 20
-81.27602203339904
 30
0.0
 10
108.7636007500667
 20
-86.7083976482973
 30
0.0
 10
108.7636007500667
 20
-86.7083976482973
 30
0.0
 10
103.3312251351688
 20
-82.63411593712368
 30
0.0
 10
110.8007416056529
 20
-71.76936470732784
 30
0.0
 10
110.8007416056529
 20
-71.76936470732784
 30
0.0
 10
110.8007416056529
 20
-71.76936470732784
 30
0.0
 10
108.0845537982042
 20
-81.27602203339904
 30
0.0
 10
109.4426477019285
 20
-81.9550689852612
 30
0.0
 10
113.6941541059071
 20
-84.08082218725066
 30
0.0
 10
116.2331172205511
 20
-67.69508299615455
 30
0.0
 10
116.2331172205511
 20
-67.69508299615455
 30
0.0
 10
116.2331172205511
 20
-67.69508299615455
 30
0.0
 10
112.83788246124
 20
-70.41127080360351
 30
0.0
 10
112.83788246124
 20
-70.41127080360351
 30
0.0
 10
110.8007416056529
 20
-71.09031775546568
 30
0.0
 10
114.8750233168268
 20
-60.90461347753231
 30
0.0
 10
114.8750233168268
 20
-60.90461347753231
 30
0.0
 10
114.8750233168268
 20
-60.90461347753231
 30
0.0
 10
100.6150373277201
 20
-71.76936470732784
 30
0.0
 10
106.7264598944799
 20
-90.78267935947089
 30
0.0
  0
POLYLINE
  5
26D
330
1F
100
AcDbEntity
  8
Layer 1
370
     0
100
AcDb2dPolyline
 66
     1
 10
0.0
 20
0.0
 30
0.0
  0
VERTEX
  5
26E
330
26D
100
AcDbEntity
  8
Layer 1
370
     0
100
AcDbVertex
100
AcDb2dVertex
 10
125.0607275947602
 20
-55.47223786263406
 30
0.0
  0
VERTEX
  5
2C5
330
26D
100
AcDbEntity
  8
0
100
AcDbVertex
100
AcDb2dVertex
 10
125.0607275947602
 20
-55.47223786263406
 30
0.0
  0
SEQEND
  5
26F
330
26D
100
AcDbEntity
  8
Layer 1
370
     0
  0
SPLINE
  5
270
330
1F
100
AcDbEntity
  8
Layer 1
370
     0
100
AcDbSpline
210
0.0
220
0.0
230
1.0
 70
     8
 71
     3
 72
    41
 73
    37
 74
     0
 42
0.0000000001
 43
0.0000000001
 12
1.0
 22
0.0
 32
0.0
 13
1.0
 23
0.0
 33
0.0
 40
0.0
 40
0.0
 40
0.0
 40
0.0
 40
1.0
 40
1.0
 40
1.0
 40
2.0
 40
2.0
 40
2.0
 40
3.0
 40
3.0
 40
3.0
 40
4.0
 40
4.0
 40
4.0
 40
5.0
 40
5.0
 40
5.0
 40
6.0
 40
6.0
 40
6.0
 40
7.0
 40
7.0
 40
7.0
 40
8.0
 40
8.0
 40
8.0
 40
9.0
 40
9.0
 40
9.0
 40
10.0
 40
10.0
 40
10.0
 40
11.0
 40
11.0
 40
11.0
 40
12.0
 40
12.0
 40
12.0
 40
12.0
 10
106.7264598944799
 20
-90.78267935947089
 30
0.0
 10
99.25694342399518
 20
-83.992209840848
 30
0.0
 10
105.3683659907556
 20
-71.09031775546568
 30
0.0
 10
105.3683659907556
 20
-71.09031775546568
 30
0.0
 10
105.3683659907556
 20
-71.09031775546568
 30
0.0
 10
102.6521781833063
 20
-72.44841165919
 30
0.0
 10
102.6521781833063
 20
-72.44841165919
 30
0.0
 10
102.6521781833063
 20
-72.44841165919
 30
0.0
 10
103.3312251351688
 20
-68.37412994801672
 30
0.0
 10
106.0474129426174
 20
-68.37412994801672
 30
0.0
 10
108.8471952498995
 20
-68.37412994801672
 30
0.0
 10
106.7264598944799
 20
-66.3369890924299
 30
0.0
 10
106.7264598944799
 20
-66.3369890924299
 30
0.0
 10
103.3312251351688
 20
-66.3369890924299
 30
0.0
 10
104.0102720870313
 20
-62.94175433311879
 30
0.0
 10
104.0102720870313
 20
-62.94175433311879
 30
0.0
 10
104.0102720870313
 20
-64.9788951887056
 30
0.0
 10
108.7636007500667
 20
-64.29984823684343
 30
0.0
 10
108.7636007500667
 20
-64.29984823684343
 30
0.0
 10
109.4426477019285
 20
-62.26270738125663
 30
0.0
 10
117.5912111242754
 20
-57.50937871822087
 30
0.0
 10
117.5912111242754
 20
-57.50937871822087
 30
0.0
 10
116.9121641724136
 20
-56.83033176635838
 30
0.0
 10
122.3445397873112
 20
-50.71890919959862
 30
0.0
 10
122.3445397873112
 20
-50.71890919959862
 30
0.0
 10
123.0235867391737
 20
-49.36081529587398
 30
0.0
 10
118.9493050280004
 20
-50.71890919959862
 30
0.0
 10
118.9493050280004
 20
-50.71890919959862
 30
0.0
 10
118.9493050280004
 20
-49.36081529587398
 30
0.0
 10
125.0607275947602
 20
-48.00272139214965
 30
0.0
 10
125.0607275947602
 20
-48.00272139214965
 30
0.0
 10
125.0607275947602
 20
-48.00272139214965
 30
0.0
 10
127.7769154022091
 20
-46.64462748842534
 30
0.0
 10
127.7769154022091
 20
-46.64462748842534
 30
0.0
 10
127.7769154022091
 20
-46.64462748842534
 30
0.0
 10
126.4188214984845
 20
-54.7931909107719
 30
0.0
 10
125.0607275947602
 20
-55.47223786263406
 30
0.0
  0
SPLINE
  5
271
330
1F
100
AcDbEntity
  8
Layer 1
370
     0
100
AcDbSpline
210
0.0
220
0.0
230
1.0
 70
    11
 71
     3
 72
    11
 73
     7
 74
     0
 42
0.0000000001
 43
0.0000000001
 12
1.0
 22
0.0
 32
0.0
 13
1.0
 23
0.0
 33
0.0
 40
0.0
 40
0.0
 40
0.0
 40
0.0
 40
1.0
 40
1.0
 40
1.0
 40
2.0
 40
2.0
 40
2.0
 40
2.0
 10
127.0978684503466
 20
-40.53320492166493
 30
0.0
 10
128.9594312903484
 20
-39.70584365944201
 30
0.0
 10
125.0607275947602
 20
-44.60748663283821
 30
0.0
 10
125.0607275947602
 20
-44.60748663283821
 30
0.0
 10
125.0607275947602
 20
-44.60748663283821
 30
0.0
 10
120.9864458835866
 20
-43.24939272911389
 30
0.0
 10
127.0978684503466
 20
-40.53320492166493
 30
0.0
  0
SPLINE
  5
272
330
1F
100
AcDbEntity
  8
Layer 1
370
     0
100
AcDbSpline
210
0.0
220
0.0
230
1.0
 70
    11
 71
     3
 72
    17
 73
    13
 74
     0
 42
0.0000000001
 43
0.0000000001
 12
1.0
 22
0.0
 32
0.0
 13
1.0
 23
0.0
 33
0.0
 40
0.0
 40
0.0
 40
0.0
 40
0.0
 40
1.0
 40
1.0
 40
1.0
 40
2.0
 40
2.0
 40
2.0
 40
3.0
 40
3.0
 40
3.0
 40
4.0
 40
4.0
 40
4.0
 40
4.0
 10
128.9256013892305
 20
-79.85754243166697
 30
0.0
 10
128.0144622537749
 20
-81.04924407162733
 30
0.0
 10
126.913563649514
 20
-81.73832504985029
 30
0.0
 10
126.4666755345293
 20
-81.39664787405445
 30
0.0
 10
126.0197874195439
 20
-81.05497069825894
 30
0.0
 10
126.3961372315937
 20
-79.81192156391916
 30
0.0
 10
127.307276367049
 20
-78.62021992395815
 30
0.0
 10
128.2184155025042
 20
-77.42851828399779
 30
0.0
 10
129.3193141067667
 20
-76.73943730577516
 30
0.0
 10
129.7662022217514
 20
-77.08111448157035
 30
0.0
 10
130.2130903367365
 20
-77.42279165736586
 30
0.0
 10
129.8367405246857
 20
-78.66584079170629
 30
0.0
 10
128.9256013892305
 20
-79.85754243166697
 30
0.0
  0
SPLINE
  5
273
330
1F
100
AcDbEntity
  8
Layer 1
370
     0
100
AcDbSpline
210
0.0
220
0.0
230
1.0
 70
    11
 71
     3
 72
    17
 73
    13
 74
     0
 42
0.0000000001
 43
0.0000000001
 12
1.0
 22
0.0
 32
0.0
 13
1.0
 23
0.0
 33
0.0
 40
0.0
 40
0.0
 40
0.0
 40
0.0
 40
1.0
 40
1.0
 40
1.0
 40
2.0
 40
2.0
 40
2.0
 40
3.0
 40
3.0
 40
3.0
 40
4.0
 40
4.0
 40
4.0
 40
4.0
 10
136.184449782533
 20
-73.86674261611253
 30
0.0
 10
135.6593935921796
 20
-74.86179292442368
 30
0.0
 10
134.8304276236774
 20
-75.45561950763057
 30
0.0
 10
134.3329024695214
 20
-75.1930914124534
 30
0.0
 10
133.8353773153663
 20
-74.93056331727655
 30
0.0
 10
133.8576956299026
 20
-73.91109459255074
 30
0.0
 10
134.382751820256
 20
-72.91604428423959
 30
0.0
 10
134.9078080106094
 20
-71.92099397592813
 30
0.0
 10
135.7367739791122
 20
-71.32716739272155
 30
0.0
 10
136.2342991332676
 20
-71.58969548789841
 30
0.0
 10
136.731824287423
 20
-71.85222358307526
 30
0.0
 10
136.7095059728864
 20
-72.87169230780107
 30
0.0
 10
136.184449782533
 20
-73.86674261611253
 30
0.0
  0
SPLINE
  5
274
330
1F
100
AcDbEntity
  8
Layer 1
370
     0
100
AcDbSpline
210
0.0
220
0.0
230
1.0
 70
    11
 71
     3
 72
    17
 73
    13
 74
     0
 42
0.0000000001
 43
0.0000000001
 12
1.0
 22
0.0
 32
0.0
 13
1.0
 23
0.0
 33
0.0
 40
0.0
 40
0.0
 40
0.0
 40
0.0
 40
1.0
 40
1.0
 40
1.0
 40
2.0
 40
2.0
 40
2.0
 40
3.0
 40
3.0
 40
3.0
 40
4.0
 40
4.0
 40
4.0
 40
4.0
 10
111.6616422412934
 20
-94.20886572016771
 30
0.0
 10
111.1532471754839
 20
-94.71726078597786
 30
0.0
 10
110.4524707692248
 20
-94.84075564258502
 30
0.0
 10
110.0964143292529
 20
-94.48469920261408
 30
0.0
 10
109.7403578892817
 20
-94.12864276264443
 30
0.0
 10
109.8638527458866
 20
-93.42786635638404
 30
0.0
 10
110.3722478116961
 20
-92.91947129057326
 30
0.0
 10
110.8806428775056
 20
-92.41107622476375
 30
0.0
 10
111.581419283765
 20
-92.2875813681566
 30
0.0
 10
111.9374757237375
 20
-92.64363780812785
 30
0.0
 10
112.2935321637072
 20
-92.99969424809815
 30
0.0
 10
112.1700373071033
 20
-93.70047065435789
 30
0.0
 10
111.6616422412934
 20
-94.20886572016771
 30
0.0
  0
SPLINE
  5
275
330
1F
100
AcDbEntity
  8
Layer 1
370
     0
100
AcDbSpline
210
0.0
220
0.0
230
1.0
 70
    11
 71
     3
 72
    17
 73
    13
 74
     0
 42
0.0000000001
 43
0.0000000001
 12
1.0
 22
0.0
 32
0.0
 13
1.0
 23
0.0
 33
0.0
 40
0.0
 40
0.0
 40
0.0
 40
0.0
 40
1.0
 40
1.0
 40
1.0
 40
2.0
 40
2.0
 40
2.0
 40
3.0
 40
3.0
 40
3.0
 40
4.0
 40
4.0
 40
4.0
 40
4.0
 10
114.4741163297514
 20
-88.92480060736942
 30
0.0
 10
113.9817206068088
 20
-89.93641099241285
 30
0.0
 10
113.0358401730043
 20
-90.49037284009904
 30
0.0
 10
112.3614332496419
 20
-90.16210902480475
 30
0.0
 10
111.6870263262811
 20
-89.83384520951012
 30
0.0
 10
111.5394770952638
 20
-88.74766255996407
 30
0.0
 10
112.0318728182054
 20
-87.73605217492066
 30
0.0
 10
112.5242685411483
 20
-86.72444178987723
 30
0.0
 10
113.4701489749531
 20
-86.17047994219102
 30
0.0
 10
114.1445558983149
 20
-86.49874375748661
 30
0.0
 10
114.818962821676
 20
-86.82700757278059
 30
0.0
 10
114.966512052694
 20
-87.91319022232632
 30
0.0
 10
114.4741163297514
 20
-88.92480060736942
 30
0.0
  0
SPLINE
  5
276
330
1F
100
AcDbEntity
  8
Layer 1
370
     0
100
AcDbSpline
210
0.0
220
0.0
230
1.0
 70
    11
 71
     3
 72
    17
 73
    13
 74
     0
 42
0.0000000001
 43
0.0000000001
 12
1.0
 22
0.0
 32
0.0
 13
1.0
 23
0.0
 33
0.0
 40
0.0
 40
0.0
 40
0.0
 40
0.0
 40
1.0
 40
1.0
 40
1.0
 40
2.0
 40
2.0
 40
2.0
 40
3.0
 40
3.0
 40
3.0
 40
4.0
 40
4.0
 40
4.0
 40
4.0
 10
123.0235867391737
 20
-65.65794214056776
 30
0.0
 10
123.0235867391737
 20
-66.40799669239118
 30
0.0
 10
122.567557225247
 20
-67.01603604429206
 30
0.0
 10
122.0050163113804
 20
-67.01603604429206
 30
0.0
 10
121.4424753975129
 20
-67.01603604429206
 30
0.0
 10
120.9864458835866
 20
-66.40799669239118
 30
0.0
 10
120.9864458835866
 20
-65.65794214056776
 30
0.0
 10
120.9864458835866
 20
-64.90788758874433
 30
0.0
 10
121.4424753975129
 20
-64.29984823684343
 30
0.0
 10
122.0050163113804
 20
-64.29984823684343
 30
0.0
 10
122.567557225247
 20
-64.29984823684343
 30
0.0
 10
123.0235867391737
 20
-64.90788758874433
 30
0.0
 10
123.0235867391737
 20
-65.65794214056776
 30
0.0
  0
SPLINE
  5
277
330
1F
100
AcDbEntity
  8
Layer 1
370
     0
100
AcDbSpline
210
0.0
220
0.0
230
1.0
 70
    11
 71
     3
 72
    17
 73
    13
 74
     0
 42
0.0000000001
 43
0.0000000001
 12
1.0
 22
0.0
 32
0.0
 13
1.0
 23
0.0
 33
0.0
 40
0.0
 40
0.0
 40
0.0
 40
0.0
 40
1.0
 40
1.0
 40
1.0
 40
2.0
 40
2.0
 40
2.0
 40
3.0
 40
3.0
 40
3.0
 40
4.0
 40
4.0
 40
4.0
 40
4.0
 10
109.044406741139
 20
-51.92231357210406
 30
0.0
 10
109.9339277697363
 20
-52.8875385180287
 30
0.0
 10
111.6610591518281
 20
-52.74288030582279
 30
0.0
 10
112.9020626537311
 20
-51.59921041191231
 30
0.0
 10
114.1430661556335
 20
-50.45554051800119
 30
0.0
 10
114.4279989978575
 20
-48.74594346466194
 30
0.0
 10
113.5384779692595
 20
-47.78071851873698
 30
0.0
 10
112.6489569406625
 20
-46.81549357281202
 30
0.0
 10
110.9218255585711
 20
-46.96015178501792
 30
0.0
 10
109.680822056668
 20
-48.1038216789284
 30
0.0
 10
108.439818554765
 20
-49.24749157283952
 30
0.0
 10
108.154885712541
 20
-50.95708862617877
 30
0.0
 10
109.044406741139
 20
-51.92231357210406
 30
0.0
  0
SPLINE
  5
278
330
1F
100
AcDbEntity
  8
Layer 1
370
     0
100
AcDbSpline
210
0.0
220
0.0
230
1.0
 70
    11
 71
     3
 72
    17
 73
    13
 74
     0
 42
0.0000000001
 43
0.0000000001
 12
1.0
 22
0.0
 32
0.0
 13
1.0
 23
0.0
 33
0.0
 40
0.0
 40
0.0
 40
0.0
 40
0.0
 40
1.0
 40
1.0
 40
1.0
 40
2.0
 40
2.0
 40
2.0
 40
3.0
 40
3.0
 40
3.0
 40
4.0
 40
4.0
 40
4.0
 40
4.0
 10
129.9436849752535
 20
-43.62257287614187
 30
0.0
 10
130.8332060038506
 20
-44.58779782206683
 30
0.0
 10
132.5603373859426
 20
-44.44313960986092
 30
0.0
 10
133.801340887845
 20
-43.29946971595044
 30
0.0
 10
135.042344389748
 20
-42.155799822039
 30
0.0
 10
135.327277231972
 20
-40.44620276869943
 30
0.0
 10
134.4377562033737
 20
-39.48097782277479
 30
0.0
 10
133.5482351747764
 20
-38.51575287684982
 30
0.0
 10
131.8211037926853
 20
-38.66041108905605
 30
0.0
 10
130.5801002907823
 20
-39.80408098296654
 30
0.0
 10
129.3390967888796
 20
-40.94775087687734
 30
0.0
 10
129.0541639466556
 20
-42.65734793021691
 30
0.0
 10
129.9436849752535
 20
-43.62257287614187
 30
0.0
  0
SPLINE
  5
279
330
1F
100
AcDbEntity
  8
Layer 1
370
     0
100
AcDbSpline
210
0.0
220
0.0
230
1.0
 70
    11
 71
     3
 72
    14
 73
    10
 74
     0
 42
0.0000000001
 43
0.0000000001
 12
1.0
 22
0.0
 32
0.0
 13
1.0
 23
0.0
 33
0.0
 40
0.0
 40
0.0
 40
0.0
 40
0.0
 40
1.0
 40
1.0
 40
1.0
 40
2.0
 40
2.0
 40
2.0
 40
3.0
 40
3.0
 40
3.0
 40
3.0
 10
131.8511971133818
 20
-81.9550689852612
 30
0.0
 10
133.2092910171054
 20
-85.35030374457264
 30
0.0
 10
129.1350093059322
 20
-90.78267935947089
 30
0.0
 10
129.1350093059322
 20
-90.78267935947089
 30
0.0
 10
129.1350093059322
 20
-90.78267935947089
 30
0.0
 10
129.1350093059322
 20
-85.35030374457264
 30
0.0
 10
129.1350093059322
 20
-85.35030374457264
 30
0.0
 10
129.1350093059322
 20
-85.35030374457264
 30
0.0
 10
131.8511971133818
 20
-81.9550689852612
 30
0.0
 10
131.8511971133818
 20
-81.9550689852612
 30
0.0
  0
SPLINE
  5
27A
330
1F
100
AcDbEntity
  8
Layer 1
370
     0
100
AcDbSpline
210
0.0
220
0.0
230
1.0
 70
    11
 71
     3
 72
    11
 73
     7
 74
     0
 42
0.0000000001
 43
0.0000000001
 12
1.0
 22
0.0
 32
0.0
 13
1.0
 23
0.0
 33
0.0
 40
0.0
 40
0.0
 40
0.0
 40
0.0
 40
1.0
 40
1.0
 40
1.0
 40
2.0
 40
2.0
 40
2.0
 40
2.0
 10
116.2331172205498
 20
-81.9550689852612
 30
0.0
 10
116.2331172205498
 20
-81.9550689852612
 30
0.0
 10
120.3073989317231
 20
-79.91792812967472
 30
0.0
 10
120.3073989317231
 20
-73.12745861105248
 30
0.0
 10
120.3073989317231
 20
-73.12745861105248
 30
0.0
 10
122.3445397873099
 20
-86.7083976482973
 30
0.0
 10
116.2331172205498
 20
-81.9550689852612
 30
0.0
  0
SPLINE
  5
27B
330
1F
100
AcDbEntity
  8
Layer 1
370
     0
100
AcDbSpline
210
0.0
220
0.0
230
1.0
 70
    11
 71
     3
 72
    29
 73
    25
 74
     0
 42
0.0000000001
 43
0.0000000001
 12
1.0
 22
0.0
 32
0.0
 13
1.0
 23
0.0
 33
0.0
 40
0.0
 40
0.0
 40
0.0
 40
0.0
 40
1.0
 40
1.0
 40
1.0
 40
2.0
 40
2.0
 40
2.0
 40
3.0
 40
3.0
 40
3.0
 40
4.0
 40
4.0
 40
4.0
 40
5.0
 40
5.0
 40
5.0
 40
6.0
 40
6.0
 40
6.0
 40
7.0
 40
7.0
 40
7.0
 40
8.0
 40
8.0
 40
8.0
 40
8.0
 10
54.57809498522914
 20
-69.7057152476805
 30
0.0
 10
53.32599427314162
 20
-65.94941311085391
 30
0.0
 10
50.5038132741473
 20
-67.66857439191082
 30
0.0
 10
50.5038132741473
 20
-67.66857439191082
 30
0.0
 10
49.82476632240514
 20
-64.9523865844317
 30
0.0
 10
54.57809498538155
 20
-66.31048048836938
 30
0.0
 10
54.57809498538155
 20
-66.31048048836938
 30
0.0
 10
54.57809498538155
 20
-66.31048048836938
 30
0.0
 10
54.57809498547299
 20
-64.27333963278258
 30
0.0
 10
54.57809498547299
 20
-64.27333963278258
 30
0.0
 10
54.5780949855933
 20
-61.55715182533362
 30
0.0
 10
49.14571937072907
 20
-60.87810487322761
 30
0.0
 10
49.14571937072907
 20
-60.87810487322761
 30
0.0
 10
49.82476632268267
 20
-58.84096401767129
 30
0.0
 10
55.25714193748915
 20
-60.87810487350194
 30
0.0
 10
55.25714193748915
 20
-60.87810487350194
 30
0.0
 10
55.25714193770252
 20
-56.12477621046617
 30
0.0
 10
59.33142364896757
 20
-54.08763535506226
 30
0.0
 10
59.33142364896757
 20
-54.08763535506226
 30
0.0
 10
59.33142364896757
 20
-54.08763535506226
 30
0.0
 10
51.18286022579706
 20
-72.42190305497707
 30
0.0
 10
63.40570535928675
 20
-73.10095000738819
 30
0.0
 10
63.40570535928675
 20
-73.10095000738819
 30
0.0
 10
57.29428279231105
 20
-77.854278670149
 30
0.0
 10
54.57809498522914
 20
-69.7057152476805
 30
0.0
  0
SPLINE
  5
27C
330
1F
100
AcDbEntity
  8
Layer 1
370
     0
100
AcDbSpline
210
0.0
220
0.0
230
1.0
 70
    11
 71
     3
 72
    11
 73
     7
 74
     0
 42
0.0000000001
 43
0.0000000001
 12
1.0
 22
0.0
 32
0.0
 13
1.0
 23
0.0
 33
0.0
 40
0.0
 40
0.0
 40
0.0
 40
0.0
 40
1.0
 40
1.0
 40
1.0
 40
2.0
 40
2.0
 40
2.0
 40
2.0
 10
55.46764771599758
 20
-52.72954145116468
 30
0.0
 10
55.46764771599758
 20
-52.72954145116468
 30
0.0
 10
52.07241295647181
 20
-57.48287011404804
 30
0.0
 10
48.67717819758838
 20
-47.97621278782411
 30
0.0
 10
48.67717819758838
 20
-47.97621278782411
 30
0.0
 10
51.39336600436516
 20
-62.91524572891516
 30
0.0
 10
55.46764771599758
 20
-52.72954145116468
 30
0.0
  0
SPLINE
  5
27D
330
1F
100
AcDbEntity
  8
Layer 1
370
     0
100
AcDbSpline
210
0.0
220
0.0
230
1.0
 70
    11
 71
     3
 72
    11
 73
     7
 74
     0
 42
0.0000000001
 43
0.0000000001
 12
1.0
 22
0.0
 32
0.0
 13
1.0
 23
0.0
 33
0.0
 40
0.0
 40
0.0
 40
0.0
 40
0.0
 40
1.0
 40
1.0
 40
1.0
 40
2.0
 40
2.0
 40
2.0
 40
2.0
 10
55.46764771624142
 20
-47.29716583626676
 30
0.0
 10
55.46764771624142
 20
-47.29716583626676
 30
0.0
 10
49.35622514941942
 20
-48.65525973971675
 30
0.0
 10
50.71431905347999
 20
-41.18574326929298
 30
0.0
 10
50.71431905347999
 20
-41.18574326929298
 30
0.0
 10
45.28194343818485
 20
-50.0133536432585
 30
0.0
 10
55.46764771624142
 20
-47.29716583626676
 30
0.0
  0
SPLINE
  5
27E
330
1F
100
AcDbEntity
  8
Layer 1
370
     0
100
AcDbSpline
210
0.0
220
0.0
230
1.0
 70
    11
 71
     3
 72
    11
 73
     7
 74
     0
 42
0.0000000001
 43
0.0000000001
 12
1.0
 22
0.0
 32
0.0
 13
1.0
 23
0.0
 33
0.0
 40
0.0
 40
0.0
 40
0.0
 40
0.0
 40
1.0
 40
1.0
 40
1.0
 40
2.0
 40
2.0
 40
2.0
 40
2.0
 10
63.76738841084995
 20
-77.43916655770144
 30
0.0
 10
63.76738841084995
 20
-77.43916655770144
 30
0.0
 10
63.08834145852929
 20
-87.62487083560433
 30
0.0
 10
69.8788109772141
 20
-86.26677693218448
 30
0.0
 10
69.8788109772141
 20
-86.26677693218448
 30
0.0
 10
60.37215365071489
 20
-95.77343425782897
 30
0.0
 10
63.76738841084995
 20
-77.43916655770144
 30
0.0
  0
SPLINE
  5
27F
330
1F
100
AcDbEntity
  8
Layer 1
370
     0
100
AcDbSpline
210
0.0
220
0.0
230
1.0
 70
    11
 71
     3
 72
    11
 73
     7
 74
     0
 42
0.0000000001
 43
0.0000000001
 12
1.0
 22
0.0
 32
0.0
 13
1.0
 23
0.0
 33
0.0
 40
0.0
 40
0.0
 40
0.0
 40
0.0
 40
1.0
 40
1.0
 40
1.0
 40
2.0
 40
2.0
 40
2.0
 40
2.0
 10
66.8602686243467
 20
-45.93907193305355
 30
0.0
 10
66.8602686243467
 20
-45.93907193305355
 30
0.0
 10
68.89740948011382
 20
-41.86479022197171
 30
0.0
 10
61.42789300984374
 20
-37.11146155860065
 30
0.0
 10
61.42789300984374
 20
-37.11146155860065
 30
0.0
 10
75.68787899886023
 20
-39.14860241482755
 30
0.0
 10
66.8602686243467
 20
-45.93907193305355
 30
0.0
  0
SPLINE
  5
280
330
1F
100
AcDbEntity
  8
Layer 1
370
     0
100
AcDbSpline
210
0.0
220
0.0
230
1.0
 70
    11
 71
     3
 72
    20
 73
    16
 74
     0
 42
0.0000000001
 43
0.0000000001
 12
1.0
 22
0.0
 32
0.0
 13
1.0
 23
0.0
 33
0.0
 40
0.0
 40
0.0
 40
0.0
 40
0.0
 40
1.0
 40
1.0
 40
1.0
 40
2.0
 40
2.0
 40
2.0
 40
3.0
 40
3.0
 40
3.0
 40
4.0
 40
4.0
 40
4.0
 40
5.0
 40
5.0
 40
5.0
 40
5.0
 10
70.93455033531143
 20
-50.5796430307639
 30
0.0
 10
77.04597290170607
 20
-58.72820645338512
 30
0.0
 10
79.76216070939726
 20
-53.2958308386088
 30
0.0
 10
79.76216070939726
 20
-53.2958308386088
 30
0.0
 10
79.76216070939726
 20
-53.2958308386088
 30
0.0
 10
80.44120766107558
 20
-57.37011254981288
 30
0.0
 10
77.72501985365807
 20
-56.6910655978288
 30
0.0
 10
77.72501985365807
 20
-56.6910655978288
 30
0.0
 10
78.40406680533606
 20
-60.76534730903288
 30
0.0
 10
82.47834851666303
 20
-57.37011254990433
 30
0.0
 10
82.47834851666303
 20
-57.37011254990433
 30
0.0
 10
83.15739546819182
 20
-64.83962902042018
 30
0.0
 10
77.04597290170607
 20
-58.72820645338544
 30
0.0
 10
77.04597290170607
 20
-58.72820645338544
 30
0.0
 10
70.25550338332766
 20
-53.29583083818303
 30
0.0
 10
70.93455033531143
 20
-50.57964303076423
 30
0.0
  0
SPLINE
  5
281
330
1F
100
AcDbEntity
  8
Layer 1
370
     0
100
AcDbSpline
210
0.0
220
0.0
230
1.0
 70
     8
 71
     3
 72
    38
 73
    34
 74
     0
 42
0.0000000001
 43
0.0000000001
 12
1.0
 22
0.0
 32
0.0
 13
1.0
 23
0.0
 33
0.0
 40
0.0
 40
0.0
 40
0.0
 40
0.0
 40
1.0
 40
1.0
 40
1.0
 40
2.0
 40
2.0
 40
2.0
 40
3.0
 40
3.0
 40
3.0
 40
4.0
 40
4.0
 40
4.0
 40
5.0
 40
5.0
 40
5.0
 40
6.0
 40
6.0
 40
6.0
 40
7.0
 40
7.0
 40
7.0
 40
8.0
 40
8.0
 40
8.0
 40
9.0
 40
9.0
 40
9.0
 40
10.0
 40
10.0
 40
10.0
 40
11.0
 40
11.0
 40
11.0
 40
11.0
 10
62.25811723452966
 20
-54.76668230705661
 30
0.0
 10
59.54192942686734
 20
-59.52001096997045
 30
0.0
 10
60.22097637851613
 20
-64.2733396330367
 30
0.0
 10
60.22097637851613
 20
-64.2733396330367
 30
0.0
 10
60.22097637811989
 20
-73.10095000724574
 30
0.0
 10
66.33239894506285
 20
-69.02666829634646
 30
0.0
 10
66.33239894506285
 20
-69.02666829634646
 30
0.0
 10
58.18383552277628
 20
-67.66857439225637
 30
0.0
 10
63.61621113816287
 20
-56.80382316270438
 30
0.0
 10
63.61621113816287
 20
-56.80382316270438
 30
0.0
 10
63.61621113804095
 20
-59.52001097015334
 30
0.0
 10
69.04858675269438
 20
-64.9523865852951
 30
0.0
 10
69.04858675269438
 20
-64.9523865852951
 30
0.0
 10
69.04858675199333
 20
-80.57046647812639
 30
0.0
 10
78.55524407782069
 20
-86.00284209345138
 30
0.0
 10
78.55524407782069
 20
-86.00284209345138
 30
0.0
 10
83.98761969290149
 20
-81.92856038252194
 30
0.0
 10
76.5181032229051
 20
-71.06380915239048
 30
0.0
 10
76.5181032229051
 20
-71.06380915239048
 30
0.0
 10
76.5181032229051
 20
-71.06380915239048
 30
0.0
 10
79.23429102992701
 20
-80.57046647858361
 30
0.0
 10
77.87619712617222
 20
-81.24951343038481
 30
0.0
 10
73.62469072209801
 20
-83.37526663218368
 30
0.0
 10
71.08572760818974
 20
-66.98952744097335
 30
0.0
 10
71.08572760818974
 20
-66.98952744097335
 30
0.0
 10
71.08572760818974
 20
-66.98952744097335
 30
0.0
 10
74.48096236737894
 20
-69.70571524857472
 30
0.0
 10
74.48096236737894
 20
-69.70571524857472
 30
0.0
 10
76.51810322293558
 20
-70.38476220052831
 30
0.0
 10
72.44382151221919
 20
-60.19905792241207
 30
0.0
 10
72.44382151221919
 20
-60.19905792241207
 30
0.0
 10
72.44382151221919
 20
-60.19905792241207
 30
0.0
 10
86.70380750083783
 20
-71.06380915284801
 30
0.0
 10
80.59238493322461
 20
-90.07712380471673
 30
0.0
  0
POLYLINE
  5
282
330
1F
100
AcDbEntity
  8
Layer 1
370
     0
100
AcDb2dPolyline
 66
     1
 10
0.0
 20
0.0
 30
0.0
  0
VERTEX
  5
283
330
282
100
AcDbEntity
  8
Layer 1
370
     0
100
AcDbVertex
100
AcDb2dVertex
 10
62.25811723452966
 20
-54.76668230705661
 30
0.0
  0
VERTEX
  5
2C6
330
282
100
AcDbEntity
  8
0
100
AcDbVertex
100
AcDb2dVertex
 10
62.25811723452966
 20
-54.76668230705661
 30
0.0
  0
SEQEND
  5
284
330
282
100
AcDbEntity
  8
Layer 1
370
     0
  0
SPLINE
  5
285
330
1F
100
AcDbEntity
  8
Layer 1
370
     0
100
AcDbSpline
210
0.0
220
0.0
230
1.0
 70
     8
 71
     3
 72
    41
 73
    37
 74
     0
 42
0.0000000001
 43
0.0000000001
 12
1.0
 22
0.0
 32
0.0
 13
1.0
 23
0.0
 33
0.0
 40
0.0
 40
0.0
 40
0.0
 40
0.0
 40
1.0
 40
1.0
 40
1.0
 40
2.0
 40
2.0
 40
2.0
 40
3.0
 40
3.0
 40
3.0
 40
4.0
 40
4.0
 40
4.0
 40
5.0
 40
5.0
 40
5.0
 40
6.0
 40
6.0
 40
6.0
 40
7.0
 40
7.0
 40
7.0
 40
8.0
 40
8.0
 40
8.0
 40
9.0
 40
9.0
 40
9.0
 40
10.0
 40
10.0
 40
10.0
 40
11.0
 40
11.0
 40
11.0
 40
12.0
 40
12.0
 40
12.0
 40
12.0
 10
80.59238493322461
 20
-90.07712380471673
 30
0.0
 10
88.06190140401414
 20
-83.28665428642914
 30
0.0
 10
81.95047883783286
 20
-70.38476220077249
 30
0.0
 10
81.95047883783286
 20
-70.38476220077249
 30
0.0
 10
81.95047883783286
 20
-70.38476220077249
 30
0.0
 10
84.66666664522118
 20
-71.74285610461872
 30
0.0
 10
84.66666664522118
 20
-71.74285610461872
 30
0.0
 10
84.66666664522118
 20
-71.74285610461872
 30
0.0
 10
83.98761969354159
 20
-67.66857439341496
 30
0.0
 10
81.27143188609294
 20
-67.66857439329304
 30
0.0
 10
78.47164957881087
 20
-67.66857439316726
 30
0.0
 10
80.59238493432191
 20
-65.63143353767576
 30
0.0
 10
80.59238493432191
 20
-65.63143353767576
 30
0.0
 10
83.98761969363304
 20
-65.63143353782816
 30
0.0
 10
83.30857274192296
 20
-62.23619877848656
 30
0.0
 10
83.30857274192296
 20
-62.23619877848656
 30
0.0
 10
83.30857274183151
 20
-64.27333963407337
 30
0.0
 10
78.55524407882655
 20
-63.59429268199752
 30
0.0
 10
78.55524407882655
 20
-63.59429268199752
 30
0.0
 10
77.87619712705647
 20
-61.55715182638023
 30
0.0
 10
69.72763370492295
 20
-56.8038231629787
 30
0.0
 10
69.72763370492295
 20
-56.8038231629787
 30
0.0
 10
70.40668065681527
 20
-56.1247762111467
 30
0.0
 10
64.974305042192
 20
-50.01335364414309
 30
0.0
 10
64.974305042192
 20
-50.01335364414309
 30
0.0
 10
64.29525809039048
 20
-48.65525974038797
 30
0.0
 10
68.3695398015028
 20
-50.01335364429549
 30
0.0
 10
68.3695398015028
 20
-50.01335364429549
 30
0.0
 10
68.36953980156376
 20
-48.65525974057085
 30
0.0
 10
62.25811723486495
 20
-47.2971658365722
 30
0.0
 10
62.25811723486495
 20
-47.2971658365722
 30
0.0
 10
62.25811723486495
 20
-47.2971658365722
 30
0.0
 10
59.54192942747695
 20
-45.93907193272596
 30
0.0
 10
59.54192942747695
 20
-45.93907193272596
 30
0.0
 10
59.54192942747695
 20
-45.93907193272596
 30
0.0
 10
60.90002333083583
 20
-54.08763535513349
 30
0.0
 10
62.25811723452966
 20
-54.76668230705661
 30
0.0
  0
SPLINE
  5
286
330
1F
100
AcDbEntity
  8
Layer 1
370
     0
100
AcDbSpline
210
0.0
220
0.0
230
1.0
 70
    11
 71
     3
 72
    11
 73
     7
 74
     0
 42
0.0000000001
 43
0.0000000001
 12
1.0
 22
0.0
 32
0.0
 13
1.0
 23
0.0
 33
0.0
 40
0.0
 40
0.0
 40
0.0
 40
0.0
 40
1.0
 40
1.0
 40
1.0
 40
2.0
 40
2.0
 40
2.0
 40
2.0
 10
60.22097637961376
 20
-39.82764936599604
 30
0.0
 10
58.35941353964917
 20
-39.00028810368937
 30
0.0
 10
62.25811723501736
 20
-43.90193107726076
 30
0.0
 10
62.25811723501736
 20
-43.90193107726076
 30
0.0
 10
62.25811723501736
 20
-43.90193107726076
 30
0.0
 10
66.33239894625193
 20
-42.54383717371933
 30
0.0
 10
60.22097637961376
 20
-39.82764936599604
 30
0.0
  0
SPLINE
  5
287
330
1F
100
AcDbEntity
  8
Layer 1
370
     0
100
AcDbSpline
210
0.0
220
0.0
230
1.0
 70
    11
 71
     3
 72
    17
 73
    13
 74
     0
 42
0.0000000001
 43
0.0000000001
 12
1.0
 22
0.0
 32
0.0
 13
1.0
 23
0.0
 33
0.0
 40
0.0
 40
0.0
 40
0.0
 40
0.0
 40
1.0
 40
1.0
 40
1.0
 40
2.0
 40
2.0
 40
2.0
 40
3.0
 40
3.0
 40
3.0
 40
4.0
 40
4.0
 40
4.0
 40
4.0
 10
58.3932434389643
 20
-79.15198687591594
 30
0.0
 10
59.30438257436658
 20
-80.34368851591736
 30
0.0
 10
60.40528117859635
 20
-81.03276949418974
 30
0.0
 10
60.85216929359649
 20
-80.6910923184138
 30
0.0
 10
61.29905740859726
 20
-80.34941514263849
 30
0.0
 10
60.92270759660327
 20
-79.1063660082817
 30
0.0
 10
60.01156846120162
 20
-77.91466436827994
 30
0.0
 10
59.10042932579965
 20
-76.72296272827852
 30
0.0
 10
57.99953072156828
 20
-76.03388175000649
 30
0.0
 10
57.55264260656815
 20
-76.37555892578177
 30
0.0
 10
57.10575449156769
 20
-76.71723610155708
 30
0.0
 10
57.48210430356265
 20
-77.96028523591451
 30
0.0
 10
58.3932434389643
 20
-79.15198687591594
 30
0.0
  0
SPLINE
  5
288
330
1F
100
AcDbEntity
  8
Layer 1
370
     0
100
AcDbSpline
210
0.0
220
0.0
230
1.0
 70
    11
 71
     3
 72
    17
 73
    13
 74
     0
 42
0.0000000001
 43
0.0000000001
 12
1.0
 22
0.0
 32
0.0
 13
1.0
 23
0.0
 33
0.0
 40
0.0
 40
0.0
 40
0.0
 40
0.0
 40
1.0
 40
1.0
 40
1.0
 40
2.0
 40
2.0
 40
2.0
 40
3.0
 40
3.0
 40
3.0
 40
4.0
 40
4.0
 40
4.0
 40
4.0
 10
51.13439504593097
 20
-73.16118706003553
 30
0.0
 10
51.65945123623975
 20
-74.15623736837041
 30
0.0
 10
52.48841720471498
 20
-74.75006395161452
 30
0.0
 10
52.9859423588829
 20
-74.48753585645981
 30
0.0
 10
53.48346751304987
 20
-74.2250077613051
 30
0.0
 10
53.46114919855944
 20
-73.20553903657832
 30
0.0
 10
52.93609300825065
 20
-72.21048872824375
 30
0.0
 10
52.41103681794187
 20
-71.21543841990855
 30
0.0
 10
51.58207084946568
 20
-70.62161183666475
 30
0.0
 10
51.0845456952984
 20
-70.88413993181915
 30
0.0
 10
50.58702054113143
 20
-71.14666802697386
 30
0.0
 10
50.60933885562218
 20
-72.16613675170063
 30
0.0
 10
51.13439504593097
 20
-73.16118706003553
 30
0.0
  0
SPLINE
  5
289
330
1F
100
AcDbEntity
  8
Layer 1
370
     0
100
AcDbSpline
210
0.0
220
0.0
230
1.0
 70
    11
 71
     3
 72
    17
 73
    13
 74
     0
 42
0.0000000001
 43
0.0000000001
 12
1.0
 22
0.0
 32
0.0
 13
1.0
 23
0.0
 33
0.0
 40
0.0
 40
0.0
 40
0.0
 40
0.0
 40
1.0
 40
1.0
 40
1.0
 40
2.0
 40
2.0
 40
2.0
 40
3.0
 40
3.0
 40
3.0
 40
4.0
 40
4.0
 40
4.0
 40
4.0
 10
75.65720258625707
 20
-93.50331016519186
 30
0.0
 10
76.1655976520438
 20
-94.01170523102479
 30
0.0
 10
76.86637405829744
 20
-94.13520008766339
 30
0.0
 10
77.22243049828539
 20
-93.7791436477085
 30
0.0
 10
77.57848693827236
 20
-93.42308720775488
 30
0.0
 10
77.45499208169922
 20
-92.72231080148872
 30
0.0
 10
76.94659701591249
 20
-92.21391573565515
 30
0.0
 10
76.43820195012576
 20
-91.70552066982286
 30
0.0
 10
75.73742554387181
 20
-91.58202581318426
 30
0.0
 10
75.38136910388322
 20
-91.93808225313948
 30
0.0
 10
75.02531266389752
 20
-92.29413869309406
 30
0.0
 10
75.14880752047003
 20
-92.99491509935925
 30
0.0
 10
75.65720258625707
 20
-93.50331016519186
 30
0.0
  0
SPLINE
  5
28A
330
1F
100
AcDbEntity
  8
Layer 1
370
     0
100
AcDbSpline
210
0.0
220
0.0
230
1.0
 70
    11
 71
     3
 72
    17
 73
    13
 74
     0
 42
0.0000000001
 43
0.0000000001
 12
1.0
 22
0.0
 32
0.0
 13
1.0
 23
0.0
 33
0.0
 40
0.0
 40
0.0
 40
0.0
 40
0.0
 40
1.0
 40
1.0
 40
1.0
 40
2.0
 40
2.0
 40
2.0
 40
3.0
 40
3.0
 40
3.0
 40
4.0
 40
4.0
 40
4.0
 40
4.0
 10
72.84472849803655
 20
-88.21924505226714
 30
0.0
 10
73.33712422093356
 20
-89.2308554373327
 30
0.0
 10
74.28300465471337
 20
-89.78481728506158
 30
0.0
 10
74.95741157809051
 20
-89.45655346979744
 30
0.0
 10
75.63181850146574
 20
-89.12828965453298
 30
0.0
 10
75.77936773253182
 20
-88.04210700499367
 30
0.0
 10
75.28697200963576
 20
-87.03049661992812
 30
0.0
 10
74.79457628673843
 20
-86.01888623486255
 30
0.0
 10
73.8486958529583
 20
-85.46492438713399
 30
0.0
 10
73.1742889295818
 20
-85.7931882023991
 30
0.0
 10
72.49988200620594
 20
-86.12145201766292
 30
0.0
 10
72.35233277513922
 20
-87.2076346672019
 30
0.0
 10
72.84472849803655
 20
-88.21924505226714
 30
0.0
  0
SPLINE
  5
28B
330
1F
100
AcDbEntity
  8
Layer 1
370
     0
100
AcDbSpline
210
0.0
220
0.0
230
1.0
 70
    11
 71
     3
 72
    17
 73
    13
 74
     0
 42
0.0000000001
 43
0.0000000001
 12
1.0
 22
0.0
 32
0.0
 13
1.0
 23
0.0
 33
0.0
 40
0.0
 40
0.0
 40
0.0
 40
0.0
 40
1.0
 40
1.0
 40
1.0
 40
2.0
 40
2.0
 40
2.0
 40
3.0
 40
3.0
 40
3.0
 40
4.0
 40
4.0
 40
4.0
 40
4.0
 10
64.29525808965862
 20
-64.95238658508174
 30
0.0
 10
64.29525808962492
 20
-65.70244113690516
 30
0.0
 10
64.75128760352429
 20
-66.3104804888266
 30
0.0
 10
65.31382851739089
 20
-66.31048048885194
 30
0.0
 10
65.87636943125847
 20
-66.31048048887696
 30
0.0
 10
66.33239894521205
 20
-65.70244113699661
 30
0.0
 10
66.33239894524574
 20
-64.95238658517319
 30
0.0
 10
66.33239894527942
 20
-64.20233203334976
 30
0.0
 10
65.87636943138038
 20
-63.59429268142833
 30
0.0
 10
65.31382851751282
 20
-63.5942926814033
 30
0.0
 10
64.75128760364622
 20
-63.59429268137795
 30
0.0
 10
64.29525808969231
 20
-64.20233203325832
 30
0.0
 10
64.29525808965862
 20
-64.95238658508174
 30
0.0
  0
SPLINE
  5
28C
330
1F
100
AcDbEntity
  8
Layer 1
370
     0
100
AcDbSpline
210
0.0
220
0.0
230
1.0
 70
    11
 71
     3
 72
    17
 73
    13
 74
     0
 42
0.0000000001
 43
0.0000000001
 12
1.0
 22
0.0
 32
0.0
 13
1.0
 23
0.0
 33
0.0
 40
0.0
 40
0.0
 40
0.0
 40
0.0
 40
1.0
 40
1.0
 40
1.0
 40
2.0
 40
2.0
 40
2.0
 40
3.0
 40
3.0
 40
3.0
 40
4.0
 40
4.0
 40
4.0
 40
4.0
 10
78.27443808830998
 20
-51.21675801724563
 30
0.0
 10
77.38491705966933
 20
-52.18198296313049
 30
0.0
 10
75.65778567758431
 20
-52.03732475084693
 30
0.0
 10
74.41678217573264
 20
-50.89365485688062
 30
0.0
 10
73.1757786738816
 20
-49.749984962914
 30
0.0
 10
72.89084583173427
 20
-48.04038790956191
 30
0.0
 10
73.78036686037555
 20
-47.07516296367673
 30
0.0
 10
74.66988788901587
 20
-46.10993801779188
 30
0.0
 10
76.39701927110089
 20
-46.25459623007511
 30
0.0
 10
77.63802277295257
 20
-47.39826612404142
 30
0.0
 10
78.87902627480425
 20
-48.54193601800837
 30
0.0
 10
79.16395911695157
 20
-50.25153307136046
 30
0.0
 10
78.27443808830998
 20
-51.21675801724563
 30
0.0
  0
SPLINE
  5
28D
330
1F
100
AcDbEntity
  8
Layer 1
370
     0
100
AcDbSpline
210
0.0
220
0.0
230
1.0
 70
    11
 71
     3
 72
    17
 73
    13
 74
     0
 42
0.0000000001
 43
0.0000000001
 12
1.0
 22
0.0
 32
0.0
 13
1.0
 23
0.0
 33
0.0
 40
0.0
 40
0.0
 40
0.0
 40
0.0
 40
1.0
 40
1.0
 40
1.0
 40
2.0
 40
2.0
 40
2.0
 40
3.0
 40
3.0
 40
3.0
 40
4.0
 40
4.0
 40
4.0
 40
4.0
 10
57.37515985456825
 20
-42.91701732034528
 30
0.0
 10
56.48563882592793
 20
-43.88224226623014
 30
0.0
 10
54.75850744384227
 20
-43.7375840539469
 30
0.0
 10
53.51750394199123
 20
-42.59391415998059
 30
0.0
 10
52.27650044013955
 20
-41.45024426601332
 30
0.0
 10
51.99156759799222
 20
-39.74064721266092
 30
0.0
 10
52.88108862663382
 20
-38.77542226677638
 30
0.0
 10
53.77060965527446
 20
-37.81019732089121
 30
0.0
 10
55.49774103735916
 20
-37.95485553317508
 30
0.0
 10
56.73874453921084
 20
-39.09852542714139
 30
0.0
 10
57.9797480410622
 20
-40.24219532110769
 30
0.0
 10
58.26468088320953
 20
-41.9517923744601
 30
0.0
 10
57.37515985456825
 20
-42.91701732034528
 30
0.0
  0
SPLINE
  5
28E
330
1F
100
AcDbEntity
  8
Layer 1
370
     0
100
AcDbSpline
210
0.0
220
0.0
230
1.0
 70
    11
 71
     3
 72
    14
 73
    10
 74
     0
 42
0.0000000001
 43
0.0000000001
 12
1.0
 22
0.0
 32
0.0
 13
1.0
 23
0.0
 33
0.0
 40
0.0
 40
0.0
 40
0.0
 40
0.0
 40
1.0
 40
1.0
 40
1.0
 40
2.0
 40
2.0
 40
2.0
 40
3.0
 40
3.0
 40
3.0
 40
3.0
 10
55.46764771471899
 20
-81.24951342937894
 30
0.0
 10
54.10955381084291
 20
-84.64474818862942
 30
0.0
 10
58.18383552177235
 20
-90.07712380371055
 30
0.0
 10
58.18383552177235
 20
-90.07712380371055
 30
0.0
 10
58.18383552177235
 20
-90.07712380371055
 30
0.0
 10
58.1838355220162
 20
-84.64474818881231
 30
0.0
 10
58.1838355220162
 20
-84.64474818881231
 30
0.0
 10
58.1838355220162
 20
-84.64474818881231
 30
0.0
 10
55.46764771471899
 20
-81.24951342937894
 30
0.0
 10
55.46764771471899
 20
-81.24951342937894
 30
0.0
  0
SPLINE
  5
28F
330
1F
100
AcDbEntity
  8
Layer 1
370
     0
100
AcDbSpline
210
0.0
220
0.0
230
1.0
 70
    11
 71
     3
 72
    11
 73
     7
 74
     0
 42
0.0000000001
 43
0.0000000001
 12
1.0
 22
0.0
 32
0.0
 13
1.0
 23
0.0
 33
0.0
 40
0.0
 40
0.0
 40
0.0
 40
0.0
 40
1.0
 40
1.0
 40
1.0
 40
2.0
 40
2.0
 40
2.0
 40
2.0
 10
71.08572760755092
 20
-81.24951343008
 30
0.0
 10
71.08572760755092
 20
-81.24951343008
 30
0.0
 10
67.01144589646908
 20
-79.21237257431063
 30
0.0
 10
67.01144589677389
 20
-72.42190305568839
 30
0.0
 10
67.01144589677389
 20
-72.42190305568839
 30
0.0
 10
64.97430504057748
 20
-86.00284209284176
 30
0.0
 10
71.08572760755092
 20
-81.24951343008
 30
0.0
  0
ENDSEC
  0
SECTION
  2
OBJECTS
  0
DICTIONARY
  5
C
330
0
100
AcDbDictionary
281
     1
  3
ACAD_GROUP
350
D
  3
ACAD_LAYOUT
350
1A
  3
ACAD_MATERIAL
350
3B
  3
ACAD_MLEADERSTYLE
350
2C8
  3
ACAD_MLINESTYLE
350
17
  3
ACAD_PLOTSETTINGS
350
19
  3
ACAD_PLOTSTYLENAME
350
E
  3
ACAD_TABLESTYLE
350
2C7
  3
ACAD_VISUALSTYLE
350
2A
  0
SUN
  5
3F
330
29
100
AcDbSun
 90
        1
290
     0
 63
     7
421
 16777215
 40
1.0
291
     1
 91
  2455826
 92
 54000000
292
     0
 70
     2
 71
   256
280
     1
  0
DICTIONARY
  5
D
102
{ACAD_REACTORS
330
C
102
}
330
C
100
AcDbDictionary
281
     1
  0
DICTIONARY
  5
1A
102
{ACAD_REACTORS
330
C
102
}
330
C
100
AcDbDictionary
281
     1
  3
Layout1
350
1E
  3
Layout2
350
26
  3
Model
350
22
  0
DICTIONARY
  5
3B
102
{ACAD_REACTORS
330
C
102
}
330
C
100
AcDbDictionary
281
     1
  3
ByBlock
350
3D
  3
ByLayer
350
3C
  3
Global
350
3E
  0
DICTIONARY
  5
2C8
102
{ACAD_REACTORS
330
C
102
}
330
C
100
AcDbDictionary
281
     1
  0
DICTIONARY
  5
17
102
{ACAD_REACTORS
330
C
102
}
330
C
100
AcDbDictionary
281
     1
  3
Standard
350
18
  0
DICTIONARY
  5
19
102
{ACAD_REACTORS
330
C
102
}
330
C
100
AcDbDictionary
281
     1
  0
ACDBDICTIONARYWDFLT
  5
E
102
{ACAD_REACTORS
330
C
102
}
330
C
100
AcDbDictionary
281
     1
  3
Normal
350
F
100
AcDbDictionaryWithDefault
340
F
  0
DICTIONARY
  5
2C7
102
{ACAD_REACTORS
330
C
102
}
330
C
100
AcDbDictionary
281
     1
  0
DICTIONARY
  5
2A
102
{ACAD_REACTORS
330
C
102
}
330
C
100
AcDbDictionary
281
     1
  3
2dWireframe
350
2F
  3
3D Hidden
350
31
  3
3dWireframe
350
30
  3
Basic
350
32
  3
Brighten
350
36
  3
ColorChange
350
3A
  3
Conceptual
350
34
  3
Dim
350
35
  3
Facepattern
350
39
  3
Flat
350
2B
  3
FlatWithEdges
350
2C
  3
Gouraud
350
2D
  3
GouraudWithEdges
350
2E
  3
Linepattern
350
38
  3
Realistic
350
33
  3
Thicken
350
37
  0
LAYOUT
  5
1E
102
{ACAD_REACTORS
330
1A
102
}
330
1A
100
AcDbPlotSettings
  1

  2
none_device
  4

  6

 40
0.0
 41
0.0
 42
0.0
 43
0.0
 44
0.0
 45
0.0
 46
0.0
 47
0.0
 48
0.0
 49
0.0
140
0.0
141
0.0
142
1.0
143
1.0
 70
   688
 72
     0
 73
     0
 74
     5
  7

 75
    16
 76
     0
 77
     2
 78
   300
147
1.0
148
0.0
149
0.0
100
AcDbLayout
  1
Layout1
 70
     1
 71
     1
 10
0.0
 20
0.0
 11
12.0
 21
9.0
 12
0.0
 22
0.0
 32
0.0
 14
1.000000000000000E+20
 24
1.000000000000000E+20
 34
1.000000000000000E+20
 15
-1.000000000000000E+20
 25
-1.000000000000000E+20
 35
-1.000000000000000E+20
146
0.0
 13
0.0
 23
0.0
 33
0.0
 16
1.0
 26
0.0
 36
0.0
 17
0.0
 27
1.0
 37
0.0
 76
     0
330
1B
  0
LAYOUT
  5
26
102
{ACAD_REACTORS
330
1A
102
}
330
1A
100
AcDbPlotSettings
  1

  2
none_device
  4

  6

 40
0.0
 41
0.0
 42
0.0
 43
0.0
 44
0.0
 45
0.0
 46
0.0
 47
0.0
 48
0.0
 49
0.0
140
0.0
141
0.0
142
1.0
143
1.0
 70
   688
 72
     0
 73
     0
 74
     5
  7

 75
    16
 76
     0
 77
     2
 78
   300
147
1.0
148
0.0
149
0.0
100
AcDbLayout
  1
Layout2
 70
     1
 71
     2
 10
0.0
 20
0.0
 11
0.0
 21
0.0
 12
0.0
 22
0.0
 32
0.0
 14
0.0
 24
0.0
 34
0.0
 15
0.0
 25
0.0
 35
0.0
146
0.0
 13
0.0
 23
0.0
 33
0.0
 16
1.0
 26
0.0
 36
0.0
 17
0.0
 27
1.0
 37
0.0
 76
     0
330
23
  0
LAYOUT
  5
22
102
{ACAD_REACTORS
330
1A
102
}
330
1A
100
AcDbPlotSettings
  1

  2
none_device
  4

  6

 40
0.0
 41
0.0
 42
0.0
 43
0.0
 44
0.0
 45
0.0
 46
0.0
 47
0.0
 48
0.0
 49
0.0
140
0.0
141
0.0
142
1.0
143
1.0
 70
  1712
 72
     0
 73
     0
 74
     0
  7

 75
     0
 76
     0
 77
     2
 78
   300
147
1.0
148
0.0
149
0.0
100
AcDbLayout
  1
Model
 70
     1
 71
     0
 10
0.0
 20
0.0
 11
12.0
 21
9.0
 12
0.0
 22
0.0
 32
0.0
 14
1.000000000000000E+20
 24
1.000000000000000E+20
 34
1.000000000000000E+20
 15
-1.000000000000000E+20
 25
-1.000000000000000E+20
 35
-1.000000000000000E+20
146
0.0
 13
0.0
 23
0.0
 33
0.0
 16
1.0
 26
0.0
 36
0.0
 17
0.0
 27
1.0
 37
0.0
 76
     0
330
1F
331
29
  0
MATERIAL
  5
3D
102
{ACAD_REACTORS
330
3B
102
}
330
3B
100
AcDbMaterial
  1
ByBlock
 72
     1
 94
      127
  0
MATERIAL
  5
3C
102
{ACAD_REACTORS
330
3B
102
}
330
3B
100
AcDbMaterial
  1
ByLayer
 72
     1
 94
      127
  0
MATERIAL
  5
3E
102
{ACAD_REACTORS
330
3B
102
}
330
3B
100
AcDbMaterial
  1
Global
 72
     1
 94
      127
  0
MLINESTYLE
  5
18
102
{ACAD_REACTORS
330
17
102
}
330
17
100
AcDbMlineStyle
  2
Standard
 70
     0
  3

 62
   256
 51
90.0
 52
90.0
 71
     2
 49
0.5
 62
   256
  6
BYLAYER
 49
-0.5
 62
   256
  6
BYLAYER
  0
ACDBPLACEHOLDER
  5
F
102
{ACAD_REACTORS
330
E
102
}
330
E
  0
VISUALSTYLE
  5
2F
102
{ACAD_REACTORS
330
2A
102
}
330
2A
100
AcDbVisualStyle
  2
2dWireframe
 70
     4
177
     2
291
     0
 71
     0
176
     1
 72
     2
176
     1
 73
     0
176
     1
 90
        0
176
     1
 40
-0.6
176
     1
 41
-30.0
176
     1
 62
     5
 63
     7
421
 16777215
176
     1
 74
     1
176
     1
 91
        4
176
     1
 64
     7
176
     1
 65
   257
176
     1
 75
     1
176
     1
175
     1
176
     1
 42
1.0
176
     1
 92
        0
176
     1
 66
   257
176
     1
 43
1.0
176
     1
 76
     1
176
     1
 77
     6
176
     1
 78
     2
176
     1
 67
     7
176
     1
 79
     5
176
     1
170
     0
176
     1
171
     0
176
     1
290
     0
176
     1
 93
        1
176
     1
 44
0.0
176
     1
173
     0
176
     1
  0
VISUALSTYLE
  5
31
102
{ACAD_REACTORS
330
2A
102
}
330
2A
100
AcDbVisualStyle
  2
3D Hidden
 70
     6
177
     2
291
     0
 71
     1
176
     1
 72
     2
176
     1
 73
     2
176
     1
 90
        0
176
     1
 40
-0.6
176
     1
 41
-30.0
176
     1
 62
     5
 63
     7
421
 16777215
176
     1
 74
     2
176
     1
 91
        2
176
     1
 64
     7
176
     1
 65
   257
176
     1
 75
     2
176
     1
175
     1
176
     1
 42
40.0
176
     1
 92
        0
176
     1
 66
   257
176
     1
 43
1.0
176
     1
 76
     1
176
     1
 77
     6
176
     1
 78
     2
176
     1
 67
     7
176
     1
 79
     3
176
     1
170
     0
176
     1
171
     0
176
     1
290
     0
176
     1
 93
        1
176
     1
 44
0.0
176
     1
173
     0
176
     1
  0
VISUALSTYLE
  5
30
102
{ACAD_REACTORS
330
2A
102
}
330
2A
100
AcDbVisualStyle
  2
3dWireframe
 70
     5
177
     2
291
     0
 71
     0
176
     1
 72
     2
176
     1
 73
     0
176
     1
 90
        0
176
     1
 40
-0.6
176
     1
 41
-30.0
176
     1
 62
     5
 63
     7
421
 16777215
176
     1
 74
     1
176
     1
 91
        4
176
     1
 64
     7
176
     1
 65
   257
176
     1
 75
     1
176
     1
175
     1
176
     1
 42
1.0
176
     1
 92
        0
176
     1
 66
   257
176
     1
 43
1.0
176
     1
 76
     1
176
     1
 77
     6
176
     1
 78
     2
176
     1
 67
     7
176
     1
 79
     5
176
     1
170
     0
176
     1
171
     0
176
     1
290
     0
176
     1
 93
        1
176
     1
 44
0.0
176
     1
173
     0
176
     1
  0
VISUALSTYLE
  5
32
102
{ACAD_REACTORS
330
2A
102
}
330
2A
100
AcDbVisualStyle
  2
Basic
 70
     7
177
     2
291
     1
 71
     1
176
     1
 72
     0
176
     1
 73
     1
176
     1
 90
        0
176
     1
 40
-0.6
176
     1
 41
-30.0
176
     1
 62
     5
 63
     7
421
 16777215
176
     1
 74
     0
176
     1
 91
        4
176
     1
 64
     7
176
     1
 65
   257
176
     1
 75
     1
176
     1
175
     1
176
     1
 42
1.0
176
     1
 92
        8
176
     1
 66
     7
176
     1
 43
1.0
176
     1
 76
     1
176
     1
 77
     6
176
     1
 78
     2
176
     1
 67
     7
176
     1
 79
     5
176
     1
170
     0
176
     1
171
     0
176
     1
290
     0
176
     1
 93
        1
176
     1
 44
0.0
176
     1
173
     0
176
     1
  0
VISUALSTYLE
  5
36
102
{ACAD_REACTORS
330
2A
102
}
330
2A
100
AcDbVisualStyle
  2
Brighten
 70
    12
177
     2
291
     1
 71
     2
176
     1
 72
     2
176
     1
 73
     0
176
     1
 90
        0
176
     1
 40
-0.6
176
     1
 41
-30.0
176
     1
 62
     5
 63
     7
421
 16777215
176
     1
 74
     1
176
     1
 91
        4
176
     1
 64
     7
176
     1
 65
   257
176
     1
 75
     1
176
     1
175
     1
176
     1
 42
1.0
176
     1
 92
        8
176
     1
 66
     7
176
     1
 43
1.0
176
     1
 76
     1
176
     1
 77
     6
176
     1
 78
     2
176
     1
 67
     7
176
     1
 79
     5
176
     1
170
     0
176
     1
171
     0
176
     1
290
     0
176
     1
 93
        1
176
     1
 44
50.0
176
     1
173
     0
176
     1
  0
VISUALSTYLE
  5
3A
102
{ACAD_REACTORS
330
2A
102
}
330
2A
100
AcDbVisualStyle
  2
ColorChange
 70
    16
177
     2
291
     1
 71
     2
176
     1
 72
     2
176
     1
 73
     3
176
     1
 90
        0
176
     1
 40
-0.6
176
     1
 41
-30.0
176
     1
 62
     5
 63
     8
421
  8421504
176
     1
 74
     1
176
     1
 91
        4
176
     1
 64
     7
176
     1
 65
   257
176
     1
 75
     1
176
     1
175
     1
176
     1
 42
1.0
176
     1
 92
        8
176
     1
 66
     8
424
  8421504
176
     1
 43
1.0
176
     1
 76
     1
176
     1
 77
     6
176
     1
 78
     2
176
     1
 67
     7
176
     1
 79
     5
176
     1
170
     0
176
     1
171
     0
176
     1
290
     0
176
     1
 93
        1
176
     1
 44
0.0
176
     1
173
     0
176
     1
  0
VISUALSTYLE
  5
34
102
{ACAD_REACTORS
330
2A
102
}
330
2A
100
AcDbVisualStyle
  2
Conceptual
 70
     9
177
     2
291
     0
 71
     3
176
     1
 72
     2
176
     1
 73
     0
176
     1
 90
        0
176
     1
 40
-0.6
176
     1
 41
-30.0
176
     1
 62
     5
 63
     7
421
 16777215
176
     1
 74
     2
176
     1
 91
        2
176
     1
 64
     7
176
     1
 65
   257
176
     1
 75
     1
176
     1
175
     1
176
     1
 42
40.0
176
     1
 92
        8
176
     1
 66
     7
176
     1
 43
1.0
176
     1
 76
     1
176
     1
 77
     6
176
     1
 78
     2
176
     1
 67
     7
176
     1
 79
     3
176
     1
170
     0
176
     1
171
     0
176
     1
290
     0
176
     1
 93
        1
176
     1
 44
0.0
176
     1
173
     0
176
     1
  0
VISUALSTYLE
  5
35
102
{ACAD_REACTORS
330
2A
102
}
330
2A
100
AcDbVisualStyle
  2
Dim
 70
    11
177
     2
291
     1
 71
     2
176
     1
 72
     2
176
     1
 73
     0
176
     1
 90
        0
176
     1
 40
-0.6
176
     1
 41
-30.0
176
     1
 62
     5
 63
     7
421
 16777215
176
     1
 74
     1
176
     1
 91
        4
176
     1
 64
     7
176
     1
 65
   257
176
     1
 75
     1
176
     1
175
     1
176
     1
 42
1.0
176
     1
 92
        8
176
     1
 66
     7
176
     1
 43
1.0
176
     1
 76
     1
176
     1
 77
     6
176
     1
 78
     2
176
     1
 67
     7
176
     1
 79
     5
176
     1
170
     0
176
     1
171
     0
176
     1
290
     0
176
     1
 93
        1
176
     1
 44
-50.0
176
     1
173
     0
176
     1
  0
VISUALSTYLE
  5
39
102
{ACAD_REACTORS
330
2A
102
}
330
2A
100
AcDbVisualStyle
  2
Facepattern
 70
    15
177
     2
291
     1
 71
     2
176
     1
 72
     2
176
     1
 73
     0
176
     1
 90
        0
176
     1
 40
-0.6
176
     1
 41
-30.0
176
     1
 62
     5
 63
     7
421
 16777215
176
     1
 74
     1
176
     1
 91
        4
176
     1
 64
     7
176
     1
 65
   257
176
     1
 75
     1
176
     1
175
     1
176
     1
 42
1.0
176
     1
 92
        8
176
     1
 66
     7
176
     1
 43
1.0
176
     1
 76
     1
176
     1
 77
     6
176
     1
 78
     2
176
     1
 67
     7
176
     1
 79
     5
176
     1
170
     0
176
     1
171
     0
176
     1
290
     0
176
     1
 93
        1
176
     1
 44
0.0
176
     1
173
     0
176
     1
  0
VISUALSTYLE
  5
2B
102
{ACAD_REACTORS
330
2A
102
}
330
2A
100
AcDbVisualStyle
  2
Flat
 70
     0
177
     2
291
     1
 71
     2
176
     1
 72
     1
176
     1
 73
     1
176
     1
 90
        2
176
     1
 40
-0.6
176
     1
 41
30.0
176
     1
 62
     5
 63
     7
421
 16777215
176
     1
 74
     0
176
     1
 91
        4
176
     1
 64
     7
176
     1
 65
   257
176
     1
 75
     1
176
     1
175
     1
176
     1
 42
1.0
176
     1
 92
        8
176
     1
 66
     7
176
     1
 43
1.0
176
     1
 76
     1
176
     1
 77
     6
176
     1
 78
     2
176
     1
 67
     7
176
     1
 79
     5
176
     1
170
     0
176
     1
171
     0
176
     1
290
     0
176
     1
 93
       13
176
     1
 44
0.0
176
     1
173
     0
176
     1
  0
VISUALSTYLE
  5
2C
102
{ACAD_REACTORS
330
2A
102
}
330
2A
100
AcDbVisualStyle
  2
FlatWithEdges
 70
     1
177
     2
291
     1
 71
     2
176
     1
 72
     1
176
     1
 73
     1
176
     1
 90
        2
176
     1
 40
-0.6
176
     1
 41
30.0
176
     1
 62
     5
 63
     7
421
 16777215
176
     1
 74
     1
176
     1
 91
        4
176
     1
 64
     7
176
     1
 65
   257
176
     1
 75
     1
176
     1
175
     1
176
     1
 42
1.0
176
     1
 92
        0
176
     1
 66
   257
176
     1
 43
1.0
176
     1
 76
     1
176
     1
 77
     6
176
     1
 78
     2
176
     1
 67
     7
176
     1
 79
     5
176
     1
170
     0
176
     1
171
     0
176
     1
290
     0
176
     1
 93
       13
176
     1
 44
0.0
176
     1
173
     0
176
     1
  0
VISUALSTYLE
  5
2D
102
{ACAD_REACTORS
330
2A
102
}
330
2A
100
AcDbVisualStyle
  2
Gouraud
 70
     2
177
     2
291
     1
 71
     2
176
     1
 72
     2
176
     1
 73
     1
176
     1
 90
        2
176
     1
 40
-0.6
176
     1
 41
30.0
176
     1
 62
     5
 63
     7
421
 16777215
176
     1
 74
     0
176
     1
 91
        4
176
     1
 64
     7
176
     1
 65
   257
176
     1
 75
     1
176
     1
175
     1
176
     1
 42
1.0
176
     1
 92
        0
176
     1
 66
     7
176
     1
 43
1.0
176
     1
 76
     1
176
     1
 77
     6
176
     1
 78
     2
176
     1
 67
     7
176
     1
 79
     5
176
     1
170
     0
176
     1
171
     0
176
     1
290
     0
176
     1
 93
       13
176
     1
 44
0.0
176
     1
173
     0
176
     1
  0
VISUALSTYLE
  5
2E
102
{ACAD_REACTORS
330
2A
102
}
330
2A
100
AcDbVisualStyle
  2
GouraudWithEdges
 70
     3
177
     2
291
     1
 71
     2
176
     1
 72
     2
176
     1
 73
     1
176
     1
 90
        2
176
     1
 40
-0.6
176
     1
 41
30.0
176
     1
 62
     5
 63
     7
421
 16777215
176
     1
 74
     1
176
     1
 91
        4
176
     1
 64
     7
176
     1
 65
   257
176
     1
 75
     1
176
     1
175
     1
176
     1
 42
1.0
176
     1
 92
        0
176
     1
 66
   257
176
     1
 43
1.0
176
     1
 76
     1
176
     1
 77
     6
176
     1
 78
     2
176
     1
 67
     7
176
     1
 79
     5
176
     1
170
     0
176
     1
171
     0
176
     1
290
     0
176
     1
 93
       13
176
     1
 44
0.0
176
     1
173
     0
176
     1
  0
VISUALSTYLE
  5
38
102
{ACAD_REACTORS
330
2A
102
}
330
2A
100
AcDbVisualStyle
  2
Linepattern
 70
    14
177
     2
291
     1
 71
     2
176
     1
 72
     2
176
     1
 73
     0
176
     1
 90
        0
176
     1
 40
-0.6
176
     1
 41
-30.0
176
     1
 62
     5
 63
     7
421
 16777215
176
     1
 74
     1
176
     1
 91
        4
176
     1
 64
     7
176
     1
 65
   257
176
     1
 75
     7
176
     1
175
     7
176
     1
 42
1.0
176
     1
 92
        8
176
     1
 66
     7
176
     1
 43
1.0
176
     1
 76
     1
176
     1
 77
     6
176
     1
 78
     2
176
     1
 67
     7
176
     1
 79
     5
176
     1
170
     0
176
     1
171
     0
176
     1
290
     0
176
     1
 93
        1
176
     1
 44
0.0
176
     1
173
     0
176
     1
  0
VISUALSTYLE
  5
33
102
{ACAD_REACTORS
330
2A
102
}
330
2A
100
AcDbVisualStyle
  2
Realistic
 70
     8
177
     2
291
     0
 71
     2
176
     1
 72
     2
176
     1
 73
     0
176
     1
 90
        0
176
     1
 40
-0.6
176
     1
 41
-30.0
176
     1
 62
     5
 63
     7
421
 16777215
176
     1
 74
     1
176
     1
 91
        0
176
     1
 64
     7
176
     1
 65
   257
176
     1
 75
     1
176
     1
175
     1
176
     1
 42
1.0
176
     1
 92
        8
176
     1
 66
     8
424
  7895160
176
     1
 43
1.0
176
     1
 76
     1
176
     1
 77
     6
176
     1
 78
     2
176
     1
 67
     7
176
     1
 79
     5
176
     1
170
     0
176
     1
171
     0
176
     1
290
     0
176
     1
 93
       13
176
     1
 44
0.0
176
     1
173
     0
176
     1
  0
VISUALSTYLE
  5
37
102
{ACAD_REACTORS
330
2A
102
}
330
2A
100
AcDbVisualStyle
  2
Thicken
 70
    13
177
     2
291
     1
 71
     2
176
     1
 72
     2
176
     1
 73
     0
176
     1
 90
        0
176
     1
 40
-0.6
176
     1
 41
-30.0
176
     1
 62
     5
 63
     7
421
 16777215
176
     1
 74
     1
176
     1
 91
        4
176
     1
 64
     7
176
     1
 65
   257
176
     1
 75
     1
176
     1
175
     1
176
     1
 42
1.0
176
     1
 92
       12
176
     1
 66
     7
176
     1
 43
1.0
176
     1
 76
     1
176
     1
 77
     6
176
     1
 78
     2
176
     1
 67
     7
176
     1
 79
     5
176
     1
170
     0
176
     1
171
     0
176
     1
290
     0
176
     1
 93
        1
176
     1
 44
0.0
176
     1
173
     0
176
     1
  0
ENDSEC
  0
EOF
